<svg width="151" height="26" viewBox="0 0 151 26" fill="none" xmlns="http://www.w3.org/2000/svg">
<path d="M54.5408 11.6563V21.4865H50.7042V20.1252C49.5903 21.2921 48.2112 21.8225 46.4962 21.8225C43.1193 21.8225 40.98 19.913 40.98 17.4201C40.98 15.21 42.7303 13.7602 45.7537 13.1414L50.4213 12.1513V11.6563C50.4213 10.5424 49.5019 9.79984 48.1228 9.79984C46.673 9.79984 45.4708 10.6485 45.0465 11.9922L41.5281 10.2949C42.3944 7.83732 44.9757 6.24609 48.1405 6.24609C51.9418 6.24609 54.5408 8.47382 54.5408 11.6563ZM50.439 15.8112V15.1039L46.5139 15.9703C45.6653 16.1648 45.2233 16.6775 45.2233 17.367C45.2233 18.2687 45.9658 18.8168 47.1327 18.8168C48.9892 18.8168 50.439 17.4731 50.439 15.8112Z" fill="#111111"/>
<path d="M65.6798 14.0078L70.8955 21.4866H66.1395L63.2753 17.2079L60.4111 21.4866H55.6374L60.8708 14.0078L55.6021 6.58203H60.3581L63.2753 10.843L66.1926 6.58203H70.9486L65.6798 14.0078Z" fill="#111111"/>
<path d="M85.9236 15.1748H75.4569C75.7044 17.0666 77.0481 18.2511 79.0637 18.2511C80.5134 18.2511 81.5743 17.6147 82.14 16.6069L85.4109 18.1627C84.5092 20.3551 82.0516 21.7872 78.9929 21.7872C74.2723 21.7872 71.1782 18.2865 71.1782 13.9725C71.1782 9.51706 74.4491 6.22852 78.71 6.22852C82.8826 6.22852 86.1004 9.44634 86.1004 13.5659C86.1181 14.2023 86.0651 14.7681 85.9236 15.1748ZM81.7864 12.1868C81.6273 10.5956 80.425 9.53474 78.7277 9.53474C77.1188 9.53474 75.9342 10.4718 75.5276 12.1868H81.7864Z" fill="#111111"/>
<path d="M101.518 11.9038V21.4865H97.416V12.7701C97.416 11.0551 96.3022 9.9236 94.6933 9.9236C93.0843 9.9236 91.9705 11.0375 91.9705 12.7701V21.4865H87.8687V6.58202H91.6876V8.38541C92.4479 6.93563 93.9861 6.26377 95.8602 6.26377C99.2371 6.24609 101.518 8.52686 101.518 11.9038Z" fill="#111111"/>
<path d="M105.567 16.1122V10.1362H103.003V6.5825H103.197C104.718 6.5825 105.567 5.82225 105.567 4.28406V2.10938H109.668V6.5825H113.169V10.1362H109.668V16.1122C109.668 17.6327 110.482 18.3753 112.214 18.3753C112.462 18.3753 112.78 18.3399 113.169 18.2869V21.5047C112.621 21.5931 111.878 21.6462 111.26 21.6462C107.635 21.6462 105.567 19.5952 105.567 16.1122Z" fill="#111111"/>
<path d="M129.099 15.1748H118.615C118.862 17.0666 120.206 18.2511 122.221 18.2511C123.671 18.2511 124.732 17.6147 125.298 16.6069L128.569 18.1627C127.667 20.3551 125.209 21.7872 122.151 21.7872C117.43 21.7872 114.336 18.2865 114.336 13.9725C114.336 9.51706 117.607 6.22852 121.868 6.22852C126.04 6.22852 129.258 9.44634 129.258 13.5659C129.293 14.2023 129.24 14.7681 129.099 15.1748ZM124.944 12.1868C124.785 10.5956 123.583 9.53474 121.885 9.53474C120.277 9.53474 119.092 10.4718 118.685 12.1868H124.944Z" fill="#111111"/>
<path d="M146.16 1.1543V21.4867H142.342V20.0723C141.281 21.2215 139.636 21.8226 137.815 21.8226C133.466 21.8226 130.23 18.3749 130.23 14.0433C130.23 9.67622 133.554 6.26391 137.798 6.26391C139.566 6.26391 141.069 6.82969 142.076 7.85514V1.1543H146.16ZM142.076 14.0433C142.076 11.6387 140.52 9.94143 138.31 9.94143C136.065 9.94143 134.456 11.6564 134.456 14.0433C134.456 16.4478 136.065 18.1451 138.31 18.1451C140.503 18.1274 142.076 16.4655 142.076 14.0433Z" fill="#111111"/>
<path d="M14.1414 16.7129H21.2312L16.4221 24.8458H9.36768L14.1414 16.7129Z" fill="#111111"/>
<path d="M29.6293 2.46289L24.838 10.6135H17.7305L22.5218 2.46289H29.6293Z" fill="#111111"/>
<path d="M17.7305 10.6133L14.1414 16.713H4.71777L8.32456 10.6133H17.7305Z" fill="#FFA07F"/>
<path d="M24.8377 10.6133L21.2309 16.713H14.1411L17.7302 10.6133H24.8377Z" fill="#111111"/>
<path d="M34.279 10.6133L30.7076 16.713H21.231L24.8377 10.6133H34.279Z" fill="#FFA07F"/>
</svg>
