<svg width="167" height="26" viewBox="0 0 167 26" fill="none" xmlns="http://www.w3.org/2000/svg">
<g clip-path="url(#clip0_525_528)">
<path d="M0.697754 19.3125H1.38525C2.63525 19.3125 3.13525 18.875 3.13525 17.6875V3.3125C3.13525 2.125 2.63525 1.6875 1.38525 1.6875H0.697754V1.25H8.26025C12.3853 1.25 15.2603 2.5 15.2603 5.625C15.2603 8.18753 12.9478 9.56253 10.1978 10.125C13.3853 10.6875 15.8228 12 15.8228 14.8125C15.8228 17.875 13.1353 19.75 8.63525 19.75H0.697754V19.3125ZM8.13525 10C10.8228 10 12.0728 8.43753 12.0728 5.8125C12.0728 3.1875 10.7603 1.6875 8.19775 1.6875H7.76025C6.51025 1.6875 6.13525 2.0625 6.13525 3.3125V10H8.13525ZM8.69775 19.3125C11.5728 19.3125 12.6353 17.3125 12.6353 14.9375C12.6353 12.3125 11.4478 10.5 8.44775 10.5H6.13525V17.75C6.13525 18.9375 6.63525 19.375 7.82275 19.375H8.69775V19.3125Z" fill="#111111"/>
<path d="M16.8853 19.3125H17.0103C18.1978 19.3125 18.4478 18.875 18.4478 17.8125V10.25C18.4478 9.1875 18.1978 8.75 17.0103 8.75H16.8853V8.3125L21.1353 8.0625L20.8853 12.3125H20.9478C21.7603 9.8125 23.1353 7.9375 24.9478 7.9375C26.1978 7.9375 27.1353 8.6875 27.1353 9.9375C27.1353 10.9375 26.5103 11.6875 25.5728 11.6875C24.7603 11.6875 24.1978 11.1875 24.1978 10.375C24.1978 9.75 24.5103 9.375 24.8228 9.1875C25.0103 9.0625 25.1353 9 25.1353 8.875C25.1353 8.75 24.9478 8.625 24.6978 8.625C22.9478 8.625 21.1978 11.625 21.1978 14.4375V17.8125C21.1978 18.9375 21.4478 19.3125 22.6353 19.3125H23.2603V19.75H16.8853V19.3125Z" fill="#111111"/>
<path d="M27.8228 17.4375C27.8228 15.375 29.6353 14 34.9478 12.8125V12.0625C34.9478 9.4375 34.1353 8.4375 32.4478 8.4375C31.0103 8.4375 29.7603 9.125 29.7603 9.5625C29.7603 9.75 29.8853 9.75 30.1353 9.75C30.7603 9.75 31.3853 10.25 31.3853 11.0625C31.3853 11.8125 30.7603 12.4375 30.0103 12.4375C29.1978 12.4375 28.5728 11.8125 28.5728 11C28.5728 9.4375 30.0103 8.0625 33.1353 8.0625C35.6978 8.0625 37.5728 9.0625 37.5728 12.1875V17.875C37.5728 18.75 37.8853 19.125 38.2603 19.125C38.7603 19.125 39.0103 18.5625 39.1978 17.875L39.5103 18C39.1978 19.5625 38.3853 20.0625 37.1353 20.0625C36.0103 20.0625 34.8228 19.25 34.9478 17.4375H34.8853C34.3228 18.875 32.6978 20.1875 30.8228 20.1875C29.1353 20.0625 27.8228 19.125 27.8228 17.4375ZM34.9478 15.125V13.25C31.4478 14 30.6978 15.4375 30.6978 16.9375C30.6978 18.0625 31.2603 18.8125 32.2603 18.8125C33.3228 18.75 34.9478 17.5625 34.9478 15.125Z" fill="#111111"/>
<path d="M40.2603 19.3125H40.3853C41.5728 19.3125 41.8228 18.875 41.8228 17.8125V10.25C41.8228 9.1875 41.5728 8.75 40.3853 8.75H40.2603V8.3125L44.5103 8.0625L44.3853 11.25H44.4478C45.0728 9.4375 46.5728 8.0625 48.5728 8.0625C50.8853 8.0625 51.8228 9.5 51.8228 12.1875V17.8125C51.8228 18.9375 52.0728 19.3125 53.2603 19.3125H53.3228V19.75H47.5728V19.3125H47.7603C48.9478 19.3125 49.1978 18.9375 49.1978 17.8125V11.5C49.1978 9.75 48.6978 9.1875 47.5728 9.1875C45.7603 9.1875 44.5103 11.1875 44.5103 13.5625V17.8125C44.5103 18.9375 44.7603 19.3125 45.9478 19.3125H46.1353V19.75H40.1978V19.3125H40.2603Z" fill="#111111"/>
<path d="M53.9478 14C53.9478 10.5625 55.9478 7.99997 58.6353 7.99997C60.3853 7.99997 61.6353 9.12497 62.3228 10.625H62.3853C62.3853 10.25 62.3228 8.31247 62.3228 7.43747V3.1875C62.3228 2 62.0103 1.6875 60.8228 1.625H60.1978V1.1875L64.9476 0.75V17.5625C64.9476 18.8125 65.1976 19.125 66.3851 19.125H66.5726V19.5625L62.3228 20L62.4478 17.125H62.3853C61.5103 18.8125 60.3853 19.9375 58.5103 19.9375C56.1978 20 53.9478 17.5625 53.9478 14ZM62.3228 14.0625C62.3228 10.625 60.5728 8.62497 59.2603 8.62497C57.4478 8.62497 56.9478 10.9375 56.9478 13.875C56.9478 17 57.6353 19.1875 59.2603 19.1875C60.8228 19.25 62.3228 16.8125 62.3228 14.0625Z" fill="#111111"/>
<path d="M69.1353 19.125C68.6978 19.125 68.3853 19.4375 68.1978 20H67.8853V15.4375H68.3228C68.8228 17.9375 70.8228 19.625 72.9478 19.625C74.5728 19.625 75.4478 18.75 75.4478 17.6875C75.4478 16.5625 74.6978 16.0625 72.1978 15.375C69.7603 14.6875 68.0103 13.9375 68.0103 11.5C68.0103 9.3125 69.6353 8.0625 71.8853 8.0625C73.5103 8.0625 74.1353 8.75 74.9478 8.75C75.4478 8.75 75.7603 8.5625 75.9478 8.0625H76.2603V12.0625H75.8853C75.4478 10 73.9478 8.5 71.8228 8.5C70.6353 8.5 69.7603 9.25 69.7603 10.3125C69.7603 11.5625 70.8228 11.9375 72.8853 12.5C75.5728 13.25 77.1978 14.125 77.1978 16.375C77.1978 18.625 75.5103 20.0625 72.8228 20.0625C71.0103 20 69.8228 19.125 69.1353 19.125Z" fill="#111111"/>
<path d="M79.4478 15.0625C79.4478 12.25 81.2603 10.4375 84.0103 9.06253C83.6353 7.68753 83.5103 6.6875 83.5103 5.8125C83.5103 2.8125 85.2603 0.9375 87.6978 0.9375C89.8853 0.9375 91.1353 2.1875 91.1353 3.875C91.1353 5.6875 89.6978 6.93747 86.6353 8.37497C87.0103 9.37497 87.4478 10.5 88.0728 11.6875C88.7603 13.0625 89.6978 14.75 90.5728 16C91.5728 14.5625 92.3228 12.75 92.3228 11C92.3228 9.68747 91.3228 9.37497 89.8228 9.31247V8.87503H95.9478V9.31247C94.1978 9.37497 93.5103 9.93753 93.0728 11.6875C92.7603 12.9375 92.0728 14.8125 91.0103 16.5C91.8853 17.5625 92.6978 18.25 93.6353 18.25C94.8853 18.25 95.5728 17.25 95.6353 15.375H96.0103C96.0103 18.25 94.6978 20 92.3853 20C91.2603 20 90.1978 19.5 89.1978 18.5C88.0728 19.4375 86.6978 20.0625 84.9478 20.0625C81.6353 20 79.4478 17.9375 79.4478 15.0625ZM88.7603 18C87.6978 16.8125 86.5728 15.0625 85.5103 12.875C84.9478 11.6875 84.5103 10.625 84.1978 9.56253C82.8228 10.6875 82.2603 12.0625 82.2603 13.875C82.2603 16.9375 83.6353 18.9375 86.0103 18.9375C87.0103 19 87.9478 18.625 88.7603 18ZM88.9478 4C88.9478 2.3125 88.5103 1.375 87.6978 1.375C86.5728 1.375 86.0103 2.75 86.0103 4.5C86.0103 5.625 86.1978 6.75 86.5728 7.93753C88.3853 6.625 88.9478 5.4375 88.9478 4Z" fill="#111111"/>
<path d="M97.4478 19.3125H98.1353C99.3853 19.3125 99.8853 19 99.8853 17.6875V3.3125C99.8853 2 99.3853 1.6875 98.1353 1.6875H97.4478V1.25H105.26C109.51 1.25 112.135 3 112.135 6.3125C112.135 9.87497 109.073 11.6875 104.823 11.6875H102.885V17.6875C102.885 19 103.323 19.3125 104.573 19.3125H105.698V19.75H97.3853V19.3125H97.4478ZM104.885 11.1875C108.135 11.1875 108.698 8.87503 108.698 6.4375C108.698 3.875 108.073 1.75 105.135 1.75H104.573C103.323 1.75 102.885 2.0625 102.885 3.375V11.25H104.885V11.1875Z" fill="#111111"/>
<path d="M111.948 14.0626C111.948 10.4376 114.698 7.875 117.51 7.875C120.01 7.875 122.51 9.8125 122.51 13.3125C122.51 13.4375 122.51 13.9376 122.448 14.0626H114.885C114.885 17.1876 116.01 19.125 118.198 19.125C120.073 19.125 121.323 18.1251 122.26 16.6876L122.635 16.8751C121.573 18.7501 119.948 20.1251 117.448 20.1251C114.323 20.1876 111.948 17.8126 111.948 14.0626ZM118.26 13.625C119.323 13.625 119.635 13.25 119.635 12.25C119.635 10.0625 119.01 8.3125 117.448 8.3125C115.823 8.3125 114.948 10.3126 114.885 13.5626H118.26V13.625Z" fill="#111111"/>
<path d="M123.885 14C123.885 10.4375 126.698 7.875 129.51 7.875C132.323 7.875 135.073 10.375 135.073 13.9375C135.073 17.5 132.26 20.1251 129.448 20.1251C126.698 20.1876 123.885 17.5625 123.885 14ZM132.073 14.0626C132.073 10.8126 131.385 8.3125 129.51 8.3125C127.573 8.3125 126.948 10.75 126.948 14C126.948 17.25 127.573 19.75 129.573 19.75C131.448 19.75 132.073 17.2501 132.073 14.0626Z" fill="#111111"/>
<path d="M135.635 24.875H135.885C137.073 24.875 137.323 24.4375 137.323 23.3125V10.3125C137.323 9.1875 137.073 8.75 135.885 8.75H135.76V8.3125L140.01 8.0625L139.885 11H139.948C140.823 9.1875 142.01 7.9375 143.823 7.9375C146.198 7.9375 148.448 10.5625 148.448 13.9375C148.448 17.5 146.198 20 143.698 20C141.76 20 140.635 18.625 140.01 17.375H139.948C139.948 17.375 140.073 19.0625 140.073 20.625V23.3125C140.073 24.5 140.323 24.8125 141.51 24.875H142.135V25.3125H135.698V24.875H135.635ZM145.323 14.0625C145.323 10.9375 144.635 8.8125 143.073 8.8125C141.635 8.8125 139.948 11 139.948 14.1875C139.948 16.8125 141.26 19.4375 143.01 19.4375C144.635 19.375 145.323 17.4375 145.323 14.0625Z" fill="#111111"/>
<path d="M149.135 19.3125H149.26C150.385 19.3125 150.76 19 150.76 17.6875V3.3125C150.76 2 150.448 1.625 149.135 1.625H148.948V1.1875L153.323 0.6875V17.625C153.323 18.9375 153.635 19.25 154.823 19.25H154.948V19.6875H149.073V19.3125H149.135Z" fill="#111111"/>
<path d="M155.76 14.0626C155.76 10.4376 158.51 7.875 161.323 7.875C163.823 7.875 166.323 9.8125 166.323 13.3125C166.323 13.4375 166.323 13.9376 166.26 14.0626H158.698C158.698 17.1876 159.823 19.125 162.01 19.125C163.885 19.125 165.135 18.1251 166.073 16.6876L166.448 16.8751C165.385 18.7501 163.76 20.1251 161.26 20.1251C158.073 20.1876 155.76 17.8126 155.76 14.0626ZM162.01 13.625C163.073 13.625 163.385 13.25 163.385 12.25C163.385 10.0625 162.76 8.3125 161.198 8.3125C159.573 8.3125 158.698 10.3126 158.635 13.5626H162.01V13.625Z" fill="#111111"/>
</g>
<defs>
<clipPath id="clip0_525_528">
<rect width="166.25" height="25" fill="white" transform="translate(0.697754 0.5)"/>
</clipPath>
</defs>
</svg>
