<svg width="64" height="72" viewBox="0 0 64 72" fill="none" xmlns="http://www.w3.org/2000/svg">
<mask id="mask0_549_273" style="mask-type:luminance" maskUnits="userSpaceOnUse" x="0" y="0" width="64" height="73">
<path d="M63.7492 0.000976562H0.750488V72.001H63.7492V0.000976562Z" fill="white"/>
</mask>
<g mask="url(#mask0_549_273)">
<path d="M32.0678 71.428C32.0678 71.428 43.7431 65.8567 53.3866 60.8917C63.0301 55.9267 62.9955 47.1054 62.9955 47.1054V32.7417C62.9321 32.7446 62.8674 32.7461 62.8011 32.7461H60.9363C59.5684 32.7461 58.4582 32.0016 58.4582 31.0858C58.4582 30.1685 59.5684 29.4255 60.9363 29.4255H62.8011C62.9019 29.4255 63.0027 29.4298 63.1006 29.437L63.0301 29.4255V16.8531C50.5297 12.7808 48.4576 2.42312 48.4576 2.42312L40.8502 0.958675L38.5462 5.17347L36.4928 0.601562H32.0678H31.9742H27.5492L25.4958 5.17347L23.1918 0.958675L15.5845 2.42312C15.5845 2.42312 13.5124 12.7808 1.01196 16.8531V29.4255L0.941406 29.437C1.03933 29.4298 1.13868 29.4255 1.24092 29.4255H3.10568C4.47509 29.4255 5.58387 30.1685 5.58387 31.0858C5.58387 32.003 4.47365 32.7461 3.10568 32.7461H1.23948C1.17468 32.7461 1.10988 32.7446 1.04508 32.7417V47.1054C1.04508 47.1054 1.01052 55.9267 10.654 60.8917C20.2975 65.8567 31.9728 71.428 31.9728 71.428H32.0678Z" fill="#FFF7F5"/>
<path d="M32.0689 70.2838C32.0689 70.2838 42.6728 65.1043 52.4229 60.0327C62.1729 54.9611 61.8158 47.4257 61.8158 47.4257V34.0326H59.604C58.4376 34.0326 57.4944 33.026 57.4944 31.7862V30.7782C57.4944 29.537 58.4391 28.5319 59.604 28.5319H61.8518V28.3173V17.637C50.4213 14.03 47.5846 3.49371 47.5846 3.49371L41.4589 2.35037L38.2795 7.42195L35.6011 1.74414H32.0689H31.9753H28.443L25.7647 7.42195L22.5852 2.35037L16.4582 3.49371C16.4582 3.49371 13.62 14.03 2.19092 17.637V28.3173V28.5319H4.43871C5.60509 28.5319 6.54827 29.537 6.54827 30.7782V31.7862C6.54827 33.026 5.60365 34.0326 4.43871 34.0326H2.22692V47.4257C2.22692 47.4257 1.8698 54.9611 11.6198 60.0327C21.3699 65.1043 31.9738 70.2838 31.9738 70.2838H32.0689Z" fill="#111111"/>
<path d="M25.4965 10.0295C25.4965 10.0295 21.5856 5.31505 21.5856 4.19043L17.9957 4.94065C17.9957 4.94065 16.6565 8.95961 13.228 12.44V13.0837C13.228 13.0837 20.9966 10.5119 25.4965 10.0295Z" fill="#FFF7F5"/>
<path d="M31.9863 9.49352C35.5387 9.49352 38.1839 10.0292 38.1839 10.0292C37.2206 9.6548 34.2197 3.49316 34.2197 3.49316H31.9863H31.9604H29.7284C29.7284 3.49316 26.7275 9.65336 25.7642 10.0292C25.7642 10.0292 28.4079 9.49352 31.9618 9.49352H31.9863Z" fill="#FFF7F5"/>
<path d="M38.4521 10.0295C38.4521 10.0295 42.3631 5.31505 42.3631 4.19043L45.953 4.94065C45.953 4.94065 47.2921 8.95961 50.7207 12.44V13.0837C50.7207 13.0837 42.9521 10.5119 38.4521 10.0295Z" fill="#FFF7F5"/>
<path d="M31.9865 68.159C31.9865 68.159 41.8272 63.0154 50.8818 58.6768C59.9363 54.3381 59.9363 46.1404 59.9363 46.1404V35.6934C55.0073 35.211 55.3817 30.8176 55.3817 30.8176C55.3817 26.8534 59.9363 26.263 59.9363 26.263V18.9235C57.9002 18.2813 52.8646 14.6914 52.8646 14.6914L52.8113 48.0685C52.8113 48.0685 53.4536 52.194 46.4351 55.9437C39.4167 59.6934 31.9879 63.8189 31.9879 63.8189H31.962C31.962 63.8189 24.5317 59.6934 17.5148 55.9437C10.4964 52.194 11.1386 48.0685 11.1386 48.0685L11.0839 14.6914C11.0839 14.6914 6.04833 18.2813 4.01221 18.9235V26.263C4.01221 26.263 8.56684 26.8534 8.56684 30.8176C8.56684 30.8176 8.94123 35.211 4.01221 35.6934V46.1404C4.01221 46.1404 4.01221 54.3367 13.0667 58.6768C22.1212 63.0168 31.962 68.159 31.962 68.159H31.9865Z" fill="#FFF7F5"/>
<path d="M21.6388 46.7821L25.0141 48.7102V42.7631L29.9431 39.2266V57.2824C29.9431 57.2824 22.0147 52.7277 18.7459 50.8529C15.4772 48.9781 15.853 46.6208 15.853 46.6208C15.853 46.6208 15.7465 23.0485 15.853 19.2441C15.961 15.4397 29.9431 14.6895 29.9431 14.6895V29.6364L24.9061 33.1196V20.0476L21.8246 20.7978C21.8246 20.7978 20.7806 21.1736 20.7806 23.4502V45.0945C20.7806 45.0945 20.6193 46.2003 21.6388 46.7821Z" fill="#FFF7F5"/>
<path d="M33.9609 57.2817V14.6902C33.9609 14.6902 40.4437 14.5822 46.0682 16.8862C46.0682 16.8862 48.0511 17.4492 48.0237 19.5645C47.9963 21.6799 48.0237 29.6098 48.0237 29.6098C48.0237 29.6098 48.2642 32.1557 44.6743 34.1644L47.3527 36.2279C47.3527 36.2279 48.0554 36.5764 48.0251 38.264C47.9949 39.9517 48.0251 47.5864 48.0251 47.5864C48.0251 47.5864 47.861 49.3273 46.3073 50.318L43.0385 52.1929V39.4419C43.0385 39.4419 42.4496 38.5851 41.6461 38.0235C40.8426 37.4605 39.021 36.1487 39.021 36.1487V33.8966C39.021 33.8966 42.4222 31.6459 42.7174 31.2182C43.0126 30.7906 43.0659 30.576 43.0659 29.4773C43.0659 28.3786 43.0659 22.0039 43.0659 22.0039C43.0659 22.0039 42.9579 21.0664 41.7526 20.7986L39.021 20.1031V53.3189C39.021 53.3189 38.8064 54.5242 38.0562 54.9259C37.3089 55.3262 33.9609 57.2817 33.9609 57.2817Z" fill="#FFF7F5"/>
</g>
</svg>
