<svg width="60" height="60" viewBox="0 0 60 60" fill="none" xmlns="http://www.w3.org/2000/svg">
<g clip-path="url(#clip0_525_587)">
<mask id="mask0_525_587" style="mask-type:luminance" maskUnits="userSpaceOnUse" x="0" y="0" width="61" height="60">
<path d="M60.0019 0H0.00195312V60H60.0019V0Z" fill="white"/>
</mask>
<g mask="url(#mask0_525_587)">
<mask id="mask1_525_587" style="mask-type:luminance" maskUnits="userSpaceOnUse" x="0" y="0" width="60" height="60">
<path d="M59.7512 0.0234375H0.218262V59.8905H59.7512V0.0234375Z" fill="white"/>
</mask>
<g mask="url(#mask1_525_587)">
<g opacity="0.9">
<path d="M29.9773 56.0179C23.1564 56.0179 16.7212 53.3725 11.8311 48.5505C6.88226 43.6693 4.11901 37.1546 4.05438 30.2048C3.98976 23.255 6.6277 16.6871 11.4845 11.7134C16.3412 6.73974 22.8235 3.96458 29.7385 3.89765C36.6513 3.8327 43.1884 6.48389 48.1373 11.3651C53.086 16.2462 55.8475 22.761 55.914 29.7108C55.9785 36.6606 53.3406 43.2266 48.4839 48.2003C43.6272 53.1737 37.1451 55.949 30.2298 56.0158C30.1457 56.0158 30.0615 56.0158 29.9773 56.0158V56.0179ZM29.7463 4.4881C22.988 4.55305 16.6526 7.26526 11.9055 12.1268C7.15841 16.9882 4.57922 23.4066 4.64385 30.1988C4.70847 36.9911 7.40713 43.3582 12.2443 48.1293C17.0227 52.8412 23.3131 55.4275 29.9791 55.4275C30.0615 55.4275 30.1436 55.4275 30.226 55.4275C36.9845 55.3645 43.3197 52.6502 48.0669 47.7887C52.814 42.9272 55.3931 36.509 55.3284 29.7186C55.2657 22.9263 52.5651 16.5592 47.7281 11.7882C42.8907 7.01726 36.5027 4.42314 29.7463 4.49007V4.4881Z" fill="#111111"/>
<path d="M59.3942 30.82L58.9811 30.8042C58.5775 30.7866 58.276 30.4361 58.2799 30.0308C58.2838 29.6391 58.5951 29.3183 58.985 29.3045L59.3981 29.2908C59.5999 29.2829 59.7584 29.1136 59.7506 28.9109C59.7429 28.7082 59.5784 28.5468 59.3727 28.5547L58.9596 28.5704C58.5599 28.5842 58.2271 28.2732 58.1978 27.8737C58.1683 27.4741 58.4563 27.1198 58.8518 27.0765L59.2629 27.0313C59.4629 27.0096 59.6077 26.8266 59.5841 26.6258C59.5626 26.425 59.3865 26.2794 59.1808 26.301L58.7694 26.3463C58.3718 26.3916 58.0154 26.1062 57.9587 25.7086C57.8981 25.313 58.1566 24.9371 58.5483 24.8643L58.9554 24.7855C59.1533 24.7481 59.2826 24.5553 59.2474 24.3564C59.21 24.1557 59.0163 24.0258 58.8205 24.0632L58.413 24.14C58.0214 24.2147 57.6453 23.9589 57.5554 23.5672C57.4653 23.1775 57.6942 22.7819 58.0781 22.6796L58.4778 22.5713C58.6736 22.5181 58.7892 22.3174 58.7363 22.1206C58.6853 21.9257 58.4835 21.8096 58.2877 21.8627L57.8844 21.973C57.4984 22.0773 57.105 21.8529 56.9856 21.4691C56.868 21.0873 57.0638 20.6779 57.4399 20.544L57.8354 20.4023C58.0253 20.3354 58.1253 20.1248 58.0566 19.9339C57.9883 19.741 57.7805 19.6426 57.5906 19.7115L57.199 19.8512C56.8229 19.985 56.4115 19.7902 56.2647 19.4182C56.1178 19.0462 56.2823 18.623 56.6447 18.4597L57.0247 18.2904C57.2086 18.2078 57.293 17.9893 57.2106 17.8043C57.1283 17.6193 56.913 17.5366 56.7271 17.6193L56.3411 17.7925C55.9769 17.9538 55.5518 17.7925 55.3757 17.4343C55.1993 17.076 55.3306 16.6391 55.6811 16.4482L56.0533 16.2455C56.2315 16.147 56.2981 15.9246 56.202 15.7455C56.1062 15.5664 55.8829 15.5015 55.7047 15.5979L55.3384 15.7967C54.988 15.9876 54.5512 15.8597 54.3474 15.5153C54.1438 15.1708 54.2417 14.726 54.5766 14.5075L54.9292 14.2792C55.0975 14.169 55.1486 13.9427 55.0387 13.7714C54.9291 13.6002 54.702 13.551 54.5336 13.6612L54.1751 13.8934C53.8402 14.1099 53.3957 14.0155 53.1686 13.6887C52.9393 13.3601 53.0041 12.9093 53.3214 12.6673L53.6602 12.4094C53.8208 12.2854 53.8539 12.0551 53.7306 11.8937C53.6092 11.7323 53.3802 11.7008 53.2175 11.8229L52.8787 12.0807C52.5614 12.3208 52.1109 12.2618 51.8584 11.9528C51.6059 11.6438 51.6351 11.1891 51.9327 10.9234L52.25 10.64C52.4029 10.5061 52.4166 10.2739 52.2814 10.1204C52.1483 9.96881 51.9172 9.95307 51.7665 10.0889L51.4492 10.3723C51.1515 10.638 50.6972 10.6124 50.4229 10.3231C50.1468 10.0338 50.1429 9.57713 50.419 9.28979L50.7127 8.98472C50.8536 8.83907 50.8498 8.60681 50.705 8.4651C50.5599 8.3234 50.3271 8.32734 50.188 8.47299L49.8903 8.782C49.6142 9.06934 49.1599 9.07919 48.8641 8.81152C48.5683 8.54382 48.5271 8.08916 48.7838 7.78215L49.056 7.45146C49.1853 7.29403 49.1638 7.06373 49.0089 6.93382C48.8542 6.80394 48.6232 6.82558 48.4939 6.98107L48.2256 7.30582C47.9709 7.61287 47.5187 7.65815 47.2035 7.41409C46.888 7.172 46.8136 6.71931 47.0447 6.39454L47.2877 6.05012C47.405 5.88478 47.3659 5.65451 47.2014 5.53836C47.0369 5.42027 46.8077 5.45964 46.6921 5.62696L46.4456 5.97531C46.2142 6.30203 45.768 6.38078 45.4348 6.1623C45.102 5.94382 44.9942 5.49901 45.1981 5.15654L45.4172 4.79045C45.5211 4.61528 45.4644 4.3909 45.2918 4.2866C45.1196 4.18227 44.8945 4.23737 44.7906 4.41257L44.5733 4.77669C44.3677 5.11913 43.9289 5.23134 43.5784 5.04042C43.2297 4.84752 43.0868 4.41257 43.265 4.0563L43.453 3.67645C43.5432 3.49537 43.4706 3.27295 43.2886 3.18439C43.1065 3.09188 42.8871 3.16669 42.7969 3.34973L42.6089 3.72761C42.4306 4.08582 42.002 4.23149 41.6396 4.06615C41.2772 3.90081 41.1011 3.47961 41.2518 3.10764L41.4086 2.71792C41.485 2.53094 41.3948 2.31444 41.2089 2.23964C41.0226 2.16289 40.8092 2.25342 40.7327 2.44237L40.5742 2.83405C40.4235 3.20406 40.0062 3.38513 39.6342 3.24737C39.2581 3.11155 39.0524 2.70414 39.1739 2.32231L39.3014 1.92079C39.3641 1.72791 39.2563 1.52125 39.0644 1.45827C38.8703 1.39528 38.6647 1.50353 38.6041 1.69642L38.4787 2.09203C38.3572 2.47386 37.956 2.68446 37.5721 2.57621C37.1883 2.46993 36.9512 2.07825 37.0432 1.68855L37.1393 1.28506C37.1862 1.08824 37.065 0.889451 36.8671 0.842215C36.673 0.794976 36.4733 0.917006 36.4283 1.1158L36.3303 1.52321C36.2402 1.91292 35.8545 2.15501 35.465 2.07825C35.073 1.99953 34.8068 1.6295 34.8694 1.23389L34.9342 0.818597C34.9656 0.617839 34.8283 0.430857 34.6286 0.399367C34.4268 0.367875 34.2429 0.505651 34.2115 0.706409L34.1489 1.10989C34.0862 1.5055 33.722 1.77712 33.3262 1.72988C32.9306 1.68264 32.6369 1.33427 32.6683 0.934719L32.6996 0.527301C32.7151 0.324573 32.5644 0.147435 32.3629 0.131689C32.1629 0.117912 31.9847 0.267496 31.9692 0.470221L31.9357 0.885516C31.9044 1.2831 31.5617 1.58226 31.1644 1.56652C30.7647 1.5488 30.4456 1.22601 30.4474 0.824501V0.391492C30.4474 0.188767 30.2868 0.0234375 30.0832 0.0234375H30.0793C29.8796 0.0234375 29.7171 0.186799 29.7171 0.389525V0.796946C29.7151 1.19846 29.392 1.52125 28.9925 1.53503C28.5949 1.5488 28.2541 1.24767 28.2248 0.850086L28.1954 0.442666C28.1817 0.239941 28.0094 0.0883885 27.8037 0.102166C27.602 0.115943 27.4512 0.293083 27.4649 0.495809L27.4943 0.913068C27.5237 1.31262 27.226 1.65902 26.8304 1.70429C26.4348 1.74759 26.0706 1.47401 26.0118 1.0784L25.9491 0.665074C25.9198 0.464316 25.7317 0.324573 25.534 0.356066C25.3342 0.385588 25.1971 0.574537 25.2265 0.775295L25.2872 1.18075C25.346 1.57833 25.0777 1.94638 24.684 2.02117C24.2943 2.09597 23.9105 1.85191 23.8223 1.4622L23.7303 1.06069C23.6852 0.861895 23.4875 0.737898 23.2916 0.785137C23.0938 0.830406 22.9724 1.02919 23.0175 1.22601L23.1115 1.6354C23.1996 2.02511 22.9606 2.41482 22.5749 2.51716C22.191 2.62345 21.7915 2.40891 21.672 2.02708L21.5467 1.62556C21.488 1.43268 21.2823 1.32246 21.0884 1.38347C20.8965 1.44449 20.7888 1.65115 20.8495 1.84404L20.9729 2.24161C21.0923 2.62345 20.8828 3.0289 20.5068 3.16472C20.1308 3.29854 19.7156 3.11746 19.5687 2.74548L19.414 2.35774C19.3396 2.17076 19.1261 2.07628 18.9381 2.15304C18.7521 2.22784 18.66 2.44237 18.7345 2.63132L18.8912 3.02298C19.038 3.39498 18.8598 3.81618 18.4975 3.97758C18.1352 4.13898 17.7044 3.98937 17.5301 3.63116L17.344 3.25131C17.2559 3.06827 17.0366 2.99543 16.8544 3.084C16.6723 3.17257 16.5979 3.39498 16.688 3.57606L16.874 3.95594C17.0503 4.31612 16.9054 4.7491 16.5568 4.93806C16.2062 5.12898 15.7675 5.01287 15.5639 4.66842L15.3504 4.3043C15.2466 4.12913 15.0234 4.07009 14.8491 4.17439C14.6748 4.27872 14.616 4.5031 14.7198 4.67827L14.9352 5.04239C15.1389 5.38681 15.0273 5.82967 14.6924 6.04618C14.3575 6.26269 13.911 6.18197 13.6819 5.85328L13.441 5.50687C13.3254 5.33958 13.0983 5.30021 12.9318 5.41633C12.7653 5.53248 12.7262 5.76275 12.8417 5.92809L13.0865 6.27842C13.3137 6.6071 13.2373 7.05585 12.92 7.29794C12.6028 7.54003 12.1504 7.49281 11.8998 7.18379L11.6275 6.85116C11.5002 6.6937 11.2692 6.67206 11.1125 6.8C10.9578 6.92794 10.9343 7.16018 11.0615 7.31764L11.3279 7.64436C11.5805 7.95337 11.5374 8.40803 11.2398 8.6757C10.9421 8.9414 10.4878 8.92961 10.2136 8.64027L9.92178 8.33519C9.78274 8.18758 9.54969 8.18364 9.40477 8.3234C9.2579 8.46313 9.25396 8.69734 9.393 8.84301L9.68874 9.152C9.96292 9.43937 9.95506 9.89797 9.67895 10.1853C9.4028 10.4727 8.94847 10.4943 8.65274 10.2267L8.33548 9.94125C8.18471 9.80546 7.9536 9.81725 7.81847 9.97078C7.68336 10.1204 7.69706 10.3526 7.8459 10.4884L8.16315 10.7738C8.45885 11.0415 8.48629 11.4961 8.23169 11.8052C7.97709 12.1142 7.52668 12.1713 7.21139 11.9252L6.87453 11.6654C6.71396 11.5414 6.48483 11.571 6.36145 11.7323C6.23808 11.8937 6.26745 12.126 6.42802 12.248L6.76292 12.5078C7.0782 12.7519 7.13892 13.2046 6.90978 13.5293C6.67674 13.8541 6.23414 13.9466 5.89927 13.7281L5.54677 13.4958C5.37638 13.3837 5.15118 13.4329 5.03954 13.6021C4.92987 13.7734 4.97688 13.9997 5.1453 14.1099L5.49975 14.3441C5.83268 14.5626 5.92865 15.0074 5.723 15.3519C5.51933 15.6963 5.08068 15.8203 4.73208 15.6274L4.35999 15.4208C4.18178 15.3224 3.96047 15.3873 3.86256 15.5664C3.76465 15.7455 3.82927 15.9699 4.00748 16.0664L4.37172 16.2691C4.72032 16.462 4.85154 16.8989 4.67136 17.2551C4.49315 17.6134 4.06623 17.7728 3.70393 17.6075L3.32596 17.4343C3.14187 17.3496 2.92451 17.4323 2.8403 17.6173C2.75804 17.8023 2.8403 18.0208 3.02241 18.1034L3.40823 18.2786C3.77053 18.4439 3.93306 18.871 3.78226 19.2411C3.63148 19.6111 3.21826 19.802 2.84421 19.6662L2.44862 19.5225C2.26062 19.4517 2.04911 19.5501 1.98057 19.743C1.91203 19.9339 2.00994 20.1445 2.19991 20.2134L2.58962 20.357C2.96563 20.4929 3.15754 20.9062 3.03808 21.2861C2.91667 21.6679 2.51912 21.8923 2.13528 21.784L1.73577 21.6718C1.53993 21.6167 1.33822 21.7309 1.28534 21.9277C1.23247 22.1225 1.34606 22.3253 1.53993 22.3804L1.9414 22.4926C2.32329 22.5988 2.55046 22.9944 2.45841 23.3842C2.36637 23.7739 1.9884 24.0278 1.59673 23.951L1.18938 23.8703C0.989628 23.831 0.797709 23.9608 0.758542 24.1596C0.719375 24.3604 0.848625 24.5513 1.04642 24.5907L1.45377 24.6714C1.84544 24.7481 2.10003 25.126 2.03932 25.5197C1.97861 25.9153 1.62023 26.1987 1.22463 26.1515L0.813375 26.1042C0.613623 26.0806 0.431491 26.2243 0.407993 26.427C0.384491 26.6278 0.527452 26.8108 0.729166 26.8344L1.14043 26.8836C1.53602 26.9309 1.81998 27.2871 1.78865 27.6847C1.75732 28.0843 1.42243 28.3933 1.02292 28.3775L0.611664 28.3598C0.415826 28.35 0.239572 28.5094 0.231739 28.7121C0.223906 28.9148 0.380575 29.0861 0.582288 29.0939L0.995506 29.1097C1.39893 29.1254 1.70052 29.4758 1.6966 29.8833C1.69269 30.275 1.37935 30.5938 0.989628 30.6075L0.578372 30.6212C0.376658 30.6272 0.218031 30.7985 0.225864 31.0012C0.233698 31.2 0.39624 31.3573 0.594037 31.3556H0.603829L1.01705 31.3415C1.41656 31.3278 1.74948 31.6388 1.77886 32.0385C1.80823 32.4379 1.52035 32.7923 1.12476 32.8356L0.713497 32.8809C0.511787 32.9024 0.366864 33.0854 0.390366 33.2863C0.411909 33.477 0.570536 33.615 0.756584 33.6129C0.770291 33.6129 0.780082 33.6129 0.793793 33.6129L1.20505 33.5678C1.6026 33.5224 1.95707 33.8078 2.01778 34.2033C2.07849 34.5991 1.81998 34.9729 1.42831 35.0478L1.019 35.1245C0.821211 35.1618 0.691957 35.355 0.729166 35.5538C0.762458 35.7308 0.917169 35.8547 1.09146 35.8529C1.11301 35.8529 1.13455 35.8529 1.15609 35.8469L1.56343 35.7702C1.95511 35.6953 2.33308 35.9511 2.4212 36.3409C2.51129 36.7305 2.28216 37.1242 1.89832 37.2305L1.49881 37.3388C1.30493 37.392 1.18743 37.5926 1.2403 37.7896C1.28534 37.955 1.43418 38.063 1.59673 38.0612C1.62806 38.0612 1.6594 38.0573 1.68877 38.0475L2.0922 37.9391C2.47604 37.8347 2.87163 38.0591 2.99106 38.4409C3.10859 38.8227 2.91276 39.2341 2.53871 39.3681L2.14312 39.5078C1.95315 39.5767 1.85327 39.7872 1.92182 39.9761C1.97469 40.1278 2.11766 40.2221 2.27041 40.2221C2.30957 40.2221 2.3507 40.2144 2.38987 40.2006L2.77959 40.0609C3.15557 39.9269 3.56686 40.1218 3.71372 40.4938C3.86059 40.8639 3.69611 41.289 3.33378 41.4523L2.95388 41.6215C2.76784 41.7042 2.68558 41.9227 2.76784 42.1078C2.8305 42.2475 2.96367 42.3281 3.10662 42.3263C3.15557 42.3263 3.20456 42.3164 3.25154 42.2947L3.63733 42.1215C4.0016 41.9582 4.42656 42.1215 4.60283 42.4797C4.77906 42.8379 4.64787 43.2729 4.2973 43.4657L3.92521 43.6687C3.747 43.7651 3.68044 43.9893 3.77638 44.1666C3.84297 44.2905 3.97223 44.3615 4.10148 44.3594C4.15826 44.3594 4.21703 44.3457 4.27187 44.3161L4.63808 44.1152C4.98862 43.9245 5.42533 44.0544 5.62706 44.3967C5.83074 44.7412 5.7328 45.186 5.39793 45.4024L5.04542 45.6308C4.87503 45.7412 4.82608 45.9675 4.93575 46.1385C5.00626 46.2508 5.12572 46.3099 5.24712 46.3081C5.31372 46.3081 5.38226 46.2884 5.441 46.249L5.79939 46.0167C6.13429 45.8 6.57883 45.8947 6.80796 46.2212C7.03512 46.5481 6.97247 47.0006 6.65521 47.2427L6.31641 47.5006C6.15581 47.6248 6.12253 47.855 6.2459 48.0164C6.31835 48.1129 6.42802 48.1621 6.53966 48.1621C6.61605 48.1621 6.69241 48.1364 6.75703 48.0872L7.09584 47.8293C7.41309 47.5872 7.86351 47.6484 8.11614 47.9573C8.3688 48.2663 8.33939 48.723 8.04172 48.9866L7.72447 49.2681C7.57369 49.4021 7.55802 49.6361 7.69315 49.7878C7.7656 49.8705 7.86745 49.9117 7.96927 49.9117C8.05545 49.9117 8.13966 49.8803 8.2082 49.8191L8.52742 49.5358C8.82509 49.2702 9.27748 49.2956 9.55163 49.5851C9.82778 49.8744 9.83169 50.3311 9.55557 50.6182L9.26181 50.9233C9.1208 51.069 9.12277 51.3012 9.26963 51.443C9.34211 51.5138 9.43414 51.5472 9.52814 51.5472C9.62214 51.5472 9.71614 51.5081 9.78665 51.4353L10.0843 51.126C10.3605 50.8388 10.8168 50.829 11.1125 51.0967C11.4082 51.3642 11.4493 51.8188 11.1928 52.126L10.9186 52.4567C10.7893 52.6123 10.8109 52.8445 10.9656 52.9744C11.0361 53.0314 11.1183 53.0588 11.2026 53.0588C11.3063 53.0588 11.4101 53.0138 11.4806 52.9272L11.7489 52.6042C12.0035 52.2952 12.4559 52.252 12.7712 52.4961C13.0885 52.7382 13.1609 53.1887 12.9298 53.5155L12.687 53.8579C12.5695 54.0233 12.6087 54.2538 12.7732 54.3717C12.8378 54.4188 12.9142 54.4406 12.9886 54.4385C13.1022 54.4385 13.2138 54.3836 13.2843 54.283L13.5311 53.9347C13.7621 53.6081 14.2087 53.5293 14.5416 53.7499C14.8745 53.9702 14.9822 54.4132 14.7786 54.7556L14.5592 55.1215C14.4554 55.2967 14.5122 55.5212 14.6846 55.6275C14.7453 55.663 14.8099 55.6806 14.8765 55.6806C14.9998 55.6806 15.1193 55.6155 15.1878 55.5015L15.4052 55.1394C15.6089 54.795 16.0495 54.6827 16.4001 54.8755C16.7487 55.0684 16.8897 55.5015 16.7115 55.8597L16.5235 56.2394C16.4334 56.4206 16.5058 56.6409 16.686 56.7317C16.7409 56.7591 16.7976 56.7711 16.8544 56.7711C16.9876 56.7711 17.1149 56.6944 17.1795 56.5684L17.3675 56.1905C17.5457 55.8323 17.9746 55.6845 18.3369 55.8517C18.6992 56.0191 18.8755 56.4403 18.7247 56.8105L18.566 57.2C18.4897 57.3869 18.5798 57.6015 18.7677 57.6782C18.8128 57.6979 18.8618 57.706 18.9088 57.706C19.0517 57.706 19.1869 57.6191 19.2437 57.4756L19.4023 57.0839C19.5531 56.7138 19.9702 56.5347 20.3443 56.6705C20.7183 56.8084 20.9239 57.2158 20.8025 57.5955L20.6752 57.997C20.6145 58.1902 20.7203 58.3985 20.9122 58.4597C20.9494 58.4735 20.9905 58.4794 21.0277 58.4773C21.1805 58.4773 21.3215 58.377 21.3724 58.2215L21.4978 57.826C21.6192 57.4442 22.0206 57.2335 22.4045 57.3418C22.7883 57.4499 23.0253 57.8397 22.9332 58.2293L22.8373 58.6329C22.7903 58.8317 22.9117 59.0284 23.1095 59.0758C23.1389 59.0815 23.1682 59.0857 23.1976 59.0857C23.3621 59.0857 23.5109 58.9696 23.5501 58.8042L23.6461 58.3947C23.7381 58.0051 24.122 57.763 24.5117 57.8397C24.9034 57.9164 25.1697 58.2884 25.107 58.6842L25.0424 59.0994C25.0111 59.3 25.1482 59.4872 25.3479 59.5185C25.3675 59.5206 25.3871 59.5224 25.4086 59.5224C25.5829 59.5206 25.7376 59.3926 25.765 59.2117L25.8277 58.806C25.8904 58.4126 26.2546 58.1409 26.6502 58.186C27.0458 58.2335 27.3415 58.5818 27.3102 58.9812L27.2769 59.3887C27.2612 59.5914 27.412 59.7687 27.6118 59.7842C27.6235 59.7842 27.6333 59.7842 27.6451 59.7842C27.8331 59.7842 27.9917 59.6367 28.0074 59.4457L28.0387 59.0284C28.07 58.6311 28.4128 58.3317 28.8103 58.3475C29.2098 58.3633 29.5291 58.6881 29.5271 59.0896V59.5069C29.5271 59.7096 29.6877 59.875 29.8912 59.875H29.8951C30.0948 59.875 30.2575 59.7114 30.2575 59.5087V59.1012C30.2596 58.6997 30.5826 58.3791 30.9802 58.3633C31.3778 58.3496 31.7205 58.6505 31.748 59.0481L31.7772 59.4555C31.7909 59.6505 31.9533 59.7979 32.1453 59.7961C32.1533 59.7961 32.1611 59.7961 32.1689 59.7961C32.3706 59.7803 32.5235 59.6051 32.5077 59.4024L32.4763 58.9851C32.4471 58.5857 32.7447 58.2412 33.1423 58.1941C33.5357 58.1508 33.9002 58.4242 33.9587 58.82L34.0214 59.2332C34.0489 59.4161 34.2056 59.5463 34.3859 59.5463C34.4014 59.5463 34.419 59.5463 34.4366 59.5403C34.6363 59.5108 34.7736 59.3236 34.7441 59.1209L34.6835 58.7156C34.6247 58.32 34.893 57.9499 35.2847 57.8753C35.6742 57.8003 36.0581 58.0445 36.1465 58.4341L36.2384 58.8355C36.2775 59.0069 36.4303 59.123 36.5987 59.1209C36.6262 59.1209 36.6515 59.117 36.6772 59.1132C36.8748 59.0678 36.9963 58.869 36.9512 58.6723L36.8572 58.263C36.7692 57.8732 37.008 57.4854 37.3939 57.3791C37.7778 57.275 38.1772 57.4893 38.2966 57.8711L38.422 58.2729C38.4709 58.4302 38.6178 58.5326 38.7745 58.5305C38.8097 58.5305 38.845 58.5245 38.8802 58.5147C39.0742 58.4538 39.1817 58.2472 39.1211 58.0544L38.9957 57.6567C38.8763 57.275 39.088 56.8693 39.462 56.7335C39.836 56.5997 40.253 56.7827 40.3999 57.1529L40.5545 57.5406C40.6115 57.6842 40.7524 57.7729 40.8975 57.7708C40.9423 57.7708 40.9874 57.7609 41.0306 57.7451C41.2166 57.6705 41.3086 57.4558 41.2342 57.269L41.0775 56.8773C40.9306 56.5054 41.1071 56.0842 41.4712 55.9227C41.8354 55.7594 42.2644 55.909 42.4387 56.269L42.6247 56.649C42.6892 56.7809 42.8226 56.8555 42.9557 56.8538C43.0086 56.8538 43.0635 56.8418 43.1142 56.8161C43.2963 56.7278 43.3709 56.5054 43.2808 56.3242L43.0945 55.9442C42.9184 55.5842 43.0635 55.1532 43.4139 54.9603C43.7644 54.7693 44.2032 54.8854 44.4068 55.2299L44.6223 55.5958C44.6906 55.7141 44.8142 55.7791 44.9414 55.777C45.002 55.777 45.0647 55.7594 45.1217 55.726C45.296 55.6215 45.3527 55.397 45.2509 55.2221L45.0354 54.8579C44.8318 54.5135 44.9453 54.0705 45.2781 53.8541C45.613 53.6376 46.0596 53.7203 46.2889 54.049L46.5298 54.3953C46.602 54.4976 46.7157 54.5529 46.8333 54.5529C46.9038 54.5529 46.9763 54.5311 47.0387 54.486C47.2053 54.3678 47.2444 54.1394 47.1289 53.9741L46.8841 53.6239C46.6569 53.295 46.7333 52.8463 47.0506 52.6042C47.368 52.3621 47.8184 52.4093 48.0727 52.7185L48.3432 53.0511C48.4157 53.1397 48.5232 53.1869 48.6292 53.1848C48.7094 53.1848 48.7915 53.1573 48.8581 53.1021C49.0127 52.9723 49.0363 52.7421 48.9092 52.5845L48.6429 52.2579C48.39 51.949 48.4333 51.4941 48.7309 51.2284C49.0286 50.9627 49.4829 50.9747 49.7572 51.2639L50.0489 51.569C50.1214 51.6457 50.2193 51.683 50.3172 51.683C50.4074 51.683 50.4972 51.6496 50.5659 51.5809C50.7127 51.4409 50.7166 51.2069 50.5775 51.0591L50.2838 50.7502C50.0077 50.4609 50.0154 50.0042 50.2936 49.7167C50.5697 49.4296 51.0241 49.4078 51.3199 49.6755L51.6372 49.9609C51.7077 50.026 51.7978 50.0573 51.8859 50.0556C51.9856 50.0556 52.0835 50.0123 52.1542 49.9335C52.2892 49.7818 52.2775 49.5496 52.1268 49.4138L51.8115 49.1305C51.5157 48.8627 51.4883 48.4081 51.7408 48.0991C51.9954 47.7899 52.4459 47.7329 52.7611 47.977L53.0981 48.2367C53.1647 48.2899 53.245 48.3135 53.3253 48.3117C53.433 48.3117 53.5408 48.2624 53.6112 48.1678C53.7345 48.0084 53.7053 47.7761 53.5447 47.6523L53.2077 47.3926C52.8924 47.1484 52.8318 46.6956 53.0608 46.3711C53.2918 46.0463 53.7384 45.9538 54.0695 46.1723L54.422 46.4045C54.4847 46.4457 54.5551 46.4654 54.6256 46.4633C54.7432 46.4633 54.8587 46.4024 54.9292 46.2961C55.0387 46.1269 54.9918 45.8985 54.8235 45.7884L54.4689 45.5541C54.136 45.3356 54.0399 44.889 54.2438 44.5463C54.4495 44.2039 54.8862 44.0779 55.2345 44.2708L55.6068 44.4756C55.6635 44.5069 55.7244 44.5227 55.785 44.5209C55.9121 44.5209 56.0375 44.452 56.1023 44.3299C56.2002 44.1508 56.1336 43.9284 55.9572 43.8299L55.593 43.6293C55.2444 43.4364 55.1133 42.9994 55.2933 42.6412C55.4715 42.283 55.8966 42.1236 56.2608 42.289L56.6387 42.4621C56.6897 42.4857 56.7426 42.4956 56.7936 42.4956C56.9306 42.4956 57.0617 42.415 57.1244 42.2809C57.2086 42.0941 57.1244 41.8776 56.9423 41.795L56.5584 41.6197C56.1942 41.4544 56.0336 41.0293 56.1844 40.6591C56.3351 40.2893 56.7465 40.0982 57.1226 40.2341L57.5181 40.3776C57.5611 40.3935 57.6044 40.3994 57.6453 40.3994C57.7942 40.3994 57.9312 40.3048 57.9862 40.1573C58.0566 39.9663 57.9569 39.7558 57.7668 39.6848L57.3772 39.5433C57.0032 39.4075 56.8092 38.9941 56.9306 38.6141C57.0521 38.2323 57.4477 38.0099 57.8333 38.1182L58.233 38.2305C58.2662 38.2403 58.3014 38.2442 58.3348 38.2442C58.4933 38.2442 58.6384 38.1358 58.6835 37.9747C58.7381 37.7797 58.6226 37.577 58.4289 37.5218L58.0253 37.4096C57.6414 37.3033 57.4163 36.9078 57.5083 36.5179C57.6005 36.1284 57.9784 35.8744 58.37 35.9511L58.7793 36.032C58.8047 36.0379 58.8283 36.0397 58.8536 36.0397C59.0241 36.0397 59.1748 35.9176 59.2083 35.7427C59.2474 35.5439 59.1181 35.3508 58.9202 35.3117L58.5148 35.2308C58.1232 35.1541 57.8686 34.7761 57.9295 34.3806C57.9921 33.9851 58.3503 33.7015 58.7441 33.7508L59.1554 33.7979C59.1709 33.8 59.1868 33.8018 59.2023 33.8018C59.3844 33.7979 59.5393 33.6621 59.5608 33.477C59.5841 33.2764 59.4411 33.0935 59.2414 33.0678L58.8303 33.0185C58.4366 32.9732 58.1527 32.617 58.1841 32.2176C58.2154 31.8179 58.55 31.509 58.9497 31.5248L59.3629 31.5403C59.3629 31.5403 59.3766 31.5403 59.3826 31.5403C59.5763 31.5403 59.7351 31.3848 59.7429 31.1881C59.7527 30.9854 59.5939 30.8141 59.3921 30.8063L59.3942 30.82ZM30.2459 57.6585C15.0488 57.8042 2.56612 45.4932 2.4212 30.2179C2.27628 14.9445 14.5259 2.39907 29.7249 2.25539C44.9238 2.10974 57.4065 14.4209 57.5495 29.6962C57.6942 44.9717 45.4447 57.517 30.2459 57.6585Z" fill="#111111"/>
<path d="M13.6089 14.2017L13.9477 13.877L15.3127 15.3157L16.568 14.1131L16.8539 14.4143L15.2598 15.9396L13.6089 14.1997V14.2017Z" fill="#111111"/>
<path d="M17.187 11.1859L17.6296 10.8887L19.9229 12.2409L19.5116 12.5164L18.9985 12.1975L17.8509 12.9672L17.9449 13.5674L17.5317 13.845L17.1831 11.1879L17.187 11.1859ZM18.6245 11.9633L17.6159 11.3512L17.7922 12.5223L18.6245 11.9633Z" fill="#111111"/>
<path d="M22.0562 8.61563L23.1548 8.26921C23.8775 8.04092 24.5511 8.16489 24.8096 8.99154C25.0545 9.77489 24.6451 10.3201 23.8912 10.5583L22.7729 10.9106L22.0562 8.61563ZM23.5504 10.2414C24.3102 10.0012 24.5335 9.67453 24.3651 9.13916C24.1888 8.57823 23.8226 8.48178 23.0745 8.71796L22.6221 8.85969L23.098 10.385L23.5504 10.2433V10.2414Z" fill="#111111"/>
<path d="M26.0298 7.56115L26.49 7.48438L26.8797 9.85608L26.4195 9.93282L26.0298 7.56115Z" fill="#111111"/>
<path d="M27.9956 7.26032L28.495 7.2485L29.4409 9.1439L30.3082 7.20324L30.8076 7.18945L29.6974 9.62414L29.2098 9.63593L27.9956 7.26032Z" fill="#111111"/>
<path d="M32.3271 7.33398L32.7913 7.38715L32.523 9.77655L32.0591 9.72342L32.3271 7.33398Z" fill="#111111"/>
<path d="M34.5286 7.63477L35.0062 7.76074L36.1148 9.84703L36.5533 8.16817L36.9862 8.28232L36.379 10.6087L35.9659 10.5005L34.8086 8.33545L34.3542 10.0754L33.9214 9.96121L34.5286 7.63477Z" fill="#111111"/>
<path d="M39.495 9.30273L39.9768 9.533L39.9982 12.2058L39.5517 11.9933L39.5615 11.3871L38.3162 10.7927L37.852 11.1824L37.4033 10.9678L39.495 9.3047V9.30273ZM39.5675 10.9423L39.5735 9.75936L38.6645 10.5112L39.5675 10.9423Z" fill="#111111"/>
<path d="M42.4098 11.4096L41.5286 10.8014L41.7558 10.4688L43.9062 11.9508L43.6788 12.2834L42.7976 11.6753L41.6716 13.3246L41.2856 13.0589L42.4119 11.4096H42.4098Z" fill="#111111"/>
<path d="M45.4212 13.291L45.8089 13.6591L45.008 16.2079L44.6498 15.8674L44.8456 15.2927L43.8448 14.3401L43.2827 14.5664L42.9224 14.222L45.4233 13.291H45.4212ZM44.9865 14.8735L45.3567 13.7496L44.26 14.1826L44.9865 14.8735Z" fill="#111111"/>
<path d="M9.8903 26.8398L9.75517 28.1722C9.71403 28.5777 9.6455 29.241 8.91699 29.1662C8.19042 29.0914 8.25702 28.4261 8.29812 28.0227L8.38627 27.1566L7.46191 27.0622L7.5089 26.5957L9.8903 26.8398ZM8.68588 28.1663C8.65848 28.432 8.65848 28.6682 8.96594 28.6997C9.27144 28.7312 9.31648 28.499 9.34391 28.2333L9.44182 27.2649L8.78382 27.198L8.68588 28.1663Z" fill="#111111"/>
<path d="M9.69849 31.0567L9.7318 31.592L7.417 32.9069L7.38565 32.4129L7.91834 32.1275L7.83216 30.7439L7.26816 30.5233L7.23682 30.0254L9.69849 31.0567ZM8.30804 31.9167L9.3401 31.3481L8.24538 30.9132L8.30804 31.9167Z" fill="#111111"/>
<path d="M9.73357 35.8271C9.92354 35.7032 10.0567 35.4689 9.92157 34.9119C9.84715 34.6029 9.6944 34.3095 9.47897 34.3626C9.37909 34.3865 9.289 34.471 9.34383 34.9513L9.39476 35.5241C9.44177 36.0671 9.31643 36.4253 8.9267 36.522C8.3764 36.6575 8.04348 36.1814 7.8927 35.5575C7.64789 34.5557 8.0807 34.1895 8.24324 34.0913L8.48804 34.4984C8.33921 34.6244 8.13554 34.8587 8.28437 35.4748C8.37446 35.8468 8.57225 36.1262 8.77395 36.0769C8.92476 36.0396 8.98154 35.8429 8.94043 35.4984L8.88166 34.9196C8.82291 34.3626 8.98351 34.0026 9.33798 33.914C10.0351 33.7426 10.2565 34.6522 10.2995 34.8313C10.5443 35.8369 10.1233 36.1244 9.97837 36.2226L9.73357 35.8271Z" fill="#111111"/>
<path d="M10.9243 38.1865L10.4935 37.2023L10.8617 37.0391L11.9133 39.4361L11.5451 39.5997L11.1143 38.6155L9.29103 39.4223L9.10303 38.9934L10.9263 38.1865H10.9243Z" fill="#111111"/>
<path d="M12.4771 40.4258L13.6599 42.2246L13.325 42.4473L12.4007 41.0398L11.9365 41.3488L12.7336 42.5613L12.3987 42.7837L11.6017 41.5712L11.0748 41.9216L12.0207 43.3625L11.6859 43.5849L10.4814 41.7523L12.4771 40.4279V40.4258Z" fill="#111111"/>
<path d="M14.4202 43.1777L14.7375 43.5222L13.2883 44.8742L14.4672 46.1518L14.1637 46.435L12.6655 44.8133L14.4183 43.1777H14.4202Z" fill="#111111"/>
<path d="M16.7779 45.5625L18.4758 46.8831L18.231 47.2022L16.9032 46.1688L16.5624 46.6118L17.7042 47.5013L17.4594 47.8201L16.3176 46.9324L15.9318 47.4344L17.2909 48.4912L17.0462 48.8103L15.3188 47.4658L16.7837 45.5646L16.7779 45.5625Z" fill="#111111"/>
<path d="M19.4844 47.541L20.7554 48.2159C21.2568 48.4819 21.5564 48.787 21.2842 49.3085C21.0786 49.7001 20.6849 49.7691 20.3637 49.6213L20.5576 50.8318L20.0484 50.5622L19.8741 49.3989L19.22 49.0527L18.7814 49.8891L18.3682 49.6706L19.4844 47.5449V47.541ZM20.1992 49.1273C20.5361 49.3064 20.7339 49.3479 20.867 49.0959C20.9983 48.8479 20.8514 48.7061 20.5145 48.527L19.7175 48.104L19.4022 48.7043L20.1992 49.1273Z" fill="#111111"/>
<path d="M22.8918 49.1603L23.3305 49.3197L22.5197 51.5812L22.0811 51.4218L22.8918 49.1603ZM23.3951 48.6543L23.8279 48.8119L23.1738 49.0776L22.9016 48.9791L23.3951 48.6543Z" fill="#111111"/>
<path d="M25.583 49.959L26.104 50.067L26.7541 52.6593L26.2704 52.559L26.1372 51.9664L24.7879 51.685L24.4276 52.173L23.9419 52.0706L25.5811 49.959H25.583ZM26.0413 51.5333L25.7691 50.382L25.0621 51.3288L26.0413 51.5333Z" fill="#111111"/>
<path d="M30.3734 50.4721L30.865 50.433L32.5981 52.035L32.459 50.3028L32.9056 50.2676L33.0976 52.6649L32.6707 52.6983L30.8668 51.0389L31.0098 52.8321L30.5632 52.8676L30.3716 50.4703L30.3734 50.4721Z" fill="#111111"/>
<path d="M35.4254 49.6361C36.44 49.3528 36.9648 49.8507 37.1391 50.4865C37.2722 50.9665 37.188 51.7638 36.0973 52.0689C35.0063 52.374 34.5266 51.7361 34.3934 51.254C34.217 50.6203 34.411 49.9214 35.4254 49.6382V49.6361ZM36.6827 50.5868C36.528 50.0298 36.06 49.8782 35.5331 50.0259C35.0063 50.1734 34.6833 50.5453 34.8379 51.1023C35.02 51.7579 35.5606 51.7991 35.9913 51.6791C36.4224 51.5591 36.8648 51.2423 36.6827 50.5868Z" fill="#111111"/>
<path d="M37.9074 48.8663L39.1957 48.2266C39.7032 47.9747 40.1262 47.9099 40.3847 48.4374C40.5805 48.835 40.4041 49.195 40.0966 49.3681L41.1856 49.9195L40.6686 50.1753L39.6306 49.6359L38.9668 49.9645L39.382 50.8129L38.9629 51.0215L37.9053 48.8663H37.9074ZM39.6053 49.2147C39.948 49.0454 40.0966 48.9078 39.9712 48.6538C39.848 48.4018 39.6483 48.4374 39.3074 48.6066L38.4987 49.0081L38.7963 49.6162L39.6053 49.2147Z" fill="#111111"/>
<path d="M41.1654 47.0958L42.8946 45.8203L43.1316 46.1451L41.7785 47.143L42.1075 47.5937L43.2728 46.7355L43.5095 47.0603L42.3445 47.9185L42.7185 48.4302L44.103 47.4087L44.34 47.7334L42.5776 49.0325L41.1636 47.0937L41.1654 47.0958Z" fill="#111111"/>
<path d="M45.6226 44.1904C45.4169 44.0957 45.1488 44.1056 44.753 44.5169C44.5336 44.7453 44.3674 45.0307 44.5259 45.1844C44.5984 45.2551 44.7178 45.2886 45.0939 44.9874L45.55 44.639C45.9829 44.3104 46.3512 44.2277 46.639 44.5092C47.0444 44.9047 46.8211 45.442 46.3766 45.9026C45.6617 46.6426 45.1232 46.4695 44.9548 46.3829L45.1665 45.9599C45.3503 46.0208 45.656 46.0701 46.0966 45.6133C46.3629 45.3378 46.4921 45.0229 46.3432 44.8772C46.2315 44.7689 46.0357 44.8262 45.7656 45.0426L45.3091 45.4008C44.8706 45.7471 44.4829 45.8002 44.2205 45.5465C43.7053 45.0447 44.3536 44.3733 44.4829 44.2396C45.1996 43.4975 45.6656 43.7023 45.8262 43.7751L45.6226 44.1942V44.1904Z" fill="#111111"/>
<path d="M46.982 41.9255L46.3808 42.8132L46.0498 42.587L47.5167 40.4219L47.8477 40.6481L47.2465 41.5359L48.8916 42.6616L48.6292 43.0493L46.9841 41.9237L46.982 41.9255Z" fill="#111111"/>
<path d="M48.0552 39.4115L48.9483 37.4512L49.3125 37.6183L48.6155 39.1518L49.1205 39.384L49.7217 38.0631L50.0862 38.2306L49.485 39.5512L50.0588 39.8151L50.7734 38.2464L51.1379 38.4136L50.2292 40.4094L48.0552 39.4094V39.4115Z" fill="#111111"/>
<path d="M49.354 36.3255L49.4755 35.8452L51.5453 34.7174L49.871 34.2884L49.9806 33.8535L52.2994 34.4478L52.1937 34.8652L50.0471 36.0422L51.7824 36.4869L51.6728 36.9219L49.354 36.3275V36.3255Z" fill="#111111"/>
<path d="M51.026 30.6949C50.8066 30.7558 50.6108 30.9387 50.5717 31.5095C50.5502 31.8265 50.6069 32.1513 50.8281 32.1671C50.9299 32.1749 51.0415 32.1217 51.1338 31.6474L51.257 31.0844C51.3747 30.551 51.6036 30.2501 52.0033 30.2755C52.5672 30.3131 52.7415 30.8701 52.6985 31.5095C52.6299 32.539 52.1069 32.7555 51.923 32.8008L51.8114 32.3381C51.9914 32.2635 52.2559 32.102 52.2988 31.4683C52.3242 31.0844 52.2206 30.7596 52.015 30.7459C51.8603 30.7361 51.7466 30.9074 51.6821 31.248L51.5645 31.8167C51.4508 32.3659 51.1905 32.6611 50.8263 32.6355C50.1093 32.5862 50.172 31.6534 50.1857 31.4683C50.2544 30.4349 50.7439 30.2892 50.9123 30.2402L51.0278 30.6928L51.026 30.6949Z" fill="#111111"/>
<path d="M50.2961 28.9717L50.0845 26.8263L50.4842 26.787L50.6504 28.4659L51.2048 28.4108L51.0618 26.9661L51.4612 26.9267L51.6042 28.3714L52.2328 28.3084L52.0624 26.5902L52.4621 26.5508L52.6773 28.7355L50.2961 28.9737V28.9717Z" fill="#111111"/>
<path d="M10.5034 20.4254C10.5034 20.3093 10.5974 20.2148 10.713 20.2148C10.8285 20.2148 10.9225 20.3093 10.9225 20.4254C10.9225 20.5416 10.8285 20.6361 10.713 20.6361C10.5974 20.6361 10.5034 20.5416 10.5034 20.4254Z" fill="#111111"/>
<path d="M10.713 21.0288C10.3821 21.0288 10.1118 20.7572 10.1118 20.4246C10.1118 20.0919 10.3821 19.8223 10.713 19.8203C11.0459 19.8203 11.3162 20.0919 11.3162 20.4246C11.3162 20.7572 11.0459 21.0288 10.715 21.0288H10.713ZM10.713 20.2415C10.6132 20.2415 10.5309 20.3242 10.5309 20.4246C10.5309 20.5249 10.6132 20.6076 10.713 20.6076C10.8129 20.6076 10.8952 20.5249 10.8952 20.4246C10.8952 20.3242 10.8129 20.2415 10.713 20.2415Z" fill="#111111"/>
<path d="M49.4591 20.4254C49.4591 20.3093 49.3651 20.2148 49.2496 20.2148C49.1341 20.2148 49.04 20.3093 49.04 20.4254C49.04 20.5416 49.1341 20.6361 49.2496 20.6361C49.3651 20.6361 49.4591 20.5416 49.4591 20.4254Z" fill="#111111"/>
<path d="M49.2491 21.0288C48.9184 21.0288 48.6479 20.7572 48.6479 20.4246C48.6479 20.0919 48.9184 19.8203 49.2491 19.8203C49.5823 19.8203 49.8503 20.0919 49.8503 20.4246C49.8503 20.7572 49.5802 21.0288 49.2491 21.0288ZM49.2491 20.2415C49.1494 20.2415 49.0671 20.3242 49.0671 20.4246C49.0671 20.5249 49.1494 20.6076 49.2474 20.6076C49.3491 20.6076 49.4294 20.5249 49.4294 20.4246C49.4294 20.3242 49.3471 20.2415 49.2474 20.2415H49.2491Z" fill="#111111"/>
<path d="M42.1061 29.5443C42.1061 32.0815 41.5305 34.2758 40.3789 36.1221C39.1822 38.0588 37.4434 39.4719 35.1619 40.3636C33.6108 40.9639 31.2959 41.2651 28.2174 41.2651H20.1097C19.7768 41.2651 19.6123 41.1764 19.6123 40.9973C19.6123 40.7749 19.9217 40.6746 20.5425 40.6961C21.4943 40.7179 22.0701 40.5507 22.2698 40.1964C22.3579 40.0409 22.403 39.3618 22.403 38.1591V21.1617C22.403 20.1815 22.3364 19.5812 22.2032 19.3588C21.9819 18.9573 21.416 18.7684 20.5092 18.792C20.0216 18.8136 19.7788 18.7034 19.7788 18.4574C19.7788 18.2566 19.9335 18.1562 20.2448 18.1562H20.8422C22.1719 18.1562 23.4566 18.1681 24.6962 18.1897C26.4686 18.2114 27.8414 18.2232 28.8167 18.2232C32.847 18.2232 35.9374 19.0577 38.0876 20.7267C40.7667 22.819 42.1082 25.7575 42.1082 29.5424L42.1061 29.5443ZM36.3583 29.5601C36.3583 25.8815 35.8159 23.189 34.7308 21.4825C33.6461 19.7761 31.9404 18.9239 29.6137 18.9239C28.7716 18.9239 28.2174 19.0124 27.953 19.1915C27.5985 19.414 27.4223 19.9394 27.4223 20.7622V37.8857C27.4223 39.3579 27.5104 40.1707 27.6886 40.3263C27.955 40.5722 28.5405 40.6943 29.4492 40.6943C34.0553 40.6943 36.3604 36.9821 36.3604 29.5581L36.3583 29.5601Z" fill="#111111"/>
</g>
</g>
</g>
</g>
<defs>
<clipPath id="clip0_525_587">
<rect width="60" height="60" fill="white" transform="translate(0.00195312)"/>
</clipPath>
</defs>
</svg>
