<svg width="134" height="18" viewBox="0 0 134 18" fill="none" xmlns="http://www.w3.org/2000/svg">
<g clip-path="url(#clip0_525_585)">
<path d="M102.517 12.8789C102.524 13.0031 102.503 13.1272 102.458 13.2433C102.414 13.3593 102.345 13.4647 102.257 13.5526C102.169 13.6405 102.064 13.7092 101.948 13.754C101.831 13.7987 101.708 13.8187 101.583 13.8127H90.6273C90.3871 13.8019 90.1603 13.6988 89.9941 13.5247C89.828 13.3508 89.7354 13.1194 89.7357 12.8789V5.44855C89.7357 5.33146 89.7588 5.2155 89.8036 5.10731C89.8484 4.99913 89.914 4.90083 89.9968 4.81803C90.0797 4.73522 90.178 4.66954 90.2862 4.62473C90.3943 4.57992 90.5103 4.55685 90.6273 4.55685H101.583C101.704 4.55114 101.825 4.56999 101.937 4.61224C102.05 4.65448 102.154 4.71926 102.242 4.80264C102.328 4.88602 102.398 4.98626 102.446 5.09729C102.492 5.20832 102.517 5.32782 102.517 5.44855V12.8789ZM128.926 12.5814C131.177 12.2417 132.28 10.7129 132.28 8.37742V4.85355C132.28 2.13628 130.709 0.607422 128.035 0.607422H111.307V17.7201H115.51V4.55685H127.147C127.267 4.5508 127.385 4.56972 127.496 4.61239C127.607 4.65506 127.707 4.72053 127.792 4.80457C127.875 4.88862 127.941 4.98935 127.984 5.10028C128.026 5.21121 128.045 5.32985 128.04 5.44855V7.78402C128.045 7.9027 128.026 8.02135 127.984 8.13229C127.941 8.24322 127.875 8.34395 127.792 8.428C127.707 8.51204 127.607 8.57751 127.496 8.62018C127.385 8.66285 127.267 8.68177 127.147 8.67572H117.252V12.6251H124.046L127.612 17.7209H132.75L128.926 12.5814ZM89.7786 0.607422C87.0613 0.607422 85.5325 2.17845 85.5325 4.85355V13.4309C85.5325 16.1482 87.1035 17.6771 89.7786 17.6771H102.475C105.15 17.6771 106.721 16.1061 106.721 13.4309V4.85355C106.721 2.13628 105.15 0.607422 102.475 0.607422H89.7786ZM62.135 13.4309C62.135 16.1482 63.706 17.6771 66.3811 17.6771H81.1583V13.7706H67.2728C67.1521 13.7707 67.0326 13.7463 66.9215 13.699C66.8105 13.6515 66.7103 13.582 66.627 13.4947C66.5435 13.4074 66.4788 13.3041 66.4365 13.191C66.3943 13.0778 66.3755 12.9574 66.3811 12.8367V5.44855C66.3811 5.21206 66.4751 4.98525 66.6423 4.81803C66.8095 4.6508 67.0364 4.55685 67.2728 4.55685H81.2005V0.607422H66.3811C63.6638 0.607422 62.135 2.17845 62.135 4.85355V13.4309ZM57.5452 0.607422H53.3023V17.7201H57.5452V0.607422ZM27.9058 0.607422V17.7201H32.152V4.55685H43.7043C43.8264 4.54449 43.9497 4.55872 44.0658 4.59856C44.1818 4.6384 44.2878 4.70291 44.3766 4.78765C44.4653 4.87239 44.5347 4.97534 44.5799 5.08943C44.625 5.20352 44.6449 5.32603 44.6382 5.44855V7.78402C44.6449 7.90653 44.625 8.02905 44.5799 8.14314C44.5347 8.25723 44.4653 8.36018 44.3766 8.44492C44.2878 8.52966 44.1818 8.59417 44.0658 8.63401C43.9497 8.67385 43.8264 8.68808 43.7043 8.67572H34.1517V12.6251H44.5976C47.3148 12.6251 48.8438 11.0541 48.8438 8.37901V4.85355C48.8438 2.13628 47.2727 0.607422 44.5976 0.607422H27.9058ZM5.86772 0.607422C3.15045 0.607422 1.62158 2.17845 1.62158 4.85355V13.4309C1.62158 16.1482 3.1926 17.6771 5.86772 17.6771H22.3472V14.0681H6.72045C6.60328 14.0681 6.48726 14.045 6.37902 14.0002C6.27079 13.9552 6.17245 13.8895 6.08963 13.8067C6.00682 13.7238 5.94115 13.6254 5.89639 13.5171C5.85162 13.4089 5.82864 13.2928 5.82874 13.1756V5.1089C5.82303 4.98829 5.84187 4.8678 5.88412 4.7547C5.92638 4.6416 5.99116 4.53825 6.07453 4.45094C6.15791 4.36361 6.25815 4.29414 6.36917 4.24671C6.48021 4.19929 6.59971 4.1749 6.72045 4.17503H17.6755C17.7997 4.16901 17.9238 4.18904 18.0399 4.23384C18.1558 4.27864 18.2612 4.34721 18.3492 4.43516C18.4371 4.52311 18.5057 4.62848 18.5505 4.74452C18.5953 4.86054 18.6153 4.98467 18.6093 5.1089V6.67992C18.6097 6.79881 18.5851 6.91646 18.5371 7.02525C18.4891 7.13404 18.4189 7.23155 18.3308 7.31148C18.2429 7.3914 18.139 7.45196 18.0261 7.48924C17.9132 7.52651 17.7938 7.53968 17.6755 7.52787H7.57317V11.1369H18.568C21.2852 11.1369 22.8141 9.52287 22.8141 6.89072V4.85355C22.8141 2.13628 21.243 0.607422 18.568 0.607422H5.86772Z" fill="#111111"/>
</g>
<defs>
<clipPath id="clip0_525_585">
<rect width="132.222" height="17.5" fill="white" transform="translate(0.882324 0.25)"/>
</clipPath>
</defs>
</svg>
