<svg width="40" height="60" viewBox="0 0 40 60" fill="none" xmlns="http://www.w3.org/2000/svg">
<g clip-path="url(#clip0_549_287)">
<mask id="mask0_549_287" style="mask-type:luminance" maskUnits="userSpaceOnUse" x="0" y="0" width="40" height="60">
<path d="M39.9733 0H0.000488281V60H39.9733V0Z" fill="white"/>
</mask>
<g mask="url(#mask0_549_287)">
<mask id="mask1_549_287" style="mask-type:luminance" maskUnits="userSpaceOnUse" x="0" y="0" width="40" height="60">
<path d="M39.9733 0H0.000488281V60H39.9733V0Z" fill="white"/>
</mask>
<g mask="url(#mask1_549_287)">
<path d="M19.9462 6.51367C19.9462 6.51367 24.261 6.92073 29.8783 8.79317C35.0072 10.5028 39.9733 13.1894 39.9733 13.1894V13.9221C39.9733 32.2397 36.0655 43.5558 19.9462 53.325C19.9462 53.325 17.4225 51.6969 14.9801 49.9058C2.68706 40.3808 0.000488281 29.7158 0.000488281 13.9221V13.1894C0.000488281 13.1894 4.88515 10.5028 10.0955 8.79317C15.7128 6.92073 19.9462 6.51367 19.9462 6.51367Z" fill="#FFF7F5"/>
<path d="M10.1767 9.19942C15.7941 7.32698 19.946 6.91992 19.946 6.91992C19.946 6.91992 24.1794 7.32698 29.7969 9.19942C34.8444 10.9091 39.4847 13.4328 39.4847 13.4328V13.9213C39.4847 29.6336 36.8797 40.2172 24.6679 49.5794C22.3069 51.3705 19.946 52.7544 19.946 52.7544C19.946 52.7544 17.6665 51.3705 15.3056 49.5794C3.09394 40.2172 0.48877 29.6336 0.48877 13.9213V13.4328C0.48877 13.4328 5.12922 10.9091 10.1767 9.19942Z" fill="#111111"/>
<path d="M25.6452 34.3546L26.9478 29.8768L28.5759 34.436L35.9032 32.4007L31.0184 18.0723H22.9587L19.9465 23.4454L16.9342 18.0723H8.95596L4.07129 32.4007L11.3983 34.436L13.0265 29.8768L14.3291 34.3546H25.6452Z" fill="#FFF7F5"/>
<path d="M8.06035 10.91V17.0159L3.17568 31.2629C2.03592 27.2737 1.30322 21.9005 1.30322 13.9222C1.30322 13.9222 4.15263 12.3754 8.06035 10.91ZM8.06035 34.6007V41.032C6.51354 38.834 5.04813 36.6359 3.90838 33.4609L8.06035 34.6007ZM24.831 35.3334V48.2779C22.2259 50.3945 19.9464 51.7784 19.9464 51.7784C19.9464 51.7784 17.6668 50.3945 14.9803 48.1962V35.4962H24.831V35.3334ZM31.8323 41.1134V34.6007L36.0659 33.3795C34.8445 36.6359 33.3792 38.9154 31.8323 41.1134ZM24.831 17.0159H22.4701L19.9464 21.4935L17.504 17.0159H14.9803V8.71193C18.0739 7.97924 19.9464 7.81641 19.9464 7.81641C19.9464 7.81641 21.9002 7.97924 24.831 8.71193V17.0159ZM31.8323 17.0159V10.8286C35.74 12.3754 38.6709 13.9222 38.6709 13.9222C38.6709 21.982 37.8567 27.3551 36.717 31.4257L31.8323 17.0159Z" fill="#FFF7F5"/>
<path d="M2.60546 7.89689L1.30288 8.8738L1.79135 7.327L0.48877 6.35006H2.11699L2.60546 4.80325L3.17533 6.35006H4.80355L3.41958 7.327L3.98944 8.8738L2.60546 7.89689ZM11.3164 4.88467L9.93247 5.86161L10.5023 4.23339L9.11836 3.25644H10.828L11.3164 1.70963L11.8049 3.25644H13.5146L12.1306 4.23339L12.619 5.86161L11.3164 4.88467ZM19.946 3.17503L18.6434 4.15197L19.1319 2.60516L17.8293 1.62822H19.4576L19.946 0L20.5159 1.62822H22.1441L20.8416 2.60516L21.33 4.15197L19.946 3.17503ZM28.6569 4.88467L27.3544 5.86161L27.843 4.23339L26.4589 3.25644H28.1686L28.6569 1.70963L29.1455 3.25644H30.8552L29.4711 4.23339L30.0411 5.86161L28.6569 4.88467ZM37.368 7.89689L35.9841 8.8738L36.4724 7.327L35.1699 6.35006H36.798L37.368 4.80325L37.8566 6.35006H39.4847L38.1822 7.327L38.6705 8.8738L37.368 7.89689Z" fill="#111111"/>
<path d="M7.00182 49.2531L5.61782 50.2301L6.10629 48.602L4.80371 47.6251H6.43193L7.00182 46.0781L7.49027 47.6251H9.11849L7.81593 48.602L8.30438 50.2301L7.00182 49.2531ZM13.5147 54.8706L12.1307 55.8476L12.6192 54.2192L11.3166 53.2423H12.9448L13.5147 51.6956L14.0032 53.2423H15.6314L14.3288 54.2192L14.8173 55.8476L13.5147 54.8706ZM19.9462 59.0226L18.6436 59.9995L19.1321 58.4526L17.8295 57.4759H19.4577L19.9462 55.8476L20.516 57.4759H22.1443L20.8417 58.4526L21.3302 59.9995L19.9462 59.0226ZM26.4591 54.8706L25.1565 55.8476L25.645 54.2192L24.3424 53.2423H25.9706L26.4591 51.6956L27.0289 53.2423H28.657L27.3546 54.2192L27.8432 55.8476L26.4591 54.8706ZM32.972 49.2531L31.6693 50.2301L32.1579 48.602L30.8554 47.6251H32.4834L32.972 46.0781L33.5418 47.6251H35.1701L33.8676 48.602L34.3559 50.2301L32.972 49.2531Z" fill="#111111"/>
</g>
</g>
</g>
<defs>
<clipPath id="clip0_549_287">
<rect width="40" height="60" fill="white"/>
</clipPath>
</defs>
</svg>
