<svg width="123" height="34" viewBox="0 0 123 34" fill="none" xmlns="http://www.w3.org/2000/svg">
<g clip-path="url(#clip0_525_561)">
<path fill-rule="evenodd" clip-rule="evenodd" d="M24.5673 13.1157C23.5386 14.1425 21.4995 16.0846 19.864 17.703C16.0029 21.2158 15.9411 23.4798 16.1488 24.5405C13.3065 21.2178 15.5607 18.7277 17.0065 17.3178C17.6697 16.6675 21.7661 12.6529 22.7042 11.7611C26.0215 8.6056 26.0206 7.66112 26.0206 7.66112C27.2812 10.6285 25.5949 12.0906 24.5673 13.1157ZM24.4688 18.0397C23.4592 19.0246 23.8645 18.6301 22.2287 20.2264C19.5681 22.8162 19.553 24.5405 19.553 24.5405C18.068 22.9184 18.9795 20.2219 20.5765 18.6664C21.2397 18.0184 22.4748 16.8534 23.3545 16.0221C25.1521 14.3253 25.7135 13.8286 25.9679 13.174C26.6561 16.0187 25.1438 17.3213 24.4688 18.0397ZM13.457 15.9909C14.1941 15.2813 18.886 10.6898 19.7817 9.82304C22.6887 7.00782 22.5579 6.12389 22.5579 6.12389C23.8132 9.09093 22.0926 10.7123 21.058 11.7299C19.9308 12.8389 17.0776 15.6286 15.434 17.2363C11.3069 21.2726 12.7861 24.5398 12.7861 24.5398C10.1657 22.608 10.7534 18.6185 13.457 15.9909ZM11.744 12.8229C12.4859 12.094 16.472 8.20474 17.8213 6.89878C20.6551 4.15516 20.4908 3.06516 20.6189 2.49367C22.6039 4.51931 21.3855 6.57463 20.3088 7.64208C19.3656 8.57728 14.9394 13.024 13.14 14.656C12.6816 15.072 9.70176 17.7906 9.89599 20.3103C8.233 18.2157 8.68026 15.5611 11.744 12.8229ZM8.10052 11.7111C8.76855 11.0193 13.8357 6.10261 14.6948 5.24239C16.7911 3.1492 16.3766 1.46154 16.3766 1.46154C18.8024 3.29739 17.9103 5.27974 16.5941 6.5475C15.5263 7.58155 11.7423 11.3668 9.99426 13.0338C7.21992 15.685 7.55676 17.8744 8.08164 19.7479C6.04861 17.6721 5.12592 14.7931 8.10052 11.7111ZM16.4731 0.806641C8.09487 0.806641 1.30322 7.56059 1.30322 15.8922C1.30322 23.5851 7.09426 29.9326 14.5779 30.8603V28.7246C12.0775 28.3508 9.58275 27.5086 7.92022 25.24H25.0257C23.3628 27.5086 20.8683 28.3508 18.3679 28.7246V30.8603C25.8516 29.9326 31.6426 23.5851 31.6426 15.8922C31.6426 7.56059 24.8507 0.806641 16.4731 0.806641Z" fill="#111111"/>
<path fill-rule="evenodd" clip-rule="evenodd" d="M45.9511 10.0153C46.6802 10.0153 47.3769 9.99933 48.1217 9.96768C48.3754 9.96768 48.4703 9.90485 48.4703 9.65266C48.4703 8.84922 48.0582 8.06173 47.3456 8.06173C46.6958 8.06173 46.094 8.77036 45.9511 10.0153ZM50.1337 13.1027C49.1675 14.4418 47.9792 14.7567 47.3769 14.7567C45.3335 14.7567 44.1772 13.1971 44.1772 11.3857C44.1772 10.2195 44.6363 9.24308 45.3021 8.5814C45.9833 7.8728 46.8545 7.44727 47.6781 7.44727H47.6941C49.1039 7.44727 50.1969 8.66025 50.1969 9.92086C50.1969 10.2356 50.102 10.4089 49.769 10.4717C49.5001 10.5033 47.5516 10.6607 45.8721 10.7238C45.9196 12.583 46.9652 13.4494 48.0899 13.4494C48.7078 13.4494 49.3097 13.2287 49.8644 12.7247L50.1337 13.1027Z" fill="#111111"/>
<path fill-rule="evenodd" clip-rule="evenodd" d="M57.0561 13.0871C56.3431 14.0635 55.2973 14.7567 54.3473 14.7567C52.2403 14.7567 51.0044 13.1343 51.0044 11.4329C51.0044 10.2515 51.5748 9.16416 52.6042 8.39237C53.555 7.68376 54.5686 7.44727 55.171 7.44727H55.1865C55.7727 7.44727 56.2957 7.63652 56.5646 7.8411C56.7867 8.0145 56.85 8.17184 56.85 8.39237C56.8344 8.80224 56.4543 9.18025 56.2163 9.18025C56.1214 9.18025 56.026 9.13305 55.8834 9.00653C55.2973 8.48695 54.7748 8.25067 54.2836 8.25067C53.5075 8.25067 52.7315 8.95964 52.7315 10.6294C52.7315 12.756 54.2362 13.4494 54.9966 13.4494C55.6621 13.4494 56.1371 13.2763 56.7707 12.7247L57.0561 13.0871Z" fill="#111111"/>
<path fill-rule="evenodd" clip-rule="evenodd" d="M62.0145 14.5682V14.0959C62.7749 14.001 62.8699 13.9222 62.8699 12.8197V10.1575C62.8699 9.03898 62.3949 8.5658 61.6501 8.5658C61.1594 8.5658 60.7158 8.81806 60.2718 9.16465V12.9302C60.2718 13.9381 60.3673 14.001 61.1112 14.0959V14.5682H57.4365V14.0959C58.4502 13.9695 58.5295 13.9222 58.5295 12.8825V9.62189C58.5295 8.66067 58.4502 8.59783 57.6422 8.44007V8.0306C58.4816 7.90453 59.4168 7.69953 60.2718 7.41602V8.61377C60.5886 8.39283 60.9215 8.1407 61.2858 7.90453C61.7452 7.60507 62.0933 7.44773 62.5531 7.44773C63.8204 7.44773 64.6128 8.36166 64.6128 9.92136V12.9302C64.6128 13.9381 64.708 13.9855 65.5638 14.0959V14.5682H62.0145Z" fill="#111111"/>
<path fill-rule="evenodd" clip-rule="evenodd" d="M68.176 10.7084C68.176 12.6615 68.8894 14.1739 69.9983 14.1739C70.7427 14.1739 71.4391 13.67 71.4391 11.4013C71.4391 9.3532 70.8062 8.03014 69.6493 8.03014C68.8894 8.03014 68.176 8.91205 68.176 10.7084ZM73.4201 10.9761C73.4201 13.5126 71.5823 14.7567 69.8242 14.7567C67.4478 14.7567 66.1958 12.9925 66.1958 11.2595C66.1958 8.70745 68.2077 7.44727 69.8869 7.44727C71.994 7.44727 73.4201 9.06983 73.4201 10.9761Z" fill="#111111"/>
<path fill-rule="evenodd" clip-rule="evenodd" d="M73.8638 14.5691V14.0968C74.8303 13.9703 74.9417 13.8917 74.9417 12.8677V5.57376C74.9417 4.56578 74.862 4.53418 73.9272 4.42387V3.99843C74.8148 3.90397 75.9236 3.6679 76.6835 3.44727V12.8677C76.6835 13.9231 76.795 14.0018 77.7769 14.0968V14.5691H73.8638Z" fill="#111111"/>
<path fill-rule="evenodd" clip-rule="evenodd" d="M81.4048 6.6283C81.6578 5.95064 82.1809 4.37553 82.2923 4.07606C82.4502 3.98159 83.6225 3.85553 83.8601 3.90287L83.939 4.06053L81.8799 6.83298L81.4048 6.6283ZM80.3276 10.7085C80.3276 12.6617 81.0403 14.174 82.1492 14.174C82.8936 14.174 83.5908 13.6701 83.5908 11.4015C83.5908 9.35343 82.957 8.03032 81.8002 8.03032C81.0403 8.03032 80.3276 8.9122 80.3276 10.7085ZM85.5702 10.9763C85.5702 13.5128 83.7332 14.7569 81.9751 14.7569C79.5987 14.7569 78.3467 12.9927 78.3467 11.2597C78.3467 8.70768 80.3586 7.44745 82.0385 7.44745C84.1456 7.44745 85.5702 9.06998 85.5702 10.9763Z" fill="#111111"/>
<path fill-rule="evenodd" clip-rule="evenodd" d="M88.4705 9.79442C88.4705 10.9445 88.9139 11.8268 89.7063 11.8268C90.3393 11.8268 90.7834 11.1963 90.7834 9.99933C90.7834 8.8968 90.3555 7.99854 89.5314 7.99854C88.9928 7.99854 88.4705 8.61336 88.4705 9.79442ZM88.3916 15.1668C88.0906 15.4342 87.9002 15.7492 87.9002 16.1275C87.9002 16.9306 88.7235 17.6399 89.9593 17.6399C91.2585 17.6399 91.9867 16.9465 91.9867 16.0643C91.9867 15.4974 91.6385 15.1508 91.1634 14.9933C90.7509 14.8673 90.371 14.8357 89.7372 14.8357C88.9773 14.8357 88.6284 14.9305 88.3916 15.1668ZM93.6187 7.76227C93.508 8.03014 93.207 8.50255 92.9377 8.6758L92.0184 8.61336C92.2877 8.94408 92.4626 9.3532 92.4626 9.88883C92.4626 11.5589 91.0047 12.378 89.5314 12.378C89.2621 12.378 88.9928 12.3308 88.7398 12.2996C88.5812 12.4254 88.4225 12.6303 88.4225 12.8192C88.4225 13.0871 88.6926 13.418 89.4362 13.4021C89.9756 13.4021 90.4662 13.3861 90.973 13.3861C91.9557 13.3861 93.3494 13.67 93.3494 15.2764C93.3494 17.0254 91.3375 18.4903 89.2304 18.4903C87.2982 18.4903 86.3634 17.451 86.3472 16.5687C86.3472 16.2064 86.5221 15.9385 86.8068 15.6863C87.1713 15.3713 87.6464 15.0563 88.0263 14.7884C87.4088 14.5838 87.0606 14.2684 86.854 13.9218C86.6954 13.6856 86.6165 13.3392 86.6327 13.1498C87.3926 12.8664 87.9002 12.4413 88.1695 12.1419C87.2982 11.8424 86.6807 11.0546 86.6807 10.0466C86.6807 8.26631 88.3119 7.44727 89.6583 7.44727H89.6746C90.2758 7.44727 90.7509 7.58897 91.3057 7.85673C92.0981 7.82557 92.9215 7.73067 93.5397 7.65216L93.6187 7.76227Z" fill="#111111"/>
<path fill-rule="evenodd" clip-rule="evenodd" d="M94.7585 5.32091C94.7585 4.75367 95.2182 4.3125 95.773 4.3125C96.3271 4.3125 96.7704 4.75367 96.7704 5.32091C96.7704 5.85623 96.3271 6.31335 95.7568 6.31335C95.2182 6.31335 94.7585 5.85623 94.7585 5.32091ZM93.9507 14.568V14.0957C94.9017 14.0008 94.9961 13.922 94.9961 12.8195V9.65295C94.9961 8.64483 94.9179 8.58169 94.0776 8.45592V8.01475C94.9806 7.90431 95.9309 7.69932 96.7395 7.43187V12.8195C96.7395 13.8907 96.8184 13.9853 97.8004 14.0957V14.568H93.9507Z" fill="#111111"/>
<path fill-rule="evenodd" clip-rule="evenodd" d="M104.438 13.0871C103.725 14.0635 102.68 14.7567 101.73 14.7567C99.6225 14.7567 98.3867 13.1343 98.3867 11.4329C98.3867 10.2515 98.957 9.16416 99.987 8.39237C100.937 7.68376 101.951 7.44727 102.553 7.44727H102.569C103.155 7.44727 103.678 7.63652 103.947 7.8411C104.169 8.0145 104.232 8.17184 104.232 8.39237C104.217 8.80224 103.836 9.18025 103.598 9.18025C103.504 9.18025 103.409 9.13305 103.266 9.00653C102.68 8.48695 102.157 8.25067 101.666 8.25067C100.89 8.25067 100.114 8.95964 100.114 10.6294C100.114 12.756 101.618 13.4494 102.379 13.4494C103.044 13.4494 103.519 13.2763 104.153 12.7247L104.438 13.0871Z" fill="#111111"/>
<path fill-rule="evenodd" clip-rule="evenodd" d="M106.878 10.7084C106.878 12.6615 107.59 14.1739 108.699 14.1739C109.444 14.1739 110.142 13.67 110.142 11.4013C110.142 9.3532 109.508 8.03014 108.352 8.03014C107.59 8.03014 106.878 8.91205 106.878 10.7084ZM112.122 10.9761C112.122 13.5126 110.283 14.7567 108.525 14.7567C106.149 14.7567 104.897 12.9925 104.897 11.2595C104.897 8.70745 106.909 7.44727 108.589 7.44727C110.696 7.44727 112.122 9.06983 112.122 10.9761Z" fill="#111111"/>
<path fill-rule="evenodd" clip-rule="evenodd" d="M41.623 23.054C41.3221 22.5028 40.8152 22.2506 40.2925 22.2506C39.7855 22.2506 38.5341 22.7233 38.5341 25.0866C38.5341 26.9928 39.6747 27.7959 40.5143 27.7959C40.9102 27.7959 41.2589 27.6698 41.623 27.4336V23.054ZM44.5062 28.3156C44.1262 28.3789 42.7638 28.5678 41.623 28.9305V27.9689L40.6568 28.5677C40.1815 28.8511 39.8808 28.9144 39.7064 28.9144C38.3757 28.9144 36.5698 27.7959 36.5698 25.496C36.5698 23.353 38.4707 21.6045 40.8311 21.6045C40.9896 21.6045 41.2589 21.6365 41.623 21.7149V19.6985C41.623 18.785 41.528 18.7062 40.4985 18.6116V18.1549C41.4489 18.0443 42.637 17.8242 43.3657 17.6035V26.8035C43.3657 27.6698 43.4608 27.7328 44.0947 27.8115L44.5062 27.8591V28.3156Z" fill="#111111"/>
<path fill-rule="evenodd" clip-rule="evenodd" d="M46.9366 24.1734C47.6653 24.1734 48.3625 24.1579 49.1069 24.1262C49.3604 24.1262 49.4555 24.0634 49.4555 23.8112C49.4555 23.0077 49.0436 22.2203 48.3307 22.2203C47.6813 22.2203 47.0792 22.9288 46.9366 24.1734ZM51.1188 27.2612C50.1524 28.6003 48.9648 28.9153 48.3625 28.9153C46.3191 28.9153 45.1626 27.3558 45.1626 25.5442C45.1626 24.3784 45.6219 23.4016 46.2873 22.7399C46.9684 22.0313 47.8396 21.6055 48.6636 21.6055H48.6793C50.0891 21.6055 51.1821 22.8187 51.1821 24.079C51.1821 24.394 51.0871 24.5678 50.7545 24.6302C50.4852 24.6619 48.5364 24.8192 46.8578 24.8825C46.9052 26.7416 47.9507 27.6079 49.0751 27.6079C49.6934 27.6079 50.2948 27.3868 50.8495 26.8832L51.1188 27.2612Z" fill="#111111"/>
<path fill-rule="evenodd" clip-rule="evenodd" d="M64.1408 28.7264V28.222C65.3607 28.0963 65.4404 27.9857 65.4241 26.4577L65.3924 20.2666H65.3135L61.6854 28.6158H61.2899L57.9469 20.44H57.8837L57.678 24.6934C57.6144 26.0009 57.6144 26.7098 57.6619 27.2611C57.7095 27.9857 58.0419 28.1117 59.1035 28.2064V28.7264H55.333V28.2064C56.236 28.1274 56.5372 27.8756 56.6483 27.2924C56.7434 26.7727 56.8535 26.0009 56.9647 24.3468L57.2022 21.1802C57.3451 19.2899 57.234 19.1164 55.856 18.9904V18.4863H58.8817L62.1292 25.7331L65.4404 18.4863H68.4497V18.9904C67.135 19.1164 67.0715 19.2113 67.1033 20.6289L67.2464 26.4577C67.2936 27.9857 67.3571 28.0963 68.6401 28.222V28.7264H64.1408Z" fill="#111111"/>
<path fill-rule="evenodd" clip-rule="evenodd" d="M71.1361 24.8664C71.1361 26.82 71.8488 28.3325 72.9585 28.3325C73.7029 28.3325 74.4001 27.8284 74.4001 25.5598C74.4001 23.5117 73.7663 22.1886 72.6095 22.1886C71.8488 22.1886 71.1361 23.0705 71.1361 24.8664ZM76.3802 25.1346C76.3802 27.6707 74.5424 28.9153 72.7836 28.9153C70.4072 28.9153 69.1567 27.1511 69.1567 25.4181C69.1567 22.866 71.1679 21.6055 72.847 21.6055C74.9541 21.6055 76.3802 23.2283 76.3802 25.1346Z" fill="#111111"/>
<path fill-rule="evenodd" clip-rule="evenodd" d="M81.461 28.7265V28.2536C82.2209 28.1593 82.3153 28.0804 82.3153 26.9779V24.3156C82.3153 23.1968 81.841 22.7243 81.0958 22.7243C80.6052 22.7243 80.161 22.9766 79.7184 23.3229V27.0883C79.7184 28.0963 79.8128 28.1593 80.5572 28.2536V28.7265H76.8823V28.2536C77.896 28.1275 77.9749 28.0804 77.9749 27.0406V23.78C77.9749 22.8188 77.896 22.756 77.0882 22.5983V22.1887C77.9277 22.0626 78.8626 21.8577 79.7184 21.5742V22.7716C80.0349 22.5509 80.3676 22.2988 80.7321 22.0626C81.191 21.7632 81.5392 21.6056 81.9988 21.6056C83.2663 21.6056 84.0587 22.5193 84.0587 24.079V27.0883C84.0587 28.0963 84.1539 28.1436 85.009 28.2536V28.7265H81.461Z" fill="#111111"/>
<path fill-rule="evenodd" clip-rule="evenodd" d="M88.5769 28.7261C88.2921 28.8517 88.0545 28.915 87.9276 28.915C86.787 28.915 86.1223 28.3321 86.1223 26.9614V22.5034H85.0924L85.0127 22.33L85.4561 21.7944H86.1223V20.6443L87.6429 19.4785L87.8642 19.5574V21.7944H89.4961C89.6703 21.9678 89.6385 22.3773 89.401 22.5034H87.8642V26.4419C87.8642 27.6864 88.419 27.8597 88.768 27.8597C89.0837 27.8597 89.3855 27.7652 89.6385 27.6548L89.7809 28.1432L88.5769 28.7261Z" fill="#111111"/>
<path fill-rule="evenodd" clip-rule="evenodd" d="M91.892 24.1734C92.6209 24.1734 93.3182 24.1579 94.0626 24.1262C94.3156 24.1262 94.4108 24.0634 94.4108 23.8112C94.4108 23.0077 93.9991 22.2203 93.2864 22.2203C92.6364 22.2203 92.0352 22.9288 91.892 24.1734ZM96.0745 27.2612C95.108 28.6003 93.9202 28.9153 93.3182 28.9153C91.2745 28.9153 90.1177 27.3558 90.1177 25.5442C90.1177 24.3784 90.5773 23.4016 91.2428 22.7399C91.9237 22.0313 92.7951 21.6055 93.6192 21.6055H93.6346C95.0445 21.6055 96.1379 22.8187 96.1379 24.079C96.1379 24.394 96.0427 24.5678 95.71 24.6302C95.4407 24.6619 93.4923 24.8192 91.8131 24.8825C91.8603 26.7416 92.9065 27.6079 94.0308 27.6079C94.6483 27.6079 95.2504 27.3868 95.8052 26.8832L96.0745 27.2612Z" fill="#111111"/>
<path fill-rule="evenodd" clip-rule="evenodd" d="M99.4365 23.2756C99.975 22.346 100.624 21.6056 101.273 21.6056C101.876 21.6056 102.287 22.0467 102.287 22.5193C102.287 22.9921 101.987 23.3861 101.607 23.5278C101.4 23.6223 101.242 23.575 101.147 23.4807C100.877 23.2597 100.687 23.1652 100.434 23.1652C100.086 23.1652 99.705 23.4489 99.4047 24.1735V27.0883C99.4047 28.0804 99.4837 28.1593 100.703 28.2536V28.7265H96.6167V28.2536C97.519 28.1593 97.6621 28.0804 97.6621 27.0883V23.7168C97.6621 22.8188 97.5669 22.756 96.7591 22.5983V22.1887C97.6459 22.0783 98.5009 21.8893 99.4047 21.5742V23.2756H99.4365Z" fill="#111111"/>
<path fill-rule="evenodd" clip-rule="evenodd" d="M105.657 23.2756C106.196 22.346 106.845 21.6056 107.495 21.6056C108.097 21.6056 108.509 22.0467 108.509 22.5193C108.509 22.9921 108.208 23.3861 107.828 23.5278C107.621 23.6223 107.463 23.575 107.368 23.4807C107.099 23.2597 106.908 23.1652 106.655 23.1652C106.306 23.1652 105.926 23.4489 105.625 24.1735V27.0883C105.625 28.0804 105.704 28.1593 106.925 28.2536V28.7265H102.837V28.2536C103.74 28.1593 103.883 28.0804 103.883 27.0883V23.7168C103.883 22.8188 103.788 22.756 102.98 22.5983V22.1887C103.867 22.0783 104.722 21.8893 105.625 21.5742V23.2756H105.657Z" fill="#111111"/>
<path fill-rule="evenodd" clip-rule="evenodd" d="M110.513 24.1734C111.241 24.1734 111.939 24.1579 112.683 24.1262C112.937 24.1262 113.032 24.0634 113.032 23.8112C113.032 23.0077 112.62 22.2203 111.906 22.2203C111.257 22.2203 110.656 22.9288 110.513 24.1734ZM114.695 27.2612C113.729 28.6003 112.541 28.9153 111.939 28.9153C109.895 28.9153 108.739 27.3558 108.739 25.5442C108.739 24.3784 109.198 23.4016 109.864 22.7399C110.545 22.0313 111.416 21.6055 112.241 21.6055H112.255C113.665 21.6055 114.759 22.8187 114.759 24.079C114.759 24.394 114.664 24.5678 114.331 24.6302C114.062 24.6619 112.113 24.8192 110.435 24.8825C110.482 26.7416 111.527 27.6079 112.652 27.6079C113.27 27.6079 113.871 27.3868 114.426 26.8832L114.695 27.2612Z" fill="#111111"/>
<path fill-rule="evenodd" clip-rule="evenodd" d="M122.6 22.2517C121.809 22.3934 121.666 22.5355 121.254 23.4018C120.858 24.2366 120.351 25.5444 119.353 27.8915C118.292 30.412 117.974 31.3728 117.705 32.255C117.611 32.5862 117.404 32.665 117.151 32.665C116.708 32.665 116.122 32.24 116.122 31.7511C116.122 31.4993 116.232 31.3576 116.533 31.1526C117.12 30.8379 117.467 30.4913 117.786 29.9236C118.007 29.5457 118.102 29.3095 118.165 29.1204C118.244 28.8683 118.213 28.6478 118.117 28.38C117.358 26.2846 116.55 24.1581 116.184 23.3073C115.883 22.5672 115.71 22.3778 114.917 22.2517V21.7949H118.577V22.2517C117.879 22.3934 117.769 22.504 117.959 23.0396L119.243 26.7102C119.638 25.7489 120.225 24.0637 120.525 23.1341C120.699 22.5824 120.573 22.3934 119.749 22.2517V21.7949H122.6V22.2517Z" fill="#111111"/>
<path fill-rule="evenodd" clip-rule="evenodd" d="M36.3415 4.11914C36.3003 5.05181 36.2252 5.90095 36.1714 6.82596H36.7045C36.8932 6.05829 37.066 5.54627 37.3011 5.27394C37.5213 4.96915 37.8187 4.82585 39.1059 4.82585H39.8119V12.4894C39.8119 13.8171 39.6545 13.9446 38.3054 14.0575V14.5686H43.2006V14.0575C41.7728 13.9446 41.6321 13.8171 41.6321 12.4894V4.82585H42.479C43.4994 4.82585 43.8442 4.92191 44.1271 5.24148C44.3622 5.51468 44.55 6.00957 44.7385 6.81L45.2565 6.77798C45.1913 5.95011 45.1261 5.00191 45.1063 4.11914H36.3415Z" fill="#111111"/>
</g>
<defs>
<clipPath id="clip0_525_561">
<rect width="122.262" height="32.5" fill="white" transform="translate(0.722656 0.75)"/>
</clipPath>
</defs>
</svg>
