<svg width="159" height="30" viewBox="0 0 159 30" fill="none" xmlns="http://www.w3.org/2000/svg">
<path fill-rule="evenodd" clip-rule="evenodd" d="M50.1725 9.83887V24.0897H52.8107V9.83887H50.1725ZM92.2072 10.1707C90.5139 10.1707 88.9584 11.0492 88.9584 13.4895V14.7192H87.7179V16.9838H88.9584V24.0897H91.597V16.9838H93.4873V14.7192H91.597V13.5872C91.597 12.7867 92.1087 12.4354 92.8568 12.4354C93.231 12.4354 93.6054 12.4941 93.9204 12.6306V10.4831C93.3886 10.2684 92.8963 10.1707 92.2072 10.1707ZM32.6777 11.1235V13.669H35.8623V24.4205H38.535V13.669H41.7197V11.1235H32.6777ZM58.1601 14.4656C55.5215 14.4656 53.9856 16.3788 53.9856 19.4048C53.9856 22.4697 55.6789 24.3436 58.7703 24.3436C59.8142 24.3436 60.6807 24.2069 61.4484 23.8554V21.9034C60.6606 22.2158 59.9127 22.3136 59.1249 22.3136C57.7663 22.3136 56.9392 21.7666 56.7227 20.4004H62.0195C62.3342 16.6131 60.8577 14.4656 58.1601 14.4656ZM67.9939 14.4656C66.7732 14.4656 66.0052 15.0706 65.5719 15.6759V14.7194H63.2092V28.3845H65.8476V23.3869C66.3005 23.8947 66.9898 24.3438 68.0531 24.3438C70.3961 24.3438 71.4592 22.2938 71.4592 19.4048C71.4592 16.7691 70.5339 14.4656 67.9939 14.4656ZM76.431 14.4656C73.7923 14.4656 72.2563 16.3788 72.2563 19.4048C72.2563 22.4697 73.9498 24.3436 77.0413 24.3436C78.0849 24.3436 78.9513 24.2069 79.7192 23.8554V21.9034C78.9316 22.2158 78.1833 22.3136 77.3956 22.3136C76.0371 22.3136 75.21 21.7666 74.9935 20.4004H80.2901C80.6053 16.6131 79.1283 14.4656 76.431 14.4656ZM114.405 14.4656C113.381 14.4656 112.574 14.8951 112.022 15.5979V14.7194H109.66V24.0899H112.259V17.7648C112.593 17.1986 113.046 16.8862 113.578 16.8862C114.188 16.8862 114.563 17.2573 114.563 18.0185V24.0899H117.142V17.7256C117.477 17.1986 117.91 16.8862 118.461 16.8862C119.091 16.8862 119.446 17.2573 119.446 18.0185V24.0899H122.045V17.472C122.045 15.7931 121.119 14.4656 119.209 14.4656C118.186 14.4656 117.339 14.7977 116.65 15.5979C116.197 14.8951 115.429 14.4656 114.405 14.4656ZM126.885 14.4656C125.801 14.4656 124.64 14.7 123.773 15.0122V17.2573C124.561 16.9254 125.565 16.6717 126.628 16.6717C127.928 16.6717 128.283 17.3355 128.283 18.0967V18.6043C127.712 18.4871 127.278 18.4286 126.766 18.4286C124.659 18.4286 123.183 19.4241 123.183 21.4347C123.183 23.4065 124.581 24.3436 126.195 24.3436C127.18 24.3436 128.026 24.0703 128.735 23.5041C129.129 24.0116 129.799 24.2265 130.527 24.2265C131 24.2265 131.394 24.1677 131.787 24.0507V22.2157C131.689 22.2352 131.571 22.2548 131.472 22.2548C131.098 22.2548 130.862 22.0985 130.862 21.63V18.2918C130.862 15.6174 129.503 14.4656 126.885 14.4656ZM137.685 14.4656C136.445 14.4656 135.657 14.9734 135.125 15.5979V14.7194H132.762V24.0899H135.401V17.8234C135.657 17.3353 136.129 16.8862 136.819 16.8862C137.508 16.8862 137.901 17.2183 137.901 18.0185V24.0899H140.54V17.4525C140.54 15.5005 139.182 14.4656 137.685 14.4656ZM153.173 14.4656C150.535 14.4656 148.999 16.3788 148.999 19.4048C148.999 22.4697 150.692 24.3436 153.783 24.3436C154.827 24.3436 155.694 24.2069 156.462 23.8554V21.9034C155.674 22.2158 154.926 22.3136 154.138 22.3136C152.779 22.3136 151.952 21.7666 151.736 20.4004H157.032C157.348 16.6131 155.871 14.4656 153.173 14.4656ZM98.1002 14.4658C95.3634 14.4658 93.847 16.3202 93.847 19.4047C93.847 22.4891 95.3634 24.3436 98.1002 24.3436C100.818 24.3436 102.334 22.4891 102.334 19.4047C102.334 16.3005 100.818 14.4658 98.1002 14.4658ZM146.13 14.4658C143.531 14.4658 141.641 16.2618 141.641 19.4827C141.641 22.6063 143.472 24.3436 146.012 24.3436C146.977 24.3436 147.706 24.2069 148.296 23.9336V21.6692C147.804 21.8839 147.233 22.0595 146.426 22.0595C145.067 22.0595 144.299 21.1031 144.299 19.4047C144.299 17.7062 145.165 16.7105 146.544 16.7105C147.194 16.7105 147.706 16.8474 148.198 17.101V14.8951C147.548 14.5827 146.938 14.4658 146.13 14.4658ZM86.3755 14.5088C85.152 14.5153 84.2302 15.0653 83.7128 16.1446V14.7194H81.3499V24.0899H83.9883V18.7797C84.5004 17.4722 85.5046 17.023 86.7647 17.1793V14.5243C86.6319 14.5133 86.5022 14.5081 86.3755 14.5088ZM108.309 14.5088C107.085 14.5153 106.163 15.0653 105.645 16.1446V14.7194H103.283V24.0899H105.921V18.7797C106.433 17.4722 107.437 17.023 108.698 17.1793V14.5243C108.565 14.5133 108.435 14.5081 108.309 14.5088ZM45.0385 14.5234C42.3999 14.5234 40.8639 16.4367 40.8639 19.4626C40.8639 22.5275 42.5575 24.4016 45.6489 24.4016C46.6928 24.4016 47.5588 24.2648 48.3268 23.9134V21.9611C47.5391 22.2738 46.791 22.3714 46.0033 22.3714C44.6447 22.3714 43.8177 21.8247 43.6012 20.4583H48.8979C49.2128 16.671 47.7362 14.5234 45.0385 14.5234ZM58.1995 16.6131C59.2036 16.6131 59.5974 17.3353 59.5974 18.6627H56.6242C56.7227 17.3939 57.1953 16.6131 58.1995 16.6131ZM76.4702 16.6131C77.4744 16.6131 77.8682 17.3353 77.8682 18.6627H74.8952C74.9937 17.3939 75.4661 16.6131 76.4702 16.6131ZM153.213 16.6131C154.217 16.6131 154.611 17.3353 154.611 18.6627H151.638C151.736 17.3939 152.208 16.6131 153.213 16.6131ZM45.0778 16.671C46.0822 16.671 46.4758 17.3934 46.4758 18.721H43.5027C43.6012 17.4518 44.0738 16.671 45.0778 16.671ZM98.1002 16.7302C99.2226 16.7302 99.6753 17.6866 99.6753 19.4047C99.6753 21.1226 99.2226 22.0595 98.1002 22.0595C96.9581 22.0595 96.5053 21.1226 96.5053 19.4047C96.5053 17.6866 96.9581 16.7302 98.1002 16.7302ZM67.2849 16.7498C68.4073 16.7498 68.8405 17.7064 68.8405 19.4048C68.8405 21.1031 68.4073 22.0595 67.2849 22.0595C66.6549 22.0595 66.1628 21.6888 65.8476 21.1031V17.7064C66.1628 17.1206 66.6549 16.7498 67.2849 16.7498ZM127.338 20.1073C127.652 20.1073 127.948 20.1465 128.283 20.2246V22.0205C127.869 22.3917 127.455 22.567 126.865 22.567C126.235 22.567 125.723 22.1961 125.723 21.3567C125.723 20.4198 126.372 20.1073 127.338 20.1073Z" fill="#111111"/>
<path d="M18.7759 1.37695L3.45598 1.3811C2.97334 1.37081 2.53599 1.80721 2.55554 2.29087C2.55246 3.83758 2.55565 5.38313 2.55361 6.92881C2.54744 7.19431 2.61426 7.47227 2.81698 7.65544L8.28959 13.0684L8.29474 7.42903C8.29585 7.28025 8.10958 7.23351 7.99021 7.24381C6.64932 7.24071 5.30846 7.25104 3.9686 7.24074C3.67839 7.26751 3.39948 7.01734 3.43138 6.71993C3.42623 5.41505 3.43032 4.11029 3.42929 2.80542C3.38813 2.49874 3.66183 2.22296 3.96746 2.25485L17.9496 2.26C18.2285 2.26205 18.4375 2.5358 18.4118 2.80542C18.4159 4.10925 18.421 5.414 18.4096 6.71784C18.4251 6.96894 18.2348 7.19123 17.995 7.24267C16.6458 7.24062 15.2977 7.24685 13.9486 7.24175C13.82 7.26233 13.6234 7.19949 13.5554 7.35077C13.4877 12.6882 13.5252 18.3541 13.5287 22.9846C13.5534 23.1811 13.4484 23.3501 13.3517 23.5105C12.9061 23.6248 12.443 23.5713 11.9891 23.5805L8.6554 23.5437C8.6554 23.5437 10.847 25.8764 11.9491 26.9405C12.407 27.3485 12.8516 27.8686 13.3384 27.9355L17.5585 27.915C17.9023 27.8769 18.1502 27.5373 18.1306 27.2008C18.139 24.1124 18.1235 21.0232 18.1379 17.9338C18.1513 17.6087 18.5886 17.7496 18.7996 17.7136C18.7996 17.7136 27.5997 18.1179 27.6325 9.73232C27.5997 1.45291 18.7394 1.38252 18.7759 1.37695Z" fill="#111111"/>
</svg>
