<svg width="528" height="222" viewBox="0 0 528 222" fill="none" xmlns="http://www.w3.org/2000/svg">
<rect x="1.11111" y="12.5017" width="197.778" height="197.778" rx="52.2222" stroke="#E85324" stroke-width="2.22222" stroke-dasharray="4.44 4.44"/>
<path d="M55.7035 92H54.2895L59.8195 81.164H61.3875L63.6835 92H62.3115L61.7515 89.074H57.1455L55.7035 92ZM60.4495 82.326L57.6635 87.996H61.5415L60.4495 82.326ZM64.8414 92L66.5634 81.164H67.8794L66.1714 92H64.8414ZM80.0435 81.164L79.8615 82.284H76.1375L74.5835 92H73.2675L74.8075 82.284H71.0695L71.2515 81.164H80.0435ZM85.8117 92.112C85.2424 92.112 84.8271 91.9673 84.5657 91.678C84.3137 91.3887 84.2297 90.9733 84.3137 90.432H84.2857C83.9777 91.0013 83.5811 91.4353 83.0957 91.734C82.6104 92.0327 82.0551 92.182 81.4297 92.182C80.7297 92.182 80.1697 91.986 79.7497 91.594C79.3297 91.202 79.1197 90.6793 79.1197 90.026C79.1197 89.5687 79.2131 89.172 79.3997 88.836C79.5864 88.4907 79.8664 88.2107 80.2397 87.996C80.4451 87.8747 80.6877 87.7767 80.9677 87.702C81.2477 87.6273 81.6257 87.562 82.1017 87.506L83.4877 87.352C84.0384 87.2867 84.4211 87.17 84.6357 87.002C84.8597 86.8247 84.9717 86.5447 84.9717 86.162C84.9717 85.7607 84.8317 85.4573 84.5517 85.252C84.2811 85.0373 83.8844 84.93 83.3617 84.93C82.7737 84.93 82.2977 85.0793 81.9337 85.378C81.5791 85.6767 81.3224 86.134 81.1637 86.75L79.9597 86.498C80.2117 85.6487 80.6317 85 81.2197 84.552C81.8171 84.104 82.5497 83.88 83.4177 83.88C84.4071 83.88 85.1397 84.1507 85.6157 84.692C86.1011 85.224 86.2691 85.9613 86.1197 86.904L85.6157 90.026C85.5504 90.4273 85.5691 90.7073 85.6717 90.866C85.7744 91.0153 85.9844 91.09 86.3017 91.09C86.3857 91.09 86.4557 91.09 86.5117 91.09C86.5771 91.0807 86.6564 91.0667 86.7497 91.048L86.5957 91.986C86.5024 92.0233 86.3811 92.0513 86.2317 92.07C86.0824 92.098 85.9424 92.112 85.8117 92.112ZM80.4497 89.9C80.4497 90.3013 80.5851 90.6187 80.8557 90.852C81.1264 91.0853 81.4997 91.202 81.9757 91.202C82.6571 91.202 83.2404 90.9407 83.7257 90.418C84.2111 89.8953 84.5284 89.1813 84.6777 88.276L84.7617 87.786C84.6497 87.87 84.5051 87.94 84.3277 87.996C84.1597 88.0427 83.9404 88.0847 83.6697 88.122L82.2137 88.304C81.6071 88.3787 81.1591 88.5467 80.8697 88.808C80.5897 89.06 80.4497 89.424 80.4497 89.9ZM87.3986 92L89.2046 80.59H90.4926L88.6866 92H87.3986ZM94.0486 92.182C92.966 92.182 92.1026 91.846 91.4586 91.174C90.824 90.502 90.5066 89.606 90.5066 88.486C90.5066 87.1327 90.88 86.0267 91.6266 85.168C92.3826 84.3093 93.3766 83.88 94.6086 83.88C95.2526 83.88 95.808 84.0107 96.2746 84.272C96.7506 84.5333 97.1146 84.916 97.3666 85.42C97.5626 85.812 97.6933 86.246 97.7586 86.722C97.824 87.1887 97.8286 87.7067 97.7726 88.276H91.8086C91.7806 89.1813 91.9673 89.8813 92.3686 90.376C92.7793 90.8613 93.372 91.104 94.1466 91.104C94.7253 91.104 95.2106 90.9687 95.6026 90.698C95.9946 90.418 96.326 89.9793 96.5966 89.382L97.6606 89.774C97.334 90.5767 96.8673 91.1787 96.2606 91.58C95.6633 91.9813 94.926 92.182 94.0486 92.182ZM96.2746 85.896C96.144 85.5973 95.9246 85.364 95.6166 85.196C95.318 85.028 94.968 84.944 94.5666 84.944C93.8666 84.944 93.288 85.154 92.8306 85.574C92.3733 85.994 92.0653 86.596 91.9066 87.38H96.5406C96.55 87.0907 96.5313 86.8247 96.4846 86.582C96.4473 86.3393 96.3773 86.1107 96.2746 85.896ZM98.2891 92L99.5491 84.048H100.795L100.529 85.742H100.571C100.898 85.1353 101.313 84.6733 101.817 84.356C102.321 84.0387 102.886 83.88 103.511 83.88C104.435 83.88 105.102 84.1833 105.513 84.79C105.933 85.3873 106.059 86.232 105.891 87.324L105.149 92H103.875L104.589 87.506C104.729 86.638 104.664 85.9987 104.393 85.588C104.132 85.168 103.66 84.958 102.979 84.958C102.242 84.958 101.635 85.2287 101.159 85.77C100.683 86.302 100.361 87.0813 100.193 88.108L99.5771 92H98.2891ZM110.352 91.076C110.501 91.076 110.65 91.0667 110.8 91.048C110.949 91.0293 111.108 90.9967 111.276 90.95L111.136 91.986C110.93 92.0513 110.73 92.098 110.534 92.126C110.338 92.154 110.114 92.168 109.862 92.168C109.04 92.168 108.457 91.9533 108.112 91.524C107.776 91.0853 107.678 90.4367 107.818 89.578L108.518 85.056H106.88L107.034 84.048H108.7L108.952 82.368L110.324 81.738L109.96 84.048H112.396L112.242 85.056H109.792L109.134 89.298C109.022 89.9793 109.05 90.446 109.218 90.698C109.395 90.95 109.773 91.076 110.352 91.076ZM116.832 92L118.554 81.164H119.884L119.156 85.742H125.162L125.89 81.164H127.206L125.498 92H124.168L124.98 86.89H118.974L118.162 92H116.832ZM130.175 92.168C129.26 92.168 128.588 91.888 128.159 91.328C127.739 90.7587 127.608 89.956 127.767 88.92L128.537 84.048H129.811L129.083 88.724C128.961 89.5267 129.041 90.124 129.321 90.516C129.601 90.908 130.086 91.104 130.777 91.104C131.486 91.104 132.069 90.838 132.527 90.306C132.984 89.7647 133.292 88.976 133.451 87.94L134.067 84.048H135.341L134.095 92H132.849L133.115 90.306H133.073C132.727 90.922 132.312 91.3887 131.827 91.706C131.341 92.014 130.791 92.168 130.175 92.168ZM141.006 83.88C141.874 83.88 142.574 84.216 143.106 84.888C143.648 85.5507 143.918 86.4233 143.918 87.506C143.918 88.8967 143.573 90.026 142.882 90.894C142.201 91.7527 141.319 92.182 140.236 92.182C139.527 92.182 138.934 91.9907 138.458 91.608C137.992 91.216 137.674 90.6607 137.506 89.942H137.464L137.128 92H135.882L137.688 80.59H138.976L138.164 85.7H138.206C138.542 85.1027 138.944 84.65 139.41 84.342C139.886 84.034 140.418 83.88 141.006 83.88ZM142.588 87.548C142.588 86.7267 142.402 86.092 142.028 85.644C141.664 85.196 141.151 84.972 140.488 84.972C139.667 84.972 139.004 85.322 138.5 86.022C137.996 86.722 137.744 87.604 137.744 88.668C137.744 89.4147 137.945 90.0027 138.346 90.432C138.757 90.8613 139.312 91.076 140.012 91.076C140.787 91.076 141.408 90.754 141.874 90.11C142.35 89.4567 142.588 88.6027 142.588 87.548Z" fill="#E85324"/>
<path d="M45.6253 106.388C45.6253 105.712 45.3999 105.183 44.9493 104.802C44.5159 104.403 43.9179 104.204 43.1553 104.204C42.2366 104.204 41.4826 104.481 40.8933 105.036C40.3213 105.591 39.9226 106.405 39.6973 107.48L35.7453 106.596C36.2653 104.707 37.2186 103.233 38.6053 102.176C39.9919 101.119 41.6819 100.59 43.6753 100.59C45.5646 100.59 47.0899 101.058 48.2513 101.994C49.4126 102.913 49.9933 104.126 49.9933 105.634C49.9933 106.847 49.6293 107.896 48.9013 108.78C48.1733 109.647 47.1506 110.245 45.8333 110.574V110.626C46.9946 110.938 47.8699 111.475 48.4593 112.238C49.0659 113.001 49.3693 113.971 49.3693 115.15C49.3693 117.022 48.6673 118.53 47.2633 119.674C45.8766 120.801 44.0219 121.364 41.6993 121.364C39.2899 121.364 37.3919 120.783 36.0053 119.622C34.6359 118.461 33.8646 116.805 33.6913 114.656L38.0593 113.85C38.1113 115.115 38.4493 116.069 39.0733 116.71C39.6973 117.351 40.5899 117.672 41.7513 117.672C42.8086 117.672 43.6233 117.421 44.1953 116.918C44.7846 116.398 45.0793 115.696 45.0793 114.812C45.0793 113.963 44.7933 113.347 44.2213 112.966C43.6666 112.567 42.7653 112.368 41.5173 112.368H39.2033L39.7753 108.91H42.0373C43.2679 108.91 44.1693 108.711 44.7413 108.312C45.3306 107.896 45.6253 107.255 45.6253 106.388ZM53.8403 121L56.2063 106.05H60.4443L60.0543 108.39H60.1323C60.6869 107.523 61.3456 106.865 62.1083 106.414C62.8883 105.963 63.7463 105.738 64.6823 105.738C65.8089 105.738 66.7103 106.041 67.3863 106.648C68.0623 107.255 68.4869 108.147 68.6603 109.326H68.7383C69.3449 108.165 70.1163 107.281 71.0523 106.674C71.9883 106.05 73.0196 105.738 74.1463 105.738C75.8103 105.738 76.9976 106.345 77.7083 107.558C78.4363 108.771 78.6269 110.496 78.2803 112.732L76.9803 121H72.6643L73.9123 113.148C74.1376 111.813 74.0856 110.817 73.7563 110.158C73.4269 109.499 72.8203 109.17 71.9363 109.17C71.0869 109.17 70.4023 109.499 69.8823 110.158C69.3796 110.817 69.0243 111.822 68.8163 113.174L67.5683 121H63.2523L64.5003 113.148C64.7256 111.813 64.6736 110.817 64.3443 110.158C64.0149 109.499 63.4083 109.17 62.5243 109.17C61.6749 109.17 60.9903 109.499 60.4703 110.158C59.9676 110.817 59.6123 111.822 59.4043 113.174L58.1563 121H53.8403ZM91.8728 121.286C90.7461 121.286 89.8794 121.061 89.2728 120.61C88.6834 120.159 88.3801 119.509 88.3628 118.66H88.2848C87.7128 119.544 87.0021 120.22 86.1528 120.688C85.3208 121.139 84.3761 121.364 83.3188 121.364C81.9494 121.364 80.8661 121 80.0688 120.272C79.2888 119.544 78.8988 118.547 78.8988 117.282C78.8988 116.346 79.1154 115.531 79.5488 114.838C79.9821 114.145 80.6148 113.607 81.4468 113.226C81.8454 113.035 82.3048 112.888 82.8248 112.784C83.3621 112.68 84.0901 112.585 85.0088 112.498L87.4788 112.29C88.2414 112.221 88.7874 112.065 89.1168 111.822C89.4634 111.562 89.6368 111.163 89.6368 110.626C89.6368 110.141 89.4548 109.768 89.0908 109.508C88.7441 109.231 88.2501 109.092 87.6088 109.092C86.7768 109.092 86.1268 109.291 85.6588 109.69C85.2081 110.071 84.8961 110.678 84.7228 111.51L80.7448 110.912C81.2128 109.213 82.0361 107.922 83.2148 107.038C84.4108 106.154 85.9101 105.712 87.7128 105.712C89.8968 105.712 91.5088 106.241 92.5488 107.298C93.5888 108.338 93.9528 109.811 93.6408 111.718L92.8348 116.658C92.7308 117.265 92.7481 117.672 92.8868 117.88C93.0428 118.088 93.3894 118.192 93.9268 118.192C94.0654 118.192 94.1868 118.192 94.2908 118.192C94.4121 118.175 94.5681 118.149 94.7588 118.114L94.2908 120.922C94.0308 121.026 93.6754 121.113 93.2248 121.182C92.7741 121.251 92.3234 121.286 91.8728 121.286ZM83.3708 116.684C83.3708 117.239 83.5441 117.663 83.8908 117.958C84.2548 118.253 84.7574 118.4 85.3988 118.4C86.3174 118.4 87.0888 118.053 87.7128 117.36C88.3541 116.667 88.7874 115.696 89.0128 114.448L89.0648 114.162C88.9088 114.214 88.7441 114.266 88.5708 114.318C88.3974 114.353 88.2068 114.379 87.9988 114.396L85.7628 114.656C84.9481 114.743 84.3414 114.959 83.9428 115.306C83.5614 115.635 83.3708 116.095 83.3708 116.684ZM103.226 117.958C103.503 117.958 103.746 117.958 103.954 117.958C104.179 117.941 104.439 117.915 104.734 117.88L104.266 120.87C103.815 121.026 103.338 121.139 102.836 121.208C102.333 121.295 101.787 121.338 101.198 121.338C99.4123 121.338 98.1816 120.887 97.5056 119.986C96.8296 119.067 96.6476 117.62 96.9596 115.644L97.9736 109.222H95.0616L95.5556 106.05H98.5456L98.9876 103.294L103.486 101.682L102.784 106.05H106.58L106.086 109.222H102.29L101.38 115.02C101.189 116.251 101.206 117.048 101.432 117.412C101.674 117.776 102.272 117.958 103.226 117.958ZM114.056 109.326C112.947 109.326 112.054 109.794 111.378 110.73C110.702 111.649 110.364 112.862 110.364 114.37C110.364 115.427 110.616 116.259 111.118 116.866C111.621 117.455 112.323 117.75 113.224 117.75C113.987 117.75 114.628 117.525 115.148 117.074C115.686 116.623 116.067 115.965 116.292 115.098L120.556 115.878C120.019 117.681 119.118 119.05 117.852 119.986C116.587 120.905 114.984 121.364 113.042 121.364C110.841 121.364 109.108 120.749 107.842 119.518C106.577 118.287 105.944 116.597 105.944 114.448C105.944 111.9 106.707 109.811 108.232 108.182C109.775 106.535 111.742 105.712 114.134 105.712C116.041 105.712 117.584 106.223 118.762 107.246C119.958 108.269 120.721 109.751 121.05 111.692L116.708 112.316C116.604 111.311 116.327 110.565 115.876 110.08C115.443 109.577 114.836 109.326 114.056 109.326ZM121.027 121L124.381 99.81H128.723L127.319 108.39H127.423C127.995 107.506 128.68 106.847 129.477 106.414C130.274 105.963 131.184 105.738 132.207 105.738C133.958 105.738 135.214 106.345 135.977 107.558C136.74 108.771 136.948 110.496 136.601 112.732L135.301 121H130.985L132.233 113.148C132.441 111.796 132.363 110.799 131.999 110.158C131.652 109.499 131.002 109.17 130.049 109.17C129.078 109.17 128.316 109.499 127.761 110.158C127.206 110.799 126.816 111.805 126.591 113.174L125.343 121H121.027ZM145.102 121.364C142.866 121.364 141.107 120.74 139.824 119.492C138.541 118.244 137.9 116.563 137.9 114.448C137.9 111.848 138.663 109.742 140.188 108.13C141.713 106.518 143.724 105.712 146.22 105.712C147.572 105.712 148.733 105.981 149.704 106.518C150.675 107.038 151.42 107.809 151.94 108.832C152.304 109.543 152.547 110.383 152.668 111.354C152.807 112.307 152.824 113.356 152.72 114.5H142.19C142.173 115.609 142.441 116.459 142.996 117.048C143.551 117.637 144.365 117.932 145.44 117.932C146.255 117.932 146.939 117.75 147.494 117.386C148.049 117.022 148.491 116.459 148.82 115.696L152.486 116.814C151.879 118.305 150.952 119.44 149.704 120.22C148.456 120.983 146.922 121.364 145.102 121.364ZM148.326 110.34C148.135 109.907 147.849 109.586 147.468 109.378C147.087 109.17 146.601 109.066 146.012 109.066C145.093 109.066 144.348 109.3 143.776 109.768C143.221 110.219 142.814 110.921 142.554 111.874H148.638C148.621 111.527 148.586 111.233 148.534 110.99C148.482 110.747 148.413 110.531 148.326 110.34ZM160.053 118.27C160.815 118.27 161.396 118.14 161.795 117.88C162.211 117.603 162.419 117.221 162.419 116.736C162.419 116.337 162.237 116.043 161.873 115.852C161.526 115.661 160.859 115.497 159.871 115.358C158.709 115.185 157.739 114.968 156.959 114.708C156.179 114.448 155.624 114.153 155.295 113.824C154.913 113.443 154.627 113.018 154.437 112.55C154.263 112.065 154.177 111.51 154.177 110.886C154.177 109.326 154.757 108.078 155.919 107.142C157.097 106.206 158.649 105.738 160.573 105.738C162.427 105.738 163.901 106.128 164.993 106.908C166.085 107.688 166.769 108.849 167.047 110.392L163.303 110.912C163.199 110.201 162.921 109.681 162.471 109.352C162.037 109.005 161.396 108.832 160.547 108.832C159.853 108.832 159.299 108.971 158.883 109.248C158.484 109.525 158.285 109.915 158.285 110.418C158.285 110.747 158.371 111.016 158.545 111.224C158.718 111.415 159.021 111.562 159.455 111.666C159.663 111.718 159.983 111.787 160.417 111.874C160.867 111.943 161.179 111.995 161.353 112.03C161.353 112.03 161.647 112.091 162.237 112.212C162.843 112.316 163.303 112.42 163.615 112.524C164.048 112.645 164.421 112.793 164.733 112.966C165.062 113.139 165.348 113.347 165.591 113.59C165.92 113.919 166.154 114.301 166.293 114.734C166.449 115.167 166.527 115.696 166.527 116.32C166.527 117.863 165.929 119.093 164.733 120.012C163.537 120.913 161.916 121.364 159.871 121.364C157.825 121.364 156.196 120.965 154.983 120.168C153.769 119.353 153.007 118.166 152.695 116.606L156.777 115.878C156.898 116.71 157.219 117.317 157.739 117.698C158.259 118.079 159.03 118.27 160.053 118.27Z" fill="#E85324"/>
<path d="M280.165 112.926C281.388 112.315 282 112.009 282 111.525C282 111.041 281.388 110.735 280.165 110.124L261.675 100.884C260.956 100.525 260.596 100.345 260.33 100.4C260.106 100.447 259.913 100.589 259.802 100.79C259.672 101.028 259.738 101.424 259.87 102.216C260.454 105.722 260.747 107.475 260.861 109.239C260.96 110.761 260.96 112.289 260.861 113.811C260.747 115.575 260.454 117.328 259.87 120.833C259.738 121.626 259.672 122.022 259.802 122.26C259.913 122.461 260.106 122.603 260.33 122.65C260.596 122.704 260.956 122.525 261.675 122.166L280.165 112.926Z" fill="#E85324"/>
<g clip-path="url(#clip0_585_650)">
<path d="M263.504 111.125C245.989 111.125 217.504 111.125 217.504 111.125" stroke="#E85324" stroke-width="2" stroke-miterlimit="16" stroke-linecap="square" stroke-dasharray="4 4"/>
</g>
<rect x="293.5" y="1.39062" width="234" height="66" rx="12.5" stroke="#FFCFD1"/>
<rect x="294" y="1.89062" width="233" height="65" rx="12" fill="#FFF1EC"/>
<path d="M343.966 37.044C343.966 38.164 343.518 39.06 342.622 39.732C341.737 40.3933 340.548 40.724 339.054 40.724C337.561 40.724 336.382 40.4147 335.518 39.796C334.665 39.1773 334.238 38.3293 334.238 37.252C334.238 36.452 334.473 35.78 334.942 35.236C335.412 34.6813 336.089 34.2813 336.974 34.036V33.972C336.302 33.748 335.78 33.4067 335.406 32.948C335.033 32.4787 334.846 31.9347 334.846 31.316C334.846 30.3133 335.246 29.5027 336.046 28.884C336.846 28.2547 337.87 27.94 339.118 27.94C340.388 27.94 341.406 28.2333 342.174 28.82C342.953 29.4067 343.342 30.196 343.342 31.188C343.342 31.8173 343.156 32.3773 342.782 32.868C342.409 33.348 341.886 33.7107 341.214 33.956V34.004C342.1 34.2387 342.777 34.6173 343.246 35.14C343.726 35.652 343.966 36.2867 343.966 37.044ZM341.342 31.508C341.342 30.932 341.14 30.4787 340.734 30.148C340.329 29.8173 339.79 29.652 339.118 29.652C338.425 29.652 337.87 29.8227 337.454 30.164C337.049 30.5053 336.846 30.9747 336.846 31.572C336.846 32.1693 337.049 32.6387 337.454 32.98C337.86 33.3107 338.414 33.476 339.118 33.476C339.801 33.476 340.34 33.3 340.734 32.948C341.14 32.596 341.342 32.116 341.342 31.508ZM336.318 36.852C336.318 37.524 336.564 38.0467 337.054 38.42C337.556 38.7827 338.254 38.964 339.15 38.964C339.993 38.964 340.654 38.7667 341.134 38.372C341.625 37.9667 341.87 37.4227 341.87 36.74C341.87 36.1 341.625 35.5933 341.134 35.22C340.644 34.8467 339.982 34.66 339.15 34.66C338.286 34.66 337.598 34.8573 337.086 35.252C336.574 35.6467 336.318 36.18 336.318 36.852ZM350.065 40.724C348.444 40.724 347.196 40.18 346.321 39.092C345.457 37.9933 345.025 36.4093 345.025 34.34C345.025 32.3347 345.484 30.7613 346.401 29.62C347.329 28.4787 348.582 27.908 350.161 27.908C351.718 27.908 352.94 28.4787 353.825 29.62C354.71 30.7507 355.153 32.3187 355.153 34.324C355.153 36.3293 354.7 37.8973 353.793 39.028C352.886 40.1587 351.644 40.724 350.065 40.724ZM350.081 38.868C351.041 38.868 351.766 38.4947 352.257 37.748C352.748 36.9907 352.993 35.8707 352.993 34.388C352.993 32.8733 352.748 31.7213 352.257 30.932C351.777 30.1427 351.073 29.748 350.145 29.748C349.185 29.748 348.449 30.1427 347.937 30.932C347.425 31.7213 347.169 32.8733 347.169 34.388C347.169 35.8493 347.414 36.964 347.905 37.732C348.406 38.4893 349.132 38.868 350.081 38.868ZM359.528 34.324C358.685 34.324 358.002 34.0467 357.48 33.492C356.957 32.9267 356.696 32.1693 356.696 31.22C356.696 30.2387 356.957 29.4547 357.48 28.868C358.013 28.2707 358.701 27.972 359.544 27.972C360.376 27.972 361.058 28.2653 361.592 28.852C362.125 29.4387 362.392 30.2173 362.392 31.188C362.392 32.116 362.12 32.8733 361.576 33.46C361.042 34.036 360.36 34.324 359.528 34.324ZM366.76 28.116H368.536L359.592 40.5H357.752L366.76 28.116ZM359.544 29.236C359.117 29.236 358.781 29.4067 358.536 29.748C358.29 30.0893 358.168 30.5693 358.168 31.188C358.168 31.764 358.29 32.2227 358.536 32.564C358.781 32.8947 359.112 33.06 359.528 33.06C359.965 33.06 360.301 32.9 360.536 32.58C360.77 32.2493 360.888 31.7853 360.888 31.188C360.888 30.5693 360.77 30.0893 360.536 29.748C360.301 29.4067 359.97 29.236 359.544 29.236ZM366.888 40.628C366.034 40.628 365.346 40.3507 364.824 39.796C364.312 39.2413 364.056 38.4893 364.056 37.54C364.056 36.5587 364.317 35.7747 364.84 35.188C365.373 34.5907 366.061 34.292 366.904 34.292C367.746 34.292 368.429 34.5853 368.952 35.172C369.485 35.7587 369.752 36.5373 369.752 37.508C369.752 38.436 369.48 39.188 368.936 39.764C368.402 40.34 367.72 40.628 366.888 40.628ZM366.888 39.364C367.325 39.364 367.661 39.204 367.896 38.884C368.13 38.5533 368.248 38.0947 368.248 37.508C368.248 36.8893 368.13 36.4093 367.896 36.068C367.661 35.7267 367.33 35.556 366.904 35.556C366.477 35.556 366.141 35.732 365.896 36.084C365.65 36.4253 365.528 36.9 365.528 37.508C365.528 38.084 365.65 38.5373 365.896 38.868C366.141 39.1987 366.472 39.364 366.888 39.364ZM378.091 32.884C377.355 32.884 376.774 33.156 376.347 33.7C375.92 34.2333 375.707 34.9747 375.707 35.924C375.707 36.8733 375.92 37.6253 376.347 38.18C376.774 38.724 377.36 38.996 378.107 38.996C378.694 38.996 379.168 38.8413 379.531 38.532C379.904 38.212 380.187 37.7213 380.379 37.06L382.299 37.476C382.064 38.4893 381.574 39.284 380.827 39.86C380.091 40.4253 379.174 40.708 378.075 40.708C376.678 40.708 375.584 40.292 374.795 39.46C374.016 38.628 373.627 37.4653 373.627 35.972C373.627 34.5427 374.043 33.3853 374.875 32.5C375.707 31.604 376.784 31.156 378.107 31.156C379.206 31.156 380.107 31.46 380.811 32.068C381.515 32.6653 381.995 33.5347 382.251 34.676L380.251 35.028C380.112 34.324 379.856 33.7907 379.483 33.428C379.12 33.0653 378.656 32.884 378.091 32.884ZM387.298 40.708C385.932 40.708 384.85 40.2867 384.05 39.444C383.26 38.6013 382.866 37.4387 382.866 35.956C382.876 34.4947 383.287 33.332 384.098 32.468C384.919 31.5933 386.002 31.156 387.346 31.156C388.69 31.156 389.762 31.5827 390.562 32.436C391.362 33.2787 391.762 34.4307 391.762 35.892C391.762 37.396 391.362 38.5747 390.562 39.428C389.762 40.2813 388.674 40.708 387.298 40.708ZM387.33 39.012C388.098 39.012 388.679 38.7507 389.074 38.228C389.479 37.7053 389.682 36.9427 389.682 35.94C389.682 34.9587 389.474 34.2013 389.058 33.668C388.652 33.124 388.076 32.852 387.33 32.852C386.562 32.852 385.97 33.1187 385.554 33.652C385.148 34.1747 384.946 34.932 384.946 35.924C384.946 36.9053 385.154 37.668 385.57 38.212C385.986 38.7453 386.572 39.012 387.33 39.012ZM393.008 40.5V31.364H395.008V33.252H395.04C395.349 32.58 395.76 32.068 396.272 31.716C396.784 31.3533 397.36 31.172 398 31.172C398.747 31.172 399.349 31.3747 399.808 31.78C400.267 32.1853 400.565 32.7827 400.704 33.572H400.752C401.04 32.8147 401.451 32.228 401.984 31.812C402.528 31.3853 403.147 31.172 403.84 31.172C404.768 31.172 405.477 31.4867 405.968 32.116C406.469 32.7453 406.72 33.6573 406.72 34.852V40.5H404.688V35.284C404.688 34.4413 404.555 33.8227 404.288 33.428C404.021 33.0227 403.605 32.82 403.04 32.82C402.357 32.82 401.824 33.092 401.44 33.636C401.067 34.18 400.88 34.9373 400.88 35.908V40.5H398.848V35.284C398.848 34.4413 398.715 33.8227 398.448 33.428C398.181 33.0227 397.76 32.82 397.184 32.82C396.512 32.82 395.984 33.092 395.6 33.636C395.227 34.18 395.04 34.9373 395.04 35.908V40.5H393.008ZM410.466 43.46H408.434V31.364H410.434V33.284H410.482C410.781 32.5907 411.186 32.0627 411.698 31.7C412.221 31.3373 412.829 31.156 413.522 31.156C414.642 31.156 415.527 31.588 416.178 32.452C416.839 33.3053 417.17 34.4627 417.17 35.924C417.17 37.3747 416.834 38.5373 416.162 39.412C415.49 40.276 414.599 40.708 413.49 40.708C412.797 40.708 412.199 40.5533 411.698 40.244C411.197 39.924 410.807 39.4547 410.53 38.836H410.466V43.46ZM415.09 35.924C415.09 34.9747 414.882 34.2227 414.466 33.668C414.061 33.1133 413.511 32.836 412.818 32.836C412.082 32.836 411.501 33.1133 411.074 33.668C410.658 34.212 410.45 34.9693 410.45 35.94C410.45 36.8787 410.663 37.6253 411.09 38.18C411.517 38.7347 412.093 39.012 412.818 39.012C413.533 39.012 414.087 38.74 414.482 38.196C414.887 37.652 415.09 36.8947 415.09 35.924ZM426.007 40.644C425.314 40.644 424.78 40.4893 424.407 40.18C424.034 39.86 423.831 39.3907 423.799 38.772H423.767C423.468 39.4013 423.052 39.8813 422.519 40.212C421.996 40.5427 421.378 40.708 420.663 40.708C419.81 40.708 419.132 40.484 418.631 40.036C418.13 39.5773 417.879 38.9587 417.879 38.18C417.879 37.732 417.959 37.3427 418.119 37.012C418.279 36.6707 418.524 36.3773 418.855 36.132C419.111 35.94 419.426 35.78 419.799 35.652C420.172 35.524 420.615 35.4227 421.127 35.348L422.407 35.172C422.919 35.0973 423.282 34.9747 423.495 34.804C423.719 34.6333 423.831 34.3827 423.831 34.052C423.831 33.6573 423.692 33.348 423.415 33.124C423.138 32.9 422.754 32.788 422.263 32.788C421.687 32.788 421.223 32.9373 420.871 33.236C420.53 33.524 420.29 33.972 420.151 34.58L418.263 34.244C418.53 33.252 419.01 32.4893 419.703 31.956C420.407 31.4227 421.271 31.156 422.295 31.156C423.426 31.156 424.29 31.4493 424.887 32.036C425.495 32.6227 425.799 33.4707 425.799 34.58V38.052C425.799 38.4467 425.868 38.724 426.007 38.884C426.156 39.044 426.418 39.124 426.791 39.124C426.866 39.124 426.93 39.124 426.983 39.124C427.047 39.1133 427.116 39.1027 427.191 39.092V40.484C427.074 40.5267 426.903 40.564 426.679 40.596C426.455 40.628 426.231 40.644 426.007 40.644ZM419.975 37.908C419.975 38.3347 420.103 38.6653 420.359 38.9C420.626 39.1347 420.999 39.252 421.479 39.252C422.194 39.252 422.764 38.9907 423.191 38.468C423.618 37.9347 423.831 37.2307 423.831 36.356V35.86C423.724 35.9453 423.58 36.02 423.399 36.084C423.218 36.148 422.972 36.2067 422.663 36.26L421.559 36.452C421.004 36.548 420.599 36.7133 420.343 36.948C420.098 37.172 419.975 37.492 419.975 37.908ZM432.087 39.044C432.311 39.044 432.508 39.0387 432.679 39.028C432.85 39.0067 433.01 38.9747 433.159 38.932V40.436C432.882 40.5213 432.599 40.5853 432.311 40.628C432.034 40.6707 431.73 40.692 431.399 40.692C430.428 40.692 429.714 40.4627 429.255 40.004C428.796 39.5347 428.567 38.8093 428.567 37.828V32.9H426.727V31.364H428.599V29.54L430.599 28.692V31.364H433.159V32.9H430.599V37.524C430.599 38.0893 430.706 38.484 430.919 38.708C431.143 38.932 431.532 39.044 432.087 39.044ZM436.356 29.524H434.196V27.46H436.356V29.524ZM434.244 40.5V31.364H436.292V40.5H434.244ZM443.196 31.156C444.316 31.156 445.201 31.588 445.852 32.452C446.513 33.3053 446.844 34.4627 446.844 35.924C446.844 37.3747 446.508 38.5373 445.836 39.412C445.164 40.276 444.273 40.708 443.164 40.708C442.449 40.708 441.836 40.5427 441.324 40.212C440.823 39.8813 440.433 39.396 440.156 38.756H440.108V40.5H438.108V27.46H440.14V33.188H440.204C440.492 32.5267 440.892 32.0253 441.404 31.684C441.916 31.332 442.513 31.156 443.196 31.156ZM444.764 35.924C444.764 34.9747 444.556 34.2227 444.14 33.668C443.735 33.1133 443.185 32.836 442.492 32.836C441.756 32.836 441.175 33.1133 440.748 33.668C440.332 34.212 440.124 34.9693 440.124 35.94C440.124 36.8787 440.337 37.6253 440.764 38.18C441.191 38.7347 441.767 39.012 442.492 39.012C443.207 39.012 443.761 38.74 444.156 38.196C444.561 37.652 444.764 36.8947 444.764 35.924ZM450.225 29.524H448.065V27.46H450.225V29.524ZM448.113 40.5V31.364H450.161V40.5H448.113ZM451.976 40.5V27.46H454.008V40.5H451.976ZM457.921 29.524H455.761V27.46H457.921V29.524ZM455.809 40.5V31.364H457.857V40.5H455.809ZM462.824 40.708C461.726 40.708 460.835 40.2813 460.152 39.428C459.47 38.564 459.128 37.4227 459.128 36.004C459.128 34.564 459.496 33.396 460.232 32.5C460.968 31.604 461.902 31.156 463.032 31.156C463.662 31.156 464.206 31.3107 464.664 31.62C465.134 31.9293 465.502 32.3827 465.768 32.98H465.832V27.46H467.864V40.5H465.864V38.676H465.816C465.518 39.3373 465.112 39.844 464.6 40.196C464.099 40.5373 463.507 40.708 462.824 40.708ZM461.208 35.972C461.208 36.9213 461.411 37.668 461.816 38.212C462.232 38.7453 462.798 39.012 463.512 39.012C464.248 39.012 464.819 38.74 465.224 38.196C465.64 37.652 465.848 36.9 465.848 35.94C465.848 34.98 465.64 34.2227 465.224 33.668C464.819 33.1133 464.264 32.836 463.56 32.836C462.824 32.836 462.248 33.1133 461.832 33.668C461.416 34.2227 461.208 34.9907 461.208 35.972ZM477.245 40.644C476.552 40.644 476.018 40.4893 475.645 40.18C475.272 39.86 475.069 39.3907 475.037 38.772H475.005C474.706 39.4013 474.29 39.8813 473.757 40.212C473.234 40.5427 472.616 40.708 471.901 40.708C471.048 40.708 470.37 40.484 469.869 40.036C469.368 39.5773 469.117 38.9587 469.117 38.18C469.117 37.732 469.197 37.3427 469.357 37.012C469.517 36.6707 469.762 36.3773 470.093 36.132C470.349 35.94 470.664 35.78 471.037 35.652C471.41 35.524 471.853 35.4227 472.365 35.348L473.645 35.172C474.157 35.0973 474.52 34.9747 474.733 34.804C474.957 34.6333 475.069 34.3827 475.069 34.052C475.069 33.6573 474.93 33.348 474.653 33.124C474.376 32.9 473.992 32.788 473.501 32.788C472.925 32.788 472.461 32.9373 472.109 33.236C471.768 33.524 471.528 33.972 471.389 34.58L469.501 34.244C469.768 33.252 470.248 32.4893 470.941 31.956C471.645 31.4227 472.509 31.156 473.533 31.156C474.664 31.156 475.528 31.4493 476.125 32.036C476.733 32.6227 477.037 33.4707 477.037 34.58V38.052C477.037 38.4467 477.106 38.724 477.245 38.884C477.394 39.044 477.656 39.124 478.029 39.124C478.104 39.124 478.168 39.124 478.221 39.124C478.285 39.1133 478.354 39.1027 478.429 39.092V40.484C478.312 40.5267 478.141 40.564 477.917 40.596C477.693 40.628 477.469 40.644 477.245 40.644ZM471.213 37.908C471.213 38.3347 471.341 38.6653 471.597 38.9C471.864 39.1347 472.237 39.252 472.717 39.252C473.432 39.252 474.002 38.9907 474.429 38.468C474.856 37.9347 475.069 37.2307 475.069 36.356V35.86C474.962 35.9453 474.818 36.02 474.637 36.084C474.456 36.148 474.21 36.2067 473.901 36.26L472.797 36.452C472.242 36.548 471.837 36.7133 471.581 36.948C471.336 37.172 471.213 37.492 471.213 37.908ZM482.333 40.708C481.234 40.708 480.344 40.2813 479.661 39.428C478.978 38.564 478.637 37.4227 478.637 36.004C478.637 34.564 479.005 33.396 479.741 32.5C480.477 31.604 481.41 31.156 482.541 31.156C483.17 31.156 483.714 31.3107 484.173 31.62C484.642 31.9293 485.01 32.3827 485.277 32.98H485.341V27.46H487.373V40.5H485.373V38.676H485.325C485.026 39.3373 484.621 39.844 484.109 40.196C483.608 40.5373 483.016 40.708 482.333 40.708ZM480.717 35.972C480.717 36.9213 480.92 37.668 481.325 38.212C481.741 38.7453 482.306 39.012 483.021 39.012C483.757 39.012 484.328 38.74 484.733 38.196C485.149 37.652 485.357 36.9 485.357 35.94C485.357 34.98 485.149 34.2227 484.733 33.668C484.328 33.1133 483.773 32.836 483.069 32.836C482.333 32.836 481.757 33.1133 481.341 33.668C480.925 34.2227 480.717 34.9907 480.717 35.972Z" fill="#E85324"/>
<rect x="294" y="78.8906" width="233" height="65" rx="12" fill="#E85324"/>
<path d="M330.41 108.188V106.668H332.298C332.789 106.668 333.109 106.609 333.258 106.492C333.408 106.364 333.493 106.081 333.514 105.644L333.546 105.116H335.226V117.5H333.114V108.188H330.41ZM342.094 117.724C340.473 117.724 339.225 117.18 338.35 116.092C337.486 114.993 337.054 113.409 337.054 111.34C337.054 109.335 337.513 107.761 338.43 106.62C339.358 105.479 340.611 104.908 342.19 104.908C343.747 104.908 344.969 105.479 345.854 106.62C346.739 107.751 347.182 109.319 347.182 111.324C347.182 113.329 346.729 114.897 345.822 116.028C344.915 117.159 343.673 117.724 342.094 117.724ZM342.11 115.868C343.07 115.868 343.795 115.495 344.286 114.748C344.777 113.991 345.022 112.871 345.022 111.388C345.022 109.873 344.777 108.721 344.286 107.932C343.806 107.143 343.102 106.748 342.174 106.748C341.214 106.748 340.478 107.143 339.966 107.932C339.454 108.721 339.198 109.873 339.198 111.388C339.198 112.849 339.443 113.964 339.934 114.732C340.435 115.489 341.161 115.868 342.11 115.868ZM353.333 117.724C351.711 117.724 350.463 117.18 349.589 116.092C348.725 114.993 348.293 113.409 348.293 111.34C348.293 109.335 348.751 107.761 349.669 106.62C350.597 105.479 351.85 104.908 353.429 104.908C354.986 104.908 356.207 105.479 357.093 106.62C357.978 107.751 358.421 109.319 358.421 111.324C358.421 113.329 357.967 114.897 357.061 116.028C356.154 117.159 354.911 117.724 353.333 117.724ZM353.349 115.868C354.309 115.868 355.034 115.495 355.525 114.748C356.015 113.991 356.261 112.871 356.261 111.388C356.261 109.873 356.015 108.721 355.525 107.932C355.045 107.143 354.341 106.748 353.413 106.748C352.453 106.748 351.717 107.143 351.205 107.932C350.693 108.721 350.437 109.873 350.437 111.388C350.437 112.849 350.682 113.964 351.173 114.732C351.674 115.489 352.399 115.868 353.349 115.868ZM362.796 111.324C361.953 111.324 361.27 111.047 360.748 110.492C360.225 109.927 359.964 109.169 359.964 108.22C359.964 107.239 360.225 106.455 360.748 105.868C361.281 105.271 361.969 104.972 362.812 104.972C363.644 104.972 364.326 105.265 364.86 105.852C365.393 106.439 365.66 107.217 365.66 108.188C365.66 109.116 365.388 109.873 364.844 110.46C364.31 111.036 363.628 111.324 362.796 111.324ZM370.028 105.116H371.804L362.86 117.5H361.02L370.028 105.116ZM362.812 106.236C362.385 106.236 362.049 106.407 361.804 106.748C361.558 107.089 361.436 107.569 361.436 108.188C361.436 108.764 361.558 109.223 361.804 109.564C362.049 109.895 362.38 110.06 362.796 110.06C363.233 110.06 363.569 109.9 363.804 109.58C364.038 109.249 364.156 108.785 364.156 108.188C364.156 107.569 364.038 107.089 363.804 106.748C363.569 106.407 363.238 106.236 362.812 106.236ZM370.156 117.628C369.302 117.628 368.614 117.351 368.092 116.796C367.58 116.241 367.324 115.489 367.324 114.54C367.324 113.559 367.585 112.775 368.108 112.188C368.641 111.591 369.329 111.292 370.172 111.292C371.014 111.292 371.697 111.585 372.22 112.172C372.753 112.759 373.02 113.537 373.02 114.508C373.02 115.436 372.748 116.188 372.204 116.764C371.67 117.34 370.988 117.628 370.156 117.628ZM370.156 116.364C370.593 116.364 370.929 116.204 371.164 115.884C371.398 115.553 371.516 115.095 371.516 114.508C371.516 113.889 371.398 113.409 371.164 113.068C370.929 112.727 370.598 112.556 370.172 112.556C369.745 112.556 369.409 112.732 369.164 113.084C368.918 113.425 368.796 113.9 368.796 114.508C368.796 115.084 368.918 115.537 369.164 115.868C369.409 116.199 369.74 116.364 370.156 116.364ZM381.359 109.884C380.623 109.884 380.041 110.156 379.615 110.7C379.188 111.233 378.975 111.975 378.975 112.924C378.975 113.873 379.188 114.625 379.615 115.18C380.041 115.724 380.628 115.996 381.375 115.996C381.961 115.996 382.436 115.841 382.799 115.532C383.172 115.212 383.455 114.721 383.647 114.06L385.567 114.476C385.332 115.489 384.841 116.284 384.095 116.86C383.359 117.425 382.441 117.708 381.343 117.708C379.945 117.708 378.852 117.292 378.063 116.46C377.284 115.628 376.895 114.465 376.895 112.972C376.895 111.543 377.311 110.385 378.143 109.5C378.975 108.604 380.052 108.156 381.375 108.156C382.473 108.156 383.375 108.46 384.079 109.068C384.783 109.665 385.263 110.535 385.519 111.676L383.519 112.028C383.38 111.324 383.124 110.791 382.751 110.428C382.388 110.065 381.924 109.884 381.359 109.884ZM390.566 117.708C389.2 117.708 388.118 117.287 387.318 116.444C386.528 115.601 386.134 114.439 386.134 112.956C386.144 111.495 386.555 110.332 387.366 109.468C388.187 108.593 389.27 108.156 390.614 108.156C391.958 108.156 393.03 108.583 393.83 109.436C394.63 110.279 395.03 111.431 395.03 112.892C395.03 114.396 394.63 115.575 393.83 116.428C393.03 117.281 391.942 117.708 390.566 117.708ZM390.598 116.012C391.366 116.012 391.947 115.751 392.342 115.228C392.747 114.705 392.95 113.943 392.95 112.94C392.95 111.959 392.742 111.201 392.326 110.668C391.92 110.124 391.344 109.852 390.598 109.852C389.83 109.852 389.238 110.119 388.822 110.652C388.416 111.175 388.214 111.932 388.214 112.924C388.214 113.905 388.422 114.668 388.838 115.212C389.254 115.745 389.84 116.012 390.598 116.012ZM396.276 117.5V108.364H398.276V110.252H398.308C398.617 109.58 399.028 109.068 399.54 108.716C400.052 108.353 400.628 108.172 401.268 108.172C402.014 108.172 402.617 108.375 403.076 108.78C403.534 109.185 403.833 109.783 403.972 110.572H404.02C404.308 109.815 404.718 109.228 405.252 108.812C405.796 108.385 406.414 108.172 407.108 108.172C408.036 108.172 408.745 108.487 409.236 109.116C409.737 109.745 409.988 110.657 409.988 111.852V117.5H407.956V112.284C407.956 111.441 407.822 110.823 407.556 110.428C407.289 110.023 406.873 109.82 406.308 109.82C405.625 109.82 405.092 110.092 404.708 110.636C404.334 111.18 404.148 111.937 404.148 112.908V117.5H402.116V112.284C402.116 111.441 401.982 110.823 401.716 110.428C401.449 110.023 401.028 109.82 400.452 109.82C399.78 109.82 399.252 110.092 398.868 110.636C398.494 111.18 398.308 111.937 398.308 112.908V117.5H396.276ZM413.734 120.46H411.702V108.364H413.702V110.284H413.75C414.049 109.591 414.454 109.063 414.966 108.7C415.489 108.337 416.097 108.156 416.79 108.156C417.91 108.156 418.795 108.588 419.446 109.452C420.107 110.305 420.438 111.463 420.438 112.924C420.438 114.375 420.102 115.537 419.43 116.412C418.758 117.276 417.867 117.708 416.758 117.708C416.065 117.708 415.467 117.553 414.966 117.244C414.465 116.924 414.075 116.455 413.798 115.836H413.734V120.46ZM418.358 112.924C418.358 111.975 418.15 111.223 417.734 110.668C417.329 110.113 416.779 109.836 416.086 109.836C415.35 109.836 414.769 110.113 414.342 110.668C413.926 111.212 413.718 111.969 413.718 112.94C413.718 113.879 413.931 114.625 414.358 115.18C414.785 115.735 415.361 116.012 416.086 116.012C416.801 116.012 417.355 115.74 417.75 115.196C418.155 114.652 418.358 113.895 418.358 112.924ZM429.275 117.644C428.581 117.644 428.048 117.489 427.675 117.18C427.301 116.86 427.099 116.391 427.067 115.772H427.035C426.736 116.401 426.32 116.881 425.787 117.212C425.264 117.543 424.645 117.708 423.931 117.708C423.077 117.708 422.4 117.484 421.899 117.036C421.397 116.577 421.147 115.959 421.147 115.18C421.147 114.732 421.227 114.343 421.387 114.012C421.547 113.671 421.792 113.377 422.123 113.132C422.379 112.94 422.693 112.78 423.067 112.652C423.44 112.524 423.883 112.423 424.395 112.348L425.675 112.172C426.187 112.097 426.549 111.975 426.763 111.804C426.987 111.633 427.099 111.383 427.099 111.052C427.099 110.657 426.96 110.348 426.683 110.124C426.405 109.9 426.021 109.788 425.531 109.788C424.955 109.788 424.491 109.937 424.139 110.236C423.797 110.524 423.557 110.972 423.419 111.58L421.531 111.244C421.797 110.252 422.277 109.489 422.971 108.956C423.675 108.423 424.539 108.156 425.563 108.156C426.693 108.156 427.557 108.449 428.155 109.036C428.763 109.623 429.067 110.471 429.067 111.58V115.052C429.067 115.447 429.136 115.724 429.275 115.884C429.424 116.044 429.685 116.124 430.059 116.124C430.133 116.124 430.197 116.124 430.251 116.124C430.315 116.113 430.384 116.103 430.459 116.092V117.484C430.341 117.527 430.171 117.564 429.947 117.596C429.723 117.628 429.499 117.644 429.275 117.644ZM423.243 114.908C423.243 115.335 423.371 115.665 423.627 115.9C423.893 116.135 424.267 116.252 424.747 116.252C425.461 116.252 426.032 115.991 426.459 115.468C426.885 114.935 427.099 114.231 427.099 113.356V112.86C426.992 112.945 426.848 113.02 426.667 113.084C426.485 113.148 426.24 113.207 425.931 113.26L424.827 113.452C424.272 113.548 423.867 113.713 423.611 113.948C423.365 114.172 423.243 114.492 423.243 114.908ZM435.355 116.044C435.579 116.044 435.776 116.039 435.947 116.028C436.117 116.007 436.277 115.975 436.427 115.932V117.436C436.149 117.521 435.867 117.585 435.579 117.628C435.301 117.671 434.997 117.692 434.667 117.692C433.696 117.692 432.981 117.463 432.523 117.004C432.064 116.535 431.835 115.809 431.835 114.828V109.9H429.995V108.364H431.867V106.54L433.867 105.692V108.364H436.427V109.9H433.867V114.524C433.867 115.089 433.973 115.484 434.187 115.708C434.411 115.932 434.8 116.044 435.355 116.044ZM439.624 106.524H437.464V104.46H439.624V106.524ZM437.512 117.5V108.364H439.56V117.5H437.512ZM446.464 108.156C447.584 108.156 448.469 108.588 449.12 109.452C449.781 110.305 450.112 111.463 450.112 112.924C450.112 114.375 449.776 115.537 449.104 116.412C448.432 117.276 447.541 117.708 446.432 117.708C445.717 117.708 445.104 117.543 444.592 117.212C444.09 116.881 443.701 116.396 443.424 115.756H443.376V117.5H441.376V104.46H443.408V110.188H443.472C443.76 109.527 444.16 109.025 444.672 108.684C445.184 108.332 445.781 108.156 446.464 108.156ZM448.032 112.924C448.032 111.975 447.824 111.223 447.408 110.668C447.002 110.113 446.453 109.836 445.76 109.836C445.024 109.836 444.442 110.113 444.016 110.668C443.6 111.212 443.392 111.969 443.392 112.94C443.392 113.879 443.605 114.625 444.032 115.18C444.458 115.735 445.034 116.012 445.76 116.012C446.474 116.012 447.029 115.74 447.424 115.196C447.829 114.652 448.032 113.895 448.032 112.924ZM453.492 106.524H451.332V104.46H453.492V106.524ZM451.38 117.5V108.364H453.428V117.5H451.38ZM455.244 117.5V104.46H457.276V117.5H455.244ZM461.189 106.524H459.029V104.46H461.189V106.524ZM459.077 117.5V108.364H461.125V117.5H459.077ZM466.092 117.708C464.993 117.708 464.103 117.281 463.42 116.428C462.737 115.564 462.396 114.423 462.396 113.004C462.396 111.564 462.764 110.396 463.5 109.5C464.236 108.604 465.169 108.156 466.3 108.156C466.929 108.156 467.473 108.311 467.932 108.62C468.401 108.929 468.769 109.383 469.036 109.98H469.1V104.46H471.132V117.5H469.132V115.676H469.084C468.785 116.337 468.38 116.844 467.868 117.196C467.367 117.537 466.775 117.708 466.092 117.708ZM464.476 112.972C464.476 113.921 464.679 114.668 465.084 115.212C465.5 115.745 466.065 116.012 466.78 116.012C467.516 116.012 468.087 115.74 468.492 115.196C468.908 114.652 469.116 113.9 469.116 112.94C469.116 111.98 468.908 111.223 468.492 110.668C468.087 110.113 467.532 109.836 466.828 109.836C466.092 109.836 465.516 110.113 465.1 110.668C464.684 111.223 464.476 111.991 464.476 112.972ZM480.513 117.644C479.819 117.644 479.286 117.489 478.913 117.18C478.539 116.86 478.337 116.391 478.305 115.772H478.273C477.974 116.401 477.558 116.881 477.025 117.212C476.502 117.543 475.883 117.708 475.169 117.708C474.315 117.708 473.638 117.484 473.137 117.036C472.635 116.577 472.385 115.959 472.385 115.18C472.385 114.732 472.465 114.343 472.625 114.012C472.785 113.671 473.03 113.377 473.361 113.132C473.617 112.94 473.931 112.78 474.305 112.652C474.678 112.524 475.121 112.423 475.633 112.348L476.913 112.172C477.425 112.097 477.787 111.975 478.001 111.804C478.225 111.633 478.337 111.383 478.337 111.052C478.337 110.657 478.198 110.348 477.921 110.124C477.643 109.9 477.259 109.788 476.769 109.788C476.193 109.788 475.729 109.937 475.377 110.236C475.035 110.524 474.795 110.972 474.657 111.58L472.769 111.244C473.035 110.252 473.515 109.489 474.209 108.956C474.913 108.423 475.777 108.156 476.801 108.156C477.931 108.156 478.795 108.449 479.393 109.036C480.001 109.623 480.305 110.471 480.305 111.58V115.052C480.305 115.447 480.374 115.724 480.513 115.884C480.662 116.044 480.923 116.124 481.297 116.124C481.371 116.124 481.435 116.124 481.489 116.124C481.553 116.113 481.622 116.103 481.697 116.092V117.484C481.579 117.527 481.409 117.564 481.185 117.596C480.961 117.628 480.737 117.644 480.513 117.644ZM474.481 114.908C474.481 115.335 474.609 115.665 474.865 115.9C475.131 116.135 475.505 116.252 475.985 116.252C476.699 116.252 477.27 115.991 477.697 115.468C478.123 114.935 478.337 114.231 478.337 113.356V112.86C478.23 112.945 478.086 113.02 477.905 113.084C477.723 113.148 477.478 113.207 477.169 113.26L476.065 113.452C475.51 113.548 475.105 113.713 474.849 113.948C474.603 114.172 474.481 114.492 474.481 114.908ZM485.601 117.708C484.502 117.708 483.611 117.281 482.929 116.428C482.246 115.564 481.905 114.423 481.905 113.004C481.905 111.564 482.273 110.396 483.009 109.5C483.745 108.604 484.678 108.156 485.809 108.156C486.438 108.156 486.982 108.311 487.441 108.62C487.91 108.929 488.278 109.383 488.545 109.98H488.609V104.46H490.641V117.5H488.641V115.676H488.593C488.294 116.337 487.889 116.844 487.377 117.196C486.875 117.537 486.283 117.708 485.601 117.708ZM483.985 112.972C483.985 113.921 484.187 114.668 484.593 115.212C485.009 115.745 485.574 116.012 486.289 116.012C487.025 116.012 487.595 115.74 488.001 115.196C488.417 114.652 488.625 113.9 488.625 112.94C488.625 111.98 488.417 111.223 488.001 110.668C487.595 110.113 487.041 109.836 486.337 109.836C485.601 109.836 485.025 110.113 484.609 110.668C484.193 111.223 483.985 111.991 483.985 112.972Z" fill="white"/>
<rect x="293.5" y="155.391" width="234" height="66" rx="12.5" stroke="#FFCFD1"/>
<rect x="294" y="155.891" width="233" height="65" rx="12" fill="#FFF1EC"/>
<path d="M339.296 181.892C340.864 181.892 342.091 182.447 342.976 183.556C343.872 184.655 344.32 186.159 344.32 188.068C344.32 190.18 343.867 191.817 342.96 192.98C342.054 194.132 340.763 194.708 339.088 194.708C338.075 194.708 337.168 194.505 336.368 194.1C335.568 193.684 334.971 193.113 334.576 192.388L336.352 191.3C336.651 191.823 337.035 192.223 337.504 192.5C337.984 192.767 338.523 192.9 339.12 192.9C340.166 192.9 340.944 192.479 341.456 191.636C341.979 190.793 342.24 189.524 342.24 187.828V187.716H342.224C341.926 188.452 341.451 189.028 340.8 189.444C340.15 189.86 339.408 190.068 338.576 190.068C337.403 190.068 336.464 189.721 335.76 189.028C335.056 188.324 334.704 187.385 334.704 186.212C334.704 184.943 335.131 183.908 335.984 183.108C336.848 182.297 337.952 181.892 339.296 181.892ZM339.36 188.628C340.043 188.628 340.624 188.393 341.104 187.924C341.595 187.455 341.84 186.863 341.84 186.148C341.84 185.412 341.611 184.825 341.152 184.388C340.704 183.94 340.086 183.716 339.296 183.716C338.56 183.716 337.958 183.945 337.488 184.404C337.03 184.863 336.8 185.455 336.8 186.18C336.8 186.948 337.024 187.551 337.472 187.988C337.931 188.415 338.56 188.628 339.36 188.628ZM350.487 194.724C348.866 194.724 347.618 194.18 346.743 193.092C345.879 191.993 345.447 190.409 345.447 188.34C345.447 186.335 345.906 184.761 346.823 183.62C347.751 182.479 349.004 181.908 350.583 181.908C352.14 181.908 353.362 182.479 354.247 183.62C355.132 184.751 355.575 186.319 355.575 188.324C355.575 190.329 355.122 191.897 354.215 193.028C353.308 194.159 352.066 194.724 350.487 194.724ZM350.503 192.868C351.463 192.868 352.188 192.495 352.679 191.748C353.17 190.991 353.415 189.871 353.415 188.388C353.415 186.873 353.17 185.721 352.679 184.932C352.199 184.143 351.495 183.748 350.567 183.748C349.607 183.748 348.871 184.143 348.359 184.932C347.847 185.721 347.591 186.873 347.591 188.388C347.591 189.849 347.836 190.964 348.327 191.732C348.828 192.489 349.554 192.868 350.503 192.868ZM359.95 188.324C359.107 188.324 358.424 188.047 357.902 187.492C357.379 186.927 357.118 186.169 357.118 185.22C357.118 184.239 357.379 183.455 357.902 182.868C358.435 182.271 359.123 181.972 359.966 181.972C360.798 181.972 361.48 182.265 362.014 182.852C362.547 183.439 362.814 184.217 362.814 185.188C362.814 186.116 362.542 186.873 361.998 187.46C361.464 188.036 360.782 188.324 359.95 188.324ZM367.182 182.116H368.958L360.014 194.5H358.174L367.182 182.116ZM359.966 183.236C359.539 183.236 359.203 183.407 358.958 183.748C358.712 184.089 358.59 184.569 358.59 185.188C358.59 185.764 358.712 186.223 358.958 186.564C359.203 186.895 359.534 187.06 359.95 187.06C360.387 187.06 360.723 186.9 360.958 186.58C361.192 186.249 361.31 185.785 361.31 185.188C361.31 184.569 361.192 184.089 360.958 183.748C360.723 183.407 360.392 183.236 359.966 183.236ZM367.31 194.628C366.456 194.628 365.768 194.351 365.246 193.796C364.734 193.241 364.478 192.489 364.478 191.54C364.478 190.559 364.739 189.775 365.262 189.188C365.795 188.591 366.483 188.292 367.326 188.292C368.168 188.292 368.851 188.585 369.374 189.172C369.907 189.759 370.174 190.537 370.174 191.508C370.174 192.436 369.902 193.188 369.358 193.764C368.824 194.34 368.142 194.628 367.31 194.628ZM367.31 193.364C367.747 193.364 368.083 193.204 368.318 192.884C368.552 192.553 368.67 192.095 368.67 191.508C368.67 190.889 368.552 190.409 368.318 190.068C368.083 189.727 367.752 189.556 367.326 189.556C366.899 189.556 366.563 189.732 366.318 190.084C366.072 190.425 365.95 190.9 365.95 191.508C365.95 192.084 366.072 192.537 366.318 192.868C366.563 193.199 366.894 193.364 367.31 193.364ZM378.513 186.884C377.777 186.884 377.196 187.156 376.769 187.7C376.342 188.233 376.129 188.975 376.129 189.924C376.129 190.873 376.342 191.625 376.769 192.18C377.196 192.724 377.782 192.996 378.529 192.996C379.116 192.996 379.59 192.841 379.953 192.532C380.326 192.212 380.609 191.721 380.801 191.06L382.721 191.476C382.486 192.489 381.996 193.284 381.249 193.86C380.513 194.425 379.596 194.708 378.497 194.708C377.1 194.708 376.006 194.292 375.217 193.46C374.438 192.628 374.049 191.465 374.049 189.972C374.049 188.543 374.465 187.385 375.297 186.5C376.129 185.604 377.206 185.156 378.529 185.156C379.628 185.156 380.529 185.46 381.233 186.068C381.937 186.665 382.417 187.535 382.673 188.676L380.673 189.028C380.534 188.324 380.278 187.791 379.905 187.428C379.542 187.065 379.078 186.884 378.513 186.884ZM387.72 194.708C386.354 194.708 385.272 194.287 384.472 193.444C383.682 192.601 383.288 191.439 383.288 189.956C383.298 188.495 383.709 187.332 384.52 186.468C385.341 185.593 386.424 185.156 387.768 185.156C389.112 185.156 390.184 185.583 390.984 186.436C391.784 187.279 392.184 188.431 392.184 189.892C392.184 191.396 391.784 192.575 390.984 193.428C390.184 194.281 389.096 194.708 387.72 194.708ZM387.752 193.012C388.52 193.012 389.101 192.751 389.496 192.228C389.901 191.705 390.104 190.943 390.104 189.94C390.104 188.959 389.896 188.201 389.48 187.668C389.074 187.124 388.498 186.852 387.752 186.852C386.984 186.852 386.392 187.119 385.976 187.652C385.57 188.175 385.368 188.932 385.368 189.924C385.368 190.905 385.576 191.668 385.992 192.212C386.408 192.745 386.994 193.012 387.752 193.012ZM393.43 194.5V185.364H395.43V187.252H395.462C395.771 186.58 396.182 186.068 396.694 185.716C397.206 185.353 397.782 185.172 398.422 185.172C399.168 185.172 399.771 185.375 400.23 185.78C400.688 186.185 400.987 186.783 401.126 187.572H401.174C401.462 186.815 401.872 186.228 402.406 185.812C402.95 185.385 403.568 185.172 404.262 185.172C405.19 185.172 405.899 185.487 406.39 186.116C406.891 186.745 407.142 187.657 407.142 188.852V194.5H405.11V189.284C405.11 188.441 404.976 187.823 404.71 187.428C404.443 187.023 404.027 186.82 403.462 186.82C402.779 186.82 402.246 187.092 401.862 187.636C401.488 188.18 401.302 188.937 401.302 189.908V194.5H399.27V189.284C399.27 188.441 399.136 187.823 398.87 187.428C398.603 187.023 398.182 186.82 397.606 186.82C396.934 186.82 396.406 187.092 396.022 187.636C395.648 188.18 395.462 188.937 395.462 189.908V194.5H393.43ZM410.888 197.46H408.856V185.364H410.856V187.284H410.904C411.203 186.591 411.608 186.063 412.12 185.7C412.643 185.337 413.251 185.156 413.944 185.156C415.064 185.156 415.949 185.588 416.6 186.452C417.261 187.305 417.592 188.463 417.592 189.924C417.592 191.375 417.256 192.537 416.584 193.412C415.912 194.276 415.021 194.708 413.912 194.708C413.219 194.708 412.621 194.553 412.12 194.244C411.619 193.924 411.229 193.455 410.952 192.836H410.888V197.46ZM415.512 189.924C415.512 188.975 415.304 188.223 414.888 187.668C414.483 187.113 413.933 186.836 413.24 186.836C412.504 186.836 411.923 187.113 411.496 187.668C411.08 188.212 410.872 188.969 410.872 189.94C410.872 190.879 411.085 191.625 411.512 192.18C411.939 192.735 412.515 193.012 413.24 193.012C413.955 193.012 414.509 192.74 414.904 192.196C415.309 191.652 415.512 190.895 415.512 189.924ZM426.429 194.644C425.735 194.644 425.202 194.489 424.829 194.18C424.455 193.86 424.253 193.391 424.221 192.772H424.189C423.89 193.401 423.474 193.881 422.941 194.212C422.418 194.543 421.799 194.708 421.085 194.708C420.231 194.708 419.554 194.484 419.053 194.036C418.551 193.577 418.301 192.959 418.301 192.18C418.301 191.732 418.381 191.343 418.541 191.012C418.701 190.671 418.946 190.377 419.277 190.132C419.533 189.94 419.847 189.78 420.221 189.652C420.594 189.524 421.037 189.423 421.549 189.348L422.829 189.172C423.341 189.097 423.703 188.975 423.917 188.804C424.141 188.633 424.253 188.383 424.253 188.052C424.253 187.657 424.114 187.348 423.837 187.124C423.559 186.9 423.175 186.788 422.685 186.788C422.109 186.788 421.645 186.937 421.293 187.236C420.951 187.524 420.711 187.972 420.573 188.58L418.685 188.244C418.951 187.252 419.431 186.489 420.125 185.956C420.829 185.423 421.693 185.156 422.717 185.156C423.847 185.156 424.711 185.449 425.309 186.036C425.917 186.623 426.221 187.471 426.221 188.58V192.052C426.221 192.447 426.29 192.724 426.429 192.884C426.578 193.044 426.839 193.124 427.213 193.124C427.287 193.124 427.351 193.124 427.405 193.124C427.469 193.113 427.538 193.103 427.613 193.092V194.484C427.495 194.527 427.325 194.564 427.101 194.596C426.877 194.628 426.653 194.644 426.429 194.644ZM420.397 191.908C420.397 192.335 420.525 192.665 420.781 192.9C421.047 193.135 421.421 193.252 421.901 193.252C422.615 193.252 423.186 192.991 423.613 192.468C424.039 191.935 424.253 191.231 424.253 190.356V189.86C424.146 189.945 424.002 190.02 423.821 190.084C423.639 190.148 423.394 190.207 423.085 190.26L421.981 190.452C421.426 190.548 421.021 190.713 420.765 190.948C420.519 191.172 420.397 191.492 420.397 191.908ZM432.509 193.044C432.733 193.044 432.93 193.039 433.101 193.028C433.271 193.007 433.431 192.975 433.581 192.932V194.436C433.303 194.521 433.021 194.585 432.733 194.628C432.455 194.671 432.151 194.692 431.821 194.692C430.85 194.692 430.135 194.463 429.677 194.004C429.218 193.535 428.989 192.809 428.989 191.828V186.9H427.149V185.364H429.021V183.54L431.021 182.692V185.364H433.581V186.9H431.021V191.524C431.021 192.089 431.127 192.484 431.341 192.708C431.565 192.932 431.954 193.044 432.509 193.044ZM436.778 183.524H434.618V181.46H436.778V183.524ZM434.666 194.5V185.364H436.714V194.5H434.666ZM443.618 185.156C444.738 185.156 445.623 185.588 446.274 186.452C446.935 187.305 447.266 188.463 447.266 189.924C447.266 191.375 446.93 192.537 446.258 193.412C445.586 194.276 444.695 194.708 443.586 194.708C442.871 194.708 442.258 194.543 441.746 194.212C441.244 193.881 440.855 193.396 440.578 192.756H440.53V194.5H438.53V181.46H440.562V187.188H440.626C440.914 186.527 441.314 186.025 441.826 185.684C442.338 185.332 442.935 185.156 443.618 185.156ZM445.186 189.924C445.186 188.975 444.978 188.223 444.562 187.668C444.156 187.113 443.607 186.836 442.914 186.836C442.178 186.836 441.596 187.113 441.17 187.668C440.754 188.212 440.546 188.969 440.546 189.94C440.546 190.879 440.759 191.625 441.186 192.18C441.612 192.735 442.188 193.012 442.914 193.012C443.628 193.012 444.183 192.74 444.578 192.196C444.983 191.652 445.186 190.895 445.186 189.924ZM450.646 183.524H448.486V181.46H450.646V183.524ZM448.534 194.5V185.364H450.582V194.5H448.534ZM452.398 194.5V181.46H454.43V194.5H452.398ZM458.343 183.524H456.183V181.46H458.343V183.524ZM456.231 194.5V185.364H458.279V194.5H456.231ZM463.246 194.708C462.147 194.708 461.257 194.281 460.574 193.428C459.891 192.564 459.55 191.423 459.55 190.004C459.55 188.564 459.918 187.396 460.654 186.5C461.39 185.604 462.323 185.156 463.454 185.156C464.083 185.156 464.627 185.311 465.086 185.62C465.555 185.929 465.923 186.383 466.19 186.98H466.254V181.46H468.286V194.5H466.286V192.676H466.238C465.939 193.337 465.534 193.844 465.022 194.196C464.521 194.537 463.929 194.708 463.246 194.708ZM461.63 189.972C461.63 190.921 461.833 191.668 462.238 192.212C462.654 192.745 463.219 193.012 463.934 193.012C464.67 193.012 465.241 192.74 465.646 192.196C466.062 191.652 466.27 190.9 466.27 189.94C466.27 188.98 466.062 188.223 465.646 187.668C465.241 187.113 464.686 186.836 463.982 186.836C463.246 186.836 462.67 187.113 462.254 187.668C461.838 188.223 461.63 188.991 461.63 189.972ZM477.667 194.644C476.974 194.644 476.44 194.489 476.067 194.18C475.694 193.86 475.491 193.391 475.459 192.772H475.427C475.128 193.401 474.712 193.881 474.179 194.212C473.656 194.543 473.038 194.708 472.323 194.708C471.47 194.708 470.792 194.484 470.291 194.036C469.79 193.577 469.539 192.959 469.539 192.18C469.539 191.732 469.619 191.343 469.779 191.012C469.939 190.671 470.184 190.377 470.515 190.132C470.771 189.94 471.086 189.78 471.459 189.652C471.832 189.524 472.275 189.423 472.787 189.348L474.067 189.172C474.579 189.097 474.942 188.975 475.155 188.804C475.379 188.633 475.491 188.383 475.491 188.052C475.491 187.657 475.352 187.348 475.075 187.124C474.798 186.9 474.414 186.788 473.923 186.788C473.347 186.788 472.883 186.937 472.531 187.236C472.19 187.524 471.95 187.972 471.811 188.58L469.923 188.244C470.19 187.252 470.67 186.489 471.363 185.956C472.067 185.423 472.931 185.156 473.955 185.156C475.086 185.156 475.95 185.449 476.547 186.036C477.155 186.623 477.459 187.471 477.459 188.58V192.052C477.459 192.447 477.528 192.724 477.667 192.884C477.816 193.044 478.078 193.124 478.451 193.124C478.526 193.124 478.59 193.124 478.643 193.124C478.707 193.113 478.776 193.103 478.851 193.092V194.484C478.734 194.527 478.563 194.564 478.339 194.596C478.115 194.628 477.891 194.644 477.667 194.644ZM471.635 191.908C471.635 192.335 471.763 192.665 472.019 192.9C472.286 193.135 472.659 193.252 473.139 193.252C473.854 193.252 474.424 192.991 474.851 192.468C475.278 191.935 475.491 191.231 475.491 190.356V189.86C475.384 189.945 475.24 190.02 475.059 190.084C474.878 190.148 474.632 190.207 474.323 190.26L473.219 190.452C472.664 190.548 472.259 190.713 472.003 190.948C471.758 191.172 471.635 191.492 471.635 191.908ZM482.755 194.708C481.656 194.708 480.766 194.281 480.083 193.428C479.4 192.564 479.059 191.423 479.059 190.004C479.059 188.564 479.427 187.396 480.163 186.5C480.899 185.604 481.832 185.156 482.963 185.156C483.592 185.156 484.136 185.311 484.595 185.62C485.064 185.929 485.432 186.383 485.699 186.98H485.763V181.46H487.795V194.5H485.795V192.676H485.747C485.448 193.337 485.043 193.844 484.531 194.196C484.03 194.537 483.438 194.708 482.755 194.708ZM481.139 189.972C481.139 190.921 481.342 191.668 481.747 192.212C482.163 192.745 482.728 193.012 483.443 193.012C484.179 193.012 484.75 192.74 485.155 192.196C485.571 191.652 485.779 190.9 485.779 189.94C485.779 188.98 485.571 188.223 485.155 187.668C484.75 187.113 484.195 186.836 483.491 186.836C482.755 186.836 482.179 187.113 481.763 187.668C481.347 188.223 481.139 188.991 481.139 189.972Z" fill="#E85324"/>
<defs>
<clipPath id="clip0_585_650">
<rect width="46" height="8" fill="white" transform="matrix(-1 0 0 1 259.793 107.414)"/>
</clipPath>
</defs>
</svg>
