<svg width="608" height="201" viewBox="0 0 608 201" fill="none" xmlns="http://www.w3.org/2000/svg">
<rect x="0.5" y="51.3906" width="99" height="99" rx="49.5" stroke="#E85324"/>
<path d="M23.3859 88.4105V89.4771H19.8259V98.7305H18.5726V89.4771H15.0126V88.4105H23.3859ZM26.8261 98.8905C25.9817 98.8905 25.3328 98.646 24.8795 98.1571C24.4261 97.6682 24.1995 96.9616 24.1995 96.0371V91.1571H25.4261V95.6505C25.4261 96.4149 25.5728 96.9794 25.8661 97.3438C26.1683 97.6994 26.635 97.8771 27.2661 97.8771C27.9595 97.8771 28.4972 97.6194 28.8795 97.1038C29.2706 96.5794 29.4661 95.8549 29.4661 94.9305V91.1571H30.6928V98.7305H29.5061V97.0105H29.4661C29.2172 97.6149 28.8617 98.0816 28.3995 98.4105C27.9461 98.7305 27.4217 98.8905 26.8261 98.8905ZM35.7872 101.197H34.5605V91.1571H35.7472V92.8905H35.8005C36.0494 92.286 36.4005 91.8194 36.8538 91.4905C37.3161 91.1616 37.8494 90.9971 38.4538 90.9971C39.3872 90.9971 40.1338 91.3571 40.6938 92.0771C41.2538 92.7882 41.5338 93.7394 41.5338 94.9305C41.5338 96.1216 41.2449 97.0816 40.6672 97.8105C40.0983 98.5394 39.3516 98.9038 38.4272 98.9038C37.8227 98.9038 37.2983 98.7571 36.8538 98.4638C36.4183 98.1616 36.0761 97.7305 35.8272 97.1705H35.7872V101.197ZM40.2805 94.9305C40.2805 94.0416 40.0849 93.3394 39.6938 92.8238C39.3027 92.2994 38.7738 92.0371 38.1072 92.0371C37.3783 92.0371 36.8049 92.2949 36.3872 92.8105C35.9783 93.326 35.7738 94.0371 35.7738 94.9438C35.7738 95.8327 35.9827 96.5394 36.4005 97.0638C36.8272 97.5882 37.3961 97.8505 38.1072 97.8505C38.7916 97.8505 39.3249 97.5971 39.7072 97.0905C40.0894 96.5749 40.2805 95.8549 40.2805 94.9305ZM45.8482 98.9038C44.7371 98.9038 43.8526 98.5482 43.1949 97.8371C42.546 97.126 42.2215 96.166 42.2215 94.9571C42.2215 93.7927 42.5504 92.8416 43.2082 92.1038C43.866 91.366 44.7149 90.9971 45.7549 90.9971C46.386 90.9971 46.9415 91.1438 47.4215 91.4371C47.9015 91.7216 48.2749 92.1305 48.5415 92.6638C48.7104 93.0016 48.8349 93.3838 48.9149 93.8105C49.0038 94.2282 49.0482 94.686 49.0482 95.1838H43.4615C43.4971 96.0105 43.7282 96.6682 44.1549 97.1571C44.5904 97.6371 45.1638 97.8771 45.8749 97.8771C46.4349 97.8771 46.8926 97.7438 47.2482 97.4771C47.6126 97.2105 47.906 96.7927 48.1282 96.2238L49.1549 96.5838C48.8704 97.3305 48.4438 97.9038 47.8749 98.3038C47.306 98.7038 46.6304 98.9038 45.8482 98.9038ZM47.5415 93.1571C47.3726 92.7927 47.1326 92.5127 46.8215 92.3171C46.5104 92.1127 46.1504 92.0105 45.7415 92.0105C45.1104 92.0105 44.5949 92.2194 44.1949 92.6371C43.7949 93.046 43.5593 93.6105 43.4882 94.3305H47.7949C47.786 94.0816 47.7593 93.8682 47.7149 93.6905C47.6793 93.5038 47.6215 93.326 47.5415 93.1571ZM53.5401 91.0371C54.1179 91.0371 54.5623 91.2282 54.8734 91.6105C55.1845 91.9838 55.3401 92.5171 55.3401 93.2105C55.3401 93.3794 55.3267 93.566 55.3001 93.7705C55.2823 93.966 55.2556 94.1394 55.2201 94.2905L54.0734 94.4371C54.109 94.2771 54.1356 94.0949 54.1534 93.8905C54.1801 93.6771 54.1934 93.4994 54.1934 93.3571C54.1934 92.886 54.1001 92.5305 53.9134 92.2905C53.7267 92.0416 53.4556 91.9171 53.1001 91.9171C52.5756 91.9171 52.1579 92.1927 51.8467 92.7438C51.5445 93.286 51.3934 94.0238 51.3934 94.9571V98.7305H50.1667V91.1571H51.3667V92.8105H51.3934C51.5979 92.2416 51.8823 91.806 52.2467 91.5038C52.6201 91.1927 53.0512 91.0371 53.5401 91.0371ZM58.1432 98.7305H56.9299V92.1171H55.3832V91.1571H56.9299V90.2505C56.9299 89.4327 57.1121 88.8149 57.4765 88.3971C57.8499 87.9705 58.3921 87.7571 59.1032 87.7571C59.3165 87.7571 59.5299 87.7794 59.7432 87.8238C59.9565 87.8594 60.1476 87.9082 60.3165 87.9705L60.0765 88.9171C59.9521 88.8727 59.8143 88.8371 59.6632 88.8105C59.521 88.7838 59.3832 88.7705 59.2499 88.7705C58.8588 88.7705 58.5743 88.8905 58.3965 89.1305C58.2188 89.3616 58.1299 89.7438 58.1299 90.2771V91.1571H60.1432V92.1171H58.1432V98.7305ZM62.1972 89.2771H60.8372V87.8638H62.1972V89.2771ZM60.9038 98.7305V91.1571H62.1172V98.7305H60.9038ZM63.8496 98.7305V87.8638H65.0762V98.7305H63.8496ZM71.5747 98.8905C70.6147 98.8905 69.8502 98.5394 69.2813 97.8371C68.7213 97.1349 68.4413 96.1838 68.4413 94.9838C68.4413 93.8016 68.7435 92.8416 69.348 92.1038C69.9613 91.366 70.7435 90.9971 71.6947 90.9971C72.2547 90.9971 72.7435 91.1438 73.1613 91.4371C73.5791 91.7216 73.908 92.1438 74.148 92.7038H74.188V87.8638H75.4147V98.7305H74.228V97.0505H74.1747C73.9347 97.6371 73.588 98.0905 73.1347 98.4105C72.6902 98.7305 72.1702 98.8905 71.5747 98.8905ZM69.6947 94.9705C69.6947 95.8771 69.8902 96.5838 70.2813 97.0905C70.6813 97.5971 71.2324 97.8505 71.9347 97.8505C72.6458 97.8505 73.2013 97.5971 73.6013 97.0905C74.0013 96.5749 74.2013 95.8638 74.2013 94.9571C74.2013 94.0505 74.0013 93.3394 73.6013 92.8238C73.2102 92.2994 72.668 92.0371 71.9747 92.0371C71.2635 92.0371 70.7035 92.2994 70.2947 92.8238C69.8947 93.3394 69.6947 94.0549 69.6947 94.9705ZM80.2357 98.9038C79.1246 98.9038 78.2401 98.5482 77.5824 97.8371C76.9335 97.126 76.609 96.166 76.609 94.9571C76.609 93.7927 76.9379 92.8416 77.5957 92.1038C78.2535 91.366 79.1024 90.9971 80.1424 90.9971C80.7735 90.9971 81.329 91.1438 81.809 91.4371C82.289 91.7216 82.6624 92.1305 82.929 92.6638C83.0979 93.0016 83.2224 93.3838 83.3024 93.8105C83.3913 94.2282 83.4357 94.686 83.4357 95.1838H77.849C77.8846 96.0105 78.1157 96.6682 78.5424 97.1571C78.9779 97.6371 79.5513 97.8771 80.2624 97.8771C80.8224 97.8771 81.2801 97.7438 81.6357 97.4771C82.0001 97.2105 82.2935 96.7927 82.5157 96.2238L83.5424 96.5838C83.2579 97.3305 82.8313 97.9038 82.2624 98.3038C81.6935 98.7038 81.0179 98.9038 80.2357 98.9038ZM81.929 93.1571C81.7601 92.7927 81.5201 92.5127 81.209 92.3171C80.8979 92.1127 80.5379 92.0105 80.129 92.0105C79.4979 92.0105 78.9824 92.2194 78.5824 92.6371C78.1824 93.046 77.9468 93.6105 77.8757 94.3305H82.1824C82.1735 94.0816 82.1468 93.8682 82.1024 93.6905C82.0668 93.5038 82.009 93.326 81.929 93.1571ZM23.5952 111.73V101.41H24.8618V110.664H30.4885V111.73H23.5952ZM32.8076 102.277H31.4476V100.864H32.8076V102.277ZM31.5142 111.73V104.157H32.7276V111.73H31.5142ZM34.46 111.73V104.157H35.6466V105.917H35.6866C35.9444 105.313 36.3089 104.842 36.78 104.504C37.26 104.166 37.7978 103.997 38.3933 103.997C39.2378 103.997 39.8822 104.259 40.3266 104.784C40.7711 105.308 40.9933 106.073 40.9933 107.077V111.73H39.78V107.384C39.78 106.557 39.6333 105.957 39.34 105.584C39.0555 105.21 38.5933 105.024 37.9533 105.024C37.2511 105.024 36.6955 105.29 36.2866 105.824C35.8866 106.357 35.6866 107.09 35.6866 108.024V111.73H34.46ZM49.228 111.73H47.868L45.348 107.53L43.8413 109.037V111.73H42.6147V100.864H43.8413V107.81L47.4013 104.157H48.8547L46.2413 106.864L49.228 111.73ZM52.9909 111.904C51.8798 111.904 50.9954 111.548 50.3376 110.837C49.6887 110.126 49.3642 109.166 49.3642 107.957C49.3642 106.793 49.6931 105.842 50.3509 105.104C51.0087 104.366 51.8576 103.997 52.8976 103.997C53.5287 103.997 54.0842 104.144 54.5642 104.437C55.0442 104.722 55.4176 105.13 55.6842 105.664C55.8531 106.002 55.9776 106.384 56.0576 106.81C56.1465 107.228 56.1909 107.686 56.1909 108.184H50.6042C50.6398 109.01 50.8709 109.668 51.2976 110.157C51.7331 110.637 52.3065 110.877 53.0176 110.877C53.5776 110.877 54.0354 110.744 54.3909 110.477C54.7554 110.21 55.0487 109.793 55.2709 109.224L56.2976 109.584C56.0131 110.33 55.5865 110.904 55.0176 111.304C54.4487 111.704 53.7731 111.904 52.9909 111.904ZM54.6842 106.157C54.5154 105.793 54.2754 105.513 53.9642 105.317C53.6531 105.113 53.2931 105.01 52.8842 105.01C52.2531 105.01 51.7376 105.219 51.3376 105.637C50.9376 106.046 50.702 106.61 50.6309 107.33H54.9376C54.9287 107.082 54.902 106.868 54.8576 106.69C54.822 106.504 54.7642 106.326 54.6842 106.157ZM59.9361 111.89C58.9761 111.89 58.2117 111.539 57.6428 110.837C57.0828 110.135 56.8028 109.184 56.8028 107.984C56.8028 106.802 57.105 105.842 57.7095 105.104C58.3228 104.366 59.105 103.997 60.0561 103.997C60.6161 103.997 61.105 104.144 61.5228 104.437C61.9406 104.722 62.2695 105.144 62.5095 105.704H62.5495V100.864H63.7761V111.73H62.5895V110.05H62.5361C62.2961 110.637 61.9495 111.09 61.4961 111.41C61.0517 111.73 60.5317 111.89 59.9361 111.89ZM58.0561 107.97C58.0561 108.877 58.2517 109.584 58.6428 110.09C59.0428 110.597 59.5939 110.85 60.2961 110.85C61.0072 110.85 61.5628 110.597 61.9628 110.09C62.3628 109.575 62.5628 108.864 62.5628 107.957C62.5628 107.05 62.3628 106.339 61.9628 105.824C61.5717 105.299 61.0295 105.037 60.3361 105.037C59.625 105.037 59.065 105.299 58.6561 105.824C58.2561 106.339 58.0561 107.055 58.0561 107.97ZM65.5972 111.73V101.41H66.8638V111.73H65.5972ZM68.697 111.73V104.157H69.8836V105.917H69.9236C70.1814 105.313 70.5458 104.842 71.017 104.504C71.497 104.166 72.0347 103.997 72.6303 103.997C73.4747 103.997 74.1192 104.259 74.5636 104.784C75.0081 105.308 75.2303 106.073 75.2303 107.077V111.73H74.017V107.384C74.017 106.557 73.8703 105.957 73.577 105.584C73.2925 105.21 72.8303 105.024 72.1903 105.024C71.4881 105.024 70.9325 105.29 70.5236 105.824C70.1236 106.357 69.9236 107.09 69.9236 108.024V111.73H68.697Z" fill="#E85324"/>
<path d="M180.165 102.426C181.388 101.815 182 101.509 182 101.025C182 100.541 181.388 100.235 180.165 99.6242L161.675 90.3842C160.956 90.025 160.596 89.8454 160.33 89.9004C160.106 89.9468 159.913 90.0893 159.802 90.2902C159.672 90.5282 159.738 90.9243 159.87 91.7164C160.454 95.2223 160.747 96.9752 160.861 98.7387C160.96 100.261 160.96 101.789 160.861 103.311C160.747 105.075 160.454 106.828 159.87 110.333C159.738 111.126 159.672 111.522 159.802 111.76C159.913 111.961 160.106 112.103 160.33 112.15C160.596 112.204 160.956 112.025 161.675 111.666L180.165 102.426Z" fill="#E85324"/>
<g clip-path="url(#clip0_530_1529)">
<path d="M163.504 100.625C145.989 100.625 117.504 100.625 117.504 100.625" stroke="#E85324" stroke-width="2" stroke-miterlimit="16" stroke-linecap="square" stroke-dasharray="4 4"/>
</g>
<rect x="195.111" y="2.00174" width="197.778" height="197.778" rx="52.2222" stroke="#E85324" stroke-width="2.22222" stroke-dasharray="4.44 4.44"/>
<path d="M228.107 117.613H224.917L237.391 93.1712H240.928L246.107 117.613H243.012L241.749 111.013H231.359L228.107 117.613ZM238.812 95.7922L232.528 108.582H241.275L238.812 95.7922ZM248.718 117.613L252.603 93.1712H255.571L251.718 117.613H248.718ZM283.009 93.1712L282.598 95.6975H274.198L270.693 117.613H267.725L271.198 95.6975H262.767L263.177 93.1712H283.009ZM296.02 117.866C294.736 117.866 293.799 117.54 293.209 116.887C292.641 116.234 292.451 115.297 292.641 114.076H292.578C291.883 115.361 290.988 116.34 289.894 117.013C288.799 117.687 287.546 118.024 286.136 118.024C284.557 118.024 283.294 117.582 282.346 116.697C281.399 115.813 280.925 114.634 280.925 113.161C280.925 112.129 281.136 111.234 281.557 110.476C281.978 109.697 282.609 109.066 283.451 108.582C283.915 108.308 284.462 108.087 285.094 107.919C285.725 107.75 286.578 107.603 287.651 107.476L290.778 107.129C292.02 106.982 292.883 106.719 293.367 106.34C293.873 105.94 294.125 105.308 294.125 104.445C294.125 103.54 293.809 102.855 293.178 102.392C292.567 101.908 291.673 101.666 290.494 101.666C289.167 101.666 288.094 102.003 287.273 102.676C286.473 103.35 285.894 104.382 285.536 105.771L282.82 105.203C283.388 103.287 284.336 101.824 285.662 100.813C287.009 99.8028 288.662 99.2975 290.62 99.2975C292.851 99.2975 294.504 99.908 295.578 101.129C296.673 102.329 297.051 103.992 296.715 106.119L295.578 113.161C295.43 114.066 295.473 114.697 295.704 115.055C295.936 115.392 296.409 115.561 297.125 115.561C297.315 115.561 297.473 115.561 297.599 115.561C297.746 115.54 297.925 115.508 298.136 115.466L297.788 117.582C297.578 117.666 297.304 117.729 296.967 117.771C296.63 117.834 296.315 117.866 296.02 117.866ZM283.925 112.876C283.925 113.782 284.23 114.497 284.841 115.024C285.451 115.55 286.294 115.813 287.367 115.813C288.904 115.813 290.22 115.224 291.315 114.045C292.409 112.866 293.125 111.255 293.462 109.213L293.651 108.108C293.399 108.297 293.073 108.455 292.673 108.582C292.294 108.687 291.799 108.782 291.188 108.866L287.904 109.276C286.536 109.445 285.525 109.824 284.873 110.413C284.241 110.982 283.925 111.803 283.925 112.876ZM299.599 117.613L303.673 91.8764H306.578L302.505 117.613H299.599ZM314.599 118.024C312.157 118.024 310.21 117.266 308.757 115.75C307.326 114.234 306.61 112.213 306.61 109.687C306.61 106.634 307.452 104.14 309.136 102.203C310.842 100.266 313.084 99.2975 315.863 99.2975C317.315 99.2975 318.568 99.5922 319.62 100.182C320.694 100.771 321.515 101.634 322.084 102.771C322.526 103.655 322.82 104.634 322.968 105.708C323.115 106.761 323.126 107.929 322.999 109.213H309.547C309.484 111.255 309.905 112.834 310.81 113.95C311.736 115.045 313.073 115.592 314.82 115.592C316.126 115.592 317.22 115.287 318.105 114.676C318.989 114.045 319.736 113.055 320.347 111.708L322.747 112.592C322.01 114.403 320.957 115.761 319.589 116.666C318.242 117.571 316.578 118.024 314.599 118.024ZM319.62 103.845C319.326 103.171 318.831 102.645 318.136 102.266C317.463 101.887 316.673 101.697 315.768 101.697C314.189 101.697 312.884 102.171 311.852 103.119C310.82 104.066 310.126 105.424 309.768 107.192H320.22C320.242 106.54 320.199 105.94 320.094 105.392C320.01 104.845 319.852 104.329 319.62 103.845ZM324.164 117.613L327.006 99.6764H329.817L329.217 103.497H329.312C330.049 102.129 330.985 101.087 332.122 100.371C333.259 99.6554 334.533 99.2975 335.943 99.2975C338.028 99.2975 339.533 99.9817 340.459 101.35C341.406 102.697 341.691 104.603 341.312 107.066L339.638 117.613H336.764L338.375 107.476C338.691 105.519 338.543 104.076 337.933 103.15C337.343 102.203 336.28 101.729 334.743 101.729C333.08 101.729 331.712 102.34 330.638 103.561C329.564 104.761 328.838 106.519 328.459 108.834L327.07 117.613H324.164ZM351.373 115.529C351.71 115.529 352.047 115.508 352.383 115.466C352.72 115.424 353.078 115.35 353.457 115.245L353.141 117.582C352.678 117.729 352.225 117.834 351.783 117.897C351.341 117.961 350.836 117.992 350.268 117.992C348.415 117.992 347.099 117.508 346.32 116.54C345.562 115.55 345.341 114.087 345.657 112.15L347.236 101.95H343.541L343.889 99.6764H347.647L348.215 95.887L351.31 94.4659L350.489 99.6764H355.983L355.636 101.95H350.11L348.625 111.519C348.373 113.055 348.436 114.108 348.815 114.676C349.215 115.245 350.068 115.529 351.373 115.529ZM262.584 149.613L266.469 125.171H269.469L267.826 135.497H281.374L283.016 125.171H285.984L282.132 149.613H279.132L280.963 138.087H267.416L265.584 149.613H262.584ZM292.681 149.992C290.618 149.992 289.102 149.361 288.134 148.097C287.186 146.813 286.892 145.003 287.249 142.666L288.986 131.676H291.86L290.218 142.224C289.944 144.034 290.123 145.382 290.755 146.266C291.386 147.15 292.481 147.592 294.039 147.592C295.639 147.592 296.955 146.992 297.986 145.792C299.018 144.571 299.713 142.792 300.071 140.455L301.46 131.676H304.334L301.523 149.613H298.713L299.313 145.792H299.218C298.439 147.182 297.502 148.234 296.407 148.95C295.313 149.645 294.071 149.992 292.681 149.992ZM317.114 131.297C319.071 131.297 320.65 132.055 321.85 133.571C323.071 135.066 323.682 137.034 323.682 139.476C323.682 142.613 322.903 145.161 321.345 147.119C319.808 149.055 317.819 150.024 315.377 150.024C313.777 150.024 312.44 149.592 311.366 148.729C310.314 147.845 309.598 146.592 309.219 144.971H309.124L308.366 149.613H305.556L309.629 123.876H312.535L310.703 135.403H310.798C311.556 134.055 312.461 133.034 313.514 132.34C314.587 131.645 315.787 131.297 317.114 131.297ZM320.682 139.571C320.682 137.719 320.261 136.287 319.419 135.276C318.598 134.266 317.44 133.761 315.945 133.761C314.092 133.761 312.598 134.55 311.461 136.129C310.324 137.708 309.756 139.697 309.756 142.097C309.756 143.782 310.208 145.108 311.114 146.076C312.04 147.045 313.292 147.529 314.871 147.529C316.619 147.529 318.019 146.803 319.071 145.35C320.145 143.876 320.682 141.95 320.682 139.571Z" fill="#E85324"/>
<path d="M261.688 53.3477L253.766 75.5882C252.474 79.2194 251.015 81.7358 249.393 83.1394C247.77 84.541 245.54 85.2428 242.708 85.2428C241.416 85.2428 240.184 85.1529 239.016 84.9751C237.846 84.7953 236.876 84.541 236.105 84.2121L237.067 78.1333C238.002 78.4622 239.387 78.9498 240.089 79.0741C240.79 79.1984 241.511 79.2596 242.255 79.2596C242.997 79.2596 243.622 79.1697 244.131 78.9919C244.64 78.8121 245.087 78.531 245.473 78.1467C245.582 78.0358 245.68 77.9249 245.762 77.8159C245.844 77.705 245.926 77.5826 246.009 77.4449L237.056 53.3477H244.234L249.682 70.1002L254.757 53.3477H261.688Z" fill="#E85324"/>
<path d="M271.426 53.3477H264.577V77.0739H271.426V53.3477Z" fill="#E85324"/>
<path d="M297.192 55.3489C295.831 53.6853 293.856 52.8535 291.27 52.8535C289.593 52.8535 288.09 53.2818 286.733 54.0907C285.171 55.02 284.079 56.066 283.291 57.5364C283.222 57.6684 283.023 57.5976 283.054 57.4523L283.914 53.3469H276.583V77.0731H283.432V64.6536C283.432 62.6458 283.859 61.0835 284.712 59.9706C285.563 58.8558 286.76 58.2994 288.301 58.2994C289.731 58.2994 290.769 58.787 291.416 59.7641C292.062 60.7412 292.385 62.315 292.385 64.4891V77.0731H299.235V62.5903C299.235 59.4276 298.554 57.0125 297.192 55.3489Z" fill="#E85324"/>
<path d="M310.419 61.23C310.419 62.3028 310.734 63.1499 311.367 63.7675C312 64.3871 312.866 64.6968 313.968 64.6968C315.012 64.6968 315.817 64.3813 316.381 63.7465C316.945 63.1155 317.228 62.1938 317.228 60.9834C317.228 59.9087 316.924 59.0578 316.32 58.4249C315.713 57.792 314.889 57.4745 313.843 57.4745C312.797 57.4745 311.965 57.8187 311.348 58.5071C310.728 59.1955 310.419 60.1019 310.419 61.23ZM321.106 78.3115C321.106 77.8449 320.899 77.5084 320.486 77.3019C320.073 77.0954 319.373 76.9921 318.383 76.9921H311.533C310.212 76.9921 309.243 77.1298 308.623 77.4051C308.005 77.6786 307.696 78.1203 307.696 78.7245C307.696 79.4397 308.204 79.977 309.222 80.3346C310.239 80.6922 311.78 80.87 313.843 80.87C316.153 80.87 317.941 80.6444 319.207 80.1893C320.473 79.7361 321.106 79.1108 321.106 78.3115ZM313.224 85.2451C309.29 85.2451 306.388 84.8378 304.518 84.027C302.647 83.2162 301.712 81.9714 301.712 80.2925C301.712 79.2466 302.131 78.367 302.971 77.6518C303.81 76.9367 304.986 76.4701 306.499 76.2502V76.1661C305.426 75.8639 304.607 75.3974 304.043 74.7644C303.479 74.1315 303.198 73.3743 303.198 72.4947C303.198 71.3952 303.54 70.4792 304.229 69.7507C304.917 69.0222 305.977 68.4237 307.407 67.9552V67.8729C306.223 67.1865 305.323 66.2916 304.705 65.1921C304.085 64.0907 303.776 62.8267 303.776 61.3945C303.776 58.8379 304.697 56.767 306.541 55.1857C308.382 53.6043 310.803 52.8127 313.801 52.8127C315.122 52.8127 316.346 52.9714 317.474 53.2869C318.603 53.6043 319.607 54.0651 320.486 54.6694L323.045 49.7188L327.542 53.2658L322.303 56.4439C322.825 57.1323 323.217 57.8818 323.479 58.6926C323.739 59.5053 323.871 60.3772 323.871 61.3123C323.871 63.7885 322.983 65.7485 321.209 67.1922C319.434 68.6359 317.035 69.3587 314.008 69.3587C313.101 69.3587 312.254 69.3033 311.47 69.1943C310.686 69.0834 309.979 68.9189 309.346 68.699C308.988 68.8367 308.721 69.0145 308.541 69.2344C308.363 69.4562 308.273 69.7297 308.273 70.0605C308.273 70.527 308.527 70.8789 309.036 71.1122C309.545 71.3455 310.323 71.4621 311.367 71.4621H319.662C322.247 71.4621 324.179 71.9172 325.458 72.8255C326.737 73.7319 327.378 75.1086 327.378 76.95C327.378 79.6462 326.173 81.7018 323.767 83.1187C321.36 84.5356 317.845 85.2451 313.224 85.2451Z" fill="#E85324"/>
<path d="M340.098 72.0003C341.748 72.0003 343.001 71.4228 343.853 70.2679C344.704 69.111 345.133 67.434 345.133 65.2331C345.133 63.0609 344.691 61.382 343.811 60.2003C342.93 59.0167 341.693 58.4258 340.098 58.4258C338.475 58.4258 337.224 59.0109 336.342 60.1793C335.463 61.3476 335.023 63.0322 335.023 65.2331C335.023 67.3786 335.47 69.0441 336.363 70.2258C337.258 71.4095 338.503 72.0003 340.098 72.0003ZM340.056 77.6527C336.316 77.6527 333.373 76.559 331.227 74.3733C329.082 72.1858 328.023 69.1531 328.049 65.2752C328.076 61.4776 329.204 58.4449 331.434 56.1771C333.662 53.9073 336.576 52.7715 340.18 52.7715C343.785 52.7715 346.672 53.8805 348.846 56.0929C351.018 58.3091 352.104 61.3132 352.104 65.1088C352.104 69.0441 351.026 72.117 348.865 74.3313C346.706 76.5456 343.771 77.6527 340.056 77.6527Z" fill="#E85324"/>
<path d="M474.165 102.426C475.388 101.815 476 101.509 476 101.025C476 100.541 475.388 100.235 474.165 99.6242L455.675 90.3842C454.956 90.025 454.596 89.8454 454.33 89.9004C454.106 89.9468 453.913 90.0893 453.802 90.2902C453.672 90.5282 453.738 90.9243 453.87 91.7164C454.454 95.2223 454.747 96.9752 454.861 98.7387C454.96 100.261 454.96 101.789 454.861 103.311C454.747 105.075 454.454 106.828 453.87 110.333C453.738 111.126 453.672 111.522 453.802 111.76C453.913 111.961 454.106 112.103 454.33 112.15C454.596 112.204 454.956 112.025 455.675 111.666L474.165 102.426Z" fill="#E85324"/>
<g clip-path="url(#clip1_530_1529)">
<path d="M457.504 100.625C439.989 100.625 411.504 100.625 411.504 100.625" stroke="#E85324" stroke-width="2" stroke-miterlimit="16" stroke-linecap="square" stroke-dasharray="4 4"/>
</g>
<rect x="488" y="40.8906" width="120" height="120" rx="60" fill="#E85324"/>
<path d="M507.224 91.0996L509.176 78.7156H511.928L513.832 88.5716L518.84 78.7156H521.592L519.64 91.0996H517.656L519.16 81.5796L514.424 91.0996H512.408L510.664 81.5156L509.144 91.0996H507.224ZM529.123 91.2436C528.451 91.2436 527.95 91.0943 527.619 90.7956C527.288 90.4969 527.144 90.0543 527.187 89.4676H527.155C526.803 90.0756 526.36 90.5343 525.827 90.8436C525.294 91.1529 524.686 91.3076 524.003 91.3076C523.182 91.3076 522.526 91.0836 522.035 90.6356C521.555 90.1876 521.315 89.5849 521.315 88.8276C521.315 88.2836 521.432 87.8089 521.667 87.4036C521.912 86.9876 522.27 86.6623 522.739 86.4276C522.984 86.2889 523.272 86.1823 523.603 86.1076C523.934 86.0329 524.366 85.9689 524.899 85.9156L526.451 85.7716C526.995 85.7076 527.384 85.5849 527.619 85.4036C527.854 85.2223 527.971 84.9449 527.971 84.5716C527.971 84.1876 527.832 83.8943 527.555 83.6916C527.288 83.4889 526.904 83.3876 526.403 83.3876C525.806 83.3876 525.331 83.5369 524.979 83.8356C524.638 84.1236 524.398 84.5716 524.259 85.1796L522.355 84.8436C522.654 83.8409 523.15 83.0783 523.843 82.5556C524.547 82.0223 525.422 81.7556 526.467 81.7556C527.704 81.7556 528.616 82.0703 529.203 82.6996C529.8 83.3289 530.008 84.2036 529.827 85.3236L529.299 88.6516C529.224 89.0569 529.235 89.3396 529.331 89.4996C529.438 89.6489 529.667 89.7236 530.019 89.7236C530.115 89.7236 530.195 89.7236 530.259 89.7236C530.334 89.7129 530.424 89.6969 530.531 89.6756L530.307 91.0676C530.19 91.1209 530.019 91.1636 529.795 91.1956C529.582 91.2276 529.358 91.2436 529.123 91.2436ZM523.427 88.5716C523.427 88.9769 523.555 89.2916 523.811 89.5156C524.078 89.7396 524.451 89.8516 524.931 89.8516C525.614 89.8516 526.19 89.5956 526.659 89.0836C527.128 88.5716 527.443 87.8623 527.603 86.9556L527.667 86.5876C527.56 86.6516 527.427 86.7049 527.267 86.7476C527.107 86.7903 526.92 86.8223 526.707 86.8436L525.187 87.0356C524.579 87.1103 524.131 87.2703 523.843 87.5156C523.566 87.7609 523.427 88.1129 523.427 88.5716ZM535.507 89.6436C535.678 89.6436 535.838 89.6383 535.987 89.6276C536.147 89.6063 536.318 89.5796 536.499 89.5476L536.275 91.0516C536.019 91.1369 535.758 91.1956 535.491 91.2276C535.224 91.2703 534.931 91.2916 534.611 91.2916C533.598 91.2916 532.888 91.0303 532.483 90.5076C532.078 89.9743 531.966 89.1636 532.147 88.0756L532.867 83.4996H531.027L531.267 81.9636H533.139L533.427 80.1396L535.571 79.2916L535.155 81.9636H537.715L537.475 83.4996H534.899L534.243 87.7236C534.115 88.4809 534.136 88.9929 534.307 89.2596C534.478 89.5156 534.878 89.6436 535.507 89.6436ZM542.241 83.4836C541.419 83.4836 540.758 83.8089 540.257 84.4596C539.766 85.1103 539.521 85.9743 539.521 87.0516C539.521 87.8409 539.713 88.4649 540.097 88.9236C540.491 89.3716 541.035 89.5956 541.729 89.5956C542.305 89.5956 542.785 89.4356 543.169 89.1156C543.563 88.7956 543.862 88.3103 544.065 87.6596L546.049 88.1076C545.707 89.1636 545.163 89.9636 544.417 90.5076C543.67 91.0409 542.742 91.3076 541.633 91.3076C540.331 91.3076 539.302 90.9289 538.545 90.1716C537.798 89.4036 537.425 88.3636 537.425 87.0516C537.425 85.5263 537.878 84.2623 538.785 83.2596C539.702 82.2569 540.865 81.7556 542.273 81.7556C543.382 81.7556 544.289 82.0649 544.993 82.6836C545.707 83.2916 546.161 84.1609 546.353 85.2916L544.305 85.6436C544.209 84.9289 543.985 84.3903 543.633 84.0276C543.291 83.6649 542.827 83.4836 542.241 83.4836ZM546.567 91.0996L548.631 78.0596H550.663L549.783 83.6276H549.831C550.194 83.0196 550.637 82.5609 551.159 82.2516C551.693 81.9316 552.295 81.7716 552.967 81.7716C554.034 81.7716 554.802 82.1289 555.271 82.8436C555.751 83.5583 555.89 84.5663 555.687 85.8676L554.855 91.0996H552.823L553.623 86.1076C553.762 85.2009 553.698 84.5289 553.431 84.0916C553.175 83.6436 552.706 83.4196 552.023 83.4196C551.298 83.4196 550.706 83.6756 550.247 84.1876C549.799 84.6996 549.495 85.4623 549.335 86.4756L548.599 91.0996H546.567ZM563.763 83.4836C563.027 83.4836 562.446 83.7556 562.019 84.2996C561.593 84.8329 561.379 85.5743 561.379 86.5236C561.379 87.4729 561.593 88.2249 562.019 88.7796C562.446 89.3236 563.033 89.5956 563.779 89.5956C564.366 89.5956 564.841 89.4409 565.203 89.1316C565.577 88.8116 565.859 88.3209 566.051 87.6596L567.971 88.0756C567.737 89.0889 567.246 89.8836 566.499 90.4596C565.763 91.0249 564.846 91.3076 563.747 91.3076C562.35 91.3076 561.257 90.8916 560.467 90.0596C559.689 89.2276 559.299 88.0649 559.299 86.5716C559.299 85.1423 559.715 83.9849 560.547 83.0996C561.379 82.2036 562.457 81.7556 563.779 81.7556C564.878 81.7556 565.779 82.0596 566.483 82.6676C567.187 83.2649 567.667 84.1343 567.923 85.2756L565.923 85.6276C565.785 84.9236 565.529 84.3903 565.155 84.0276C564.793 83.6649 564.329 83.4836 563.763 83.4836ZM572.97 91.3076C571.605 91.3076 570.522 90.8863 569.722 90.0436C568.933 89.2009 568.538 88.0383 568.538 86.5556C568.549 85.0943 568.96 83.9316 569.77 83.0676C570.592 82.1929 571.674 81.7556 573.018 81.7556C574.362 81.7556 575.434 82.1823 576.234 83.0356C577.034 83.8783 577.434 85.0303 577.434 86.4916C577.434 87.9956 577.034 89.1743 576.234 90.0276C575.434 90.8809 574.346 91.3076 572.97 91.3076ZM573.002 89.6116C573.77 89.6116 574.352 89.3503 574.746 88.8276C575.152 88.3049 575.354 87.5423 575.354 86.5396C575.354 85.5583 575.146 84.8009 574.73 84.2676C574.325 83.7236 573.749 83.4516 573.002 83.4516C572.234 83.4516 571.642 83.7183 571.226 84.2516C570.821 84.7743 570.618 85.5316 570.618 86.5236C570.618 87.5049 570.826 88.2676 571.242 88.8116C571.658 89.3449 572.245 89.6116 573.002 89.6116ZM578.68 91.0996V81.9636H580.68V83.8516H580.712C581.032 83.1903 581.464 82.6783 582.008 82.3156C582.552 81.9529 583.171 81.7716 583.864 81.7716C584.867 81.7716 585.635 82.0916 586.168 82.7316C586.702 83.3609 586.968 84.2836 586.968 85.4996V91.0996H584.936V86.0436C584.936 85.1263 584.782 84.4596 584.472 84.0436C584.174 83.6276 583.694 83.4196 583.032 83.4196C582.307 83.4196 581.736 83.6916 581.32 84.2356C580.915 84.7796 580.712 85.5263 580.712 86.4756V91.0996H578.68ZM512.864 107.1V97.9636H514.864V99.8516H514.896C515.205 99.1796 515.616 98.6676 516.128 98.3156C516.64 97.9529 517.216 97.7716 517.856 97.7716C518.603 97.7716 519.205 97.9743 519.664 98.3796C520.123 98.7849 520.421 99.3823 520.56 100.172H520.608C520.896 99.4143 521.307 98.8276 521.84 98.4116C522.384 97.9849 523.003 97.7716 523.696 97.7716C524.624 97.7716 525.333 98.0863 525.824 98.7156C526.325 99.3449 526.576 100.257 526.576 101.452V107.1H524.544V101.884C524.544 101.041 524.411 100.422 524.144 100.028C523.877 99.6223 523.461 99.4196 522.896 99.4196C522.213 99.4196 521.68 99.6916 521.296 100.236C520.923 100.78 520.736 101.537 520.736 102.508V107.1H518.704V101.884C518.704 101.041 518.571 100.422 518.304 100.028C518.037 99.6223 517.616 99.4196 517.04 99.4196C516.368 99.4196 515.84 99.6916 515.456 100.236C515.083 100.78 514.896 101.537 514.896 102.508V107.1H512.864ZM531.282 107.292C530.269 107.292 529.496 106.988 528.962 106.38C528.44 105.772 528.178 104.886 528.178 103.724V97.9636H530.21V103.1C530.21 103.985 530.36 104.63 530.658 105.036C530.968 105.441 531.453 105.644 532.114 105.644C532.829 105.644 533.384 105.382 533.778 104.86C534.184 104.326 534.386 103.58 534.386 102.62V97.9636H536.434V107.1H534.434V105.228H534.402C534.082 105.889 533.65 106.401 533.106 106.764C532.573 107.116 531.965 107.292 531.282 107.292ZM533.042 97.1316H531.57L532.69 94.1876H534.658L533.042 97.1316ZM538.217 107.1V94.0596H540.249V107.1H538.217ZM546.177 105.644C546.401 105.644 546.599 105.638 546.769 105.628C546.94 105.606 547.1 105.574 547.249 105.532V107.036C546.972 107.121 546.689 107.185 546.401 107.228C546.124 107.27 545.82 107.292 545.489 107.292C544.519 107.292 543.804 107.062 543.345 106.604C542.887 106.134 542.657 105.409 542.657 104.428V99.4996H540.817V97.9636H542.689V96.1396L544.689 95.2916V97.9636H547.249V99.4996H544.689V104.124C544.689 104.689 544.796 105.084 545.009 105.308C545.233 105.532 545.623 105.644 546.177 105.644ZM550.447 96.1236H548.287V94.0596H550.447V96.1236ZM548.335 107.1V97.9636H550.383V107.1H548.335ZM554.23 110.06H552.198V97.9636H554.198V99.8836H554.246C554.545 99.1903 554.95 98.6623 555.462 98.2996C555.985 97.9369 556.593 97.7556 557.286 97.7556C558.406 97.7556 559.292 98.1876 559.942 99.0516C560.604 99.9049 560.934 101.062 560.934 102.524C560.934 103.974 560.598 105.137 559.926 106.012C559.254 106.876 558.364 107.308 557.254 107.308C556.561 107.308 555.964 107.153 555.462 106.844C554.961 106.524 554.572 106.054 554.294 105.436H554.23V110.06ZM558.854 102.524C558.854 101.574 558.646 100.822 558.23 100.268C557.825 99.7129 557.276 99.4356 556.582 99.4356C555.846 99.4356 555.265 99.7129 554.838 100.268C554.422 100.812 554.214 101.569 554.214 102.54C554.214 103.478 554.428 104.225 554.854 104.78C555.281 105.334 555.857 105.612 556.582 105.612C557.297 105.612 557.852 105.34 558.246 104.796C558.652 104.252 558.854 103.494 558.854 102.524ZM562.187 107.1V94.0596H564.219V107.1H562.187ZM570.004 107.308C568.607 107.308 567.497 106.881 566.676 106.028C565.865 105.174 565.46 104.022 565.46 102.572C565.46 101.164 565.876 100.012 566.708 99.1156C567.54 98.2089 568.607 97.7556 569.908 97.7556C570.719 97.7556 571.423 97.9316 572.02 98.2836C572.617 98.6356 573.087 99.1423 573.428 99.8036C573.641 100.241 573.801 100.721 573.908 101.244C574.015 101.766 574.063 102.337 574.052 102.956H567.508C567.561 103.798 567.812 104.46 568.26 104.94C568.708 105.42 569.305 105.66 570.052 105.66C570.649 105.66 571.14 105.521 571.524 105.244C571.919 104.966 572.223 104.54 572.436 103.964L574.164 104.508C573.833 105.404 573.305 106.097 572.58 106.588C571.865 107.068 571.007 107.308 570.004 107.308ZM571.732 100.508C571.572 100.156 571.332 99.8836 571.012 99.6916C570.692 99.4889 570.319 99.3876 569.892 99.3876C569.252 99.3876 568.724 99.5903 568.308 99.9956C567.892 100.39 567.636 100.945 567.54 101.66H572.004C571.993 101.436 571.961 101.233 571.908 101.052C571.865 100.87 571.807 100.689 571.732 100.508ZM578.764 105.74C579.329 105.74 579.766 105.633 580.076 105.42C580.396 105.196 580.556 104.881 580.556 104.476C580.556 104.262 580.492 104.092 580.364 103.964C580.236 103.836 580.022 103.729 579.724 103.644C579.564 103.601 579.313 103.553 578.972 103.5C578.63 103.436 578.449 103.404 578.428 103.404C577.468 103.233 576.79 103.078 576.396 102.94C576.012 102.801 575.708 102.625 575.484 102.412C575.281 102.209 575.126 101.964 575.02 101.676C574.913 101.388 574.86 101.062 574.86 100.7C574.86 99.8249 575.185 99.1209 575.836 98.5876C576.497 98.0436 577.361 97.7716 578.428 97.7716C579.452 97.7716 580.305 98.0169 580.988 98.5076C581.681 98.9983 582.118 99.6756 582.3 100.54L580.524 100.876C580.417 100.364 580.182 99.9743 579.82 99.7076C579.468 99.4303 579.004 99.2916 578.428 99.2916C577.916 99.2916 577.51 99.4036 577.212 99.6276C576.924 99.8409 576.78 100.145 576.78 100.54C576.78 100.849 576.897 101.084 577.132 101.244C577.366 101.404 577.948 101.558 578.876 101.708C580.102 101.921 580.86 102.092 581.148 102.22C581.446 102.337 581.697 102.492 581.9 102.684C582.092 102.876 582.236 103.11 582.332 103.388C582.438 103.654 582.492 103.969 582.492 104.332C582.492 105.228 582.145 105.948 581.452 106.492C580.769 107.025 579.857 107.292 578.716 107.292C577.5 107.292 576.524 107.052 575.788 106.572C575.062 106.092 574.598 105.388 574.396 104.46L576.284 104.06C576.412 104.625 576.678 105.046 577.084 105.324C577.5 105.601 578.06 105.74 578.764 105.74ZM509.378 115.484C508.642 115.484 508.061 115.756 507.634 116.3C507.207 116.833 506.994 117.574 506.994 118.524C506.994 119.473 507.207 120.225 507.634 120.78C508.061 121.324 508.647 121.596 509.394 121.596C509.981 121.596 510.455 121.441 510.818 121.132C511.191 120.812 511.474 120.321 511.666 119.66L513.586 120.076C513.351 121.089 512.861 121.884 512.114 122.46C511.378 123.025 510.461 123.308 509.362 123.308C507.965 123.308 506.871 122.892 506.082 122.06C505.303 121.228 504.914 120.065 504.914 118.572C504.914 117.142 505.33 115.985 506.162 115.1C506.994 114.204 508.071 113.756 509.394 113.756C510.493 113.756 511.394 114.06 512.098 114.668C512.802 115.265 513.282 116.134 513.538 117.276L511.538 117.628C511.399 116.924 511.143 116.39 510.77 116.028C510.407 115.665 509.943 115.484 509.378 115.484ZM518.585 123.308C517.219 123.308 516.137 122.886 515.337 122.044C514.547 121.201 514.153 120.038 514.153 118.556C514.163 117.094 514.574 115.932 515.385 115.068C516.206 114.193 517.289 113.756 518.633 113.756C519.977 113.756 521.049 114.182 521.849 115.036C522.649 115.878 523.049 117.03 523.049 118.492C523.049 119.996 522.649 121.174 521.849 122.028C521.049 122.881 519.961 123.308 518.585 123.308ZM518.617 121.612C519.385 121.612 519.966 121.35 520.361 120.828C520.766 120.305 520.969 119.542 520.969 118.54C520.969 117.558 520.761 116.801 520.345 116.268C519.939 115.724 519.363 115.452 518.617 115.452C517.849 115.452 517.257 115.718 516.841 116.252C516.435 116.774 516.233 117.532 516.233 118.524C516.233 119.505 516.441 120.268 516.857 120.812C517.273 121.345 517.859 121.612 518.617 121.612ZM524.295 123.1V113.964H526.295V115.852H526.327C526.636 115.18 527.047 114.668 527.559 114.316C528.071 113.953 528.647 113.772 529.287 113.772C530.033 113.772 530.636 113.974 531.095 114.38C531.553 114.785 531.852 115.382 531.991 116.172H532.039C532.327 115.414 532.737 114.828 533.271 114.412C533.815 113.985 534.433 113.772 535.127 113.772C536.055 113.772 536.764 114.086 537.255 114.716C537.756 115.345 538.007 116.257 538.007 117.452V123.1H535.975V117.884C535.975 117.041 535.841 116.422 535.575 116.028C535.308 115.622 534.892 115.42 534.327 115.42C533.644 115.42 533.111 115.692 532.727 116.236C532.353 116.78 532.167 117.537 532.167 118.508V123.1H530.135V117.884C530.135 117.041 530.001 116.422 529.735 116.028C529.468 115.622 529.047 115.42 528.471 115.42C527.799 115.42 527.271 115.692 526.887 116.236C526.513 116.78 526.327 117.537 526.327 118.508V123.1H524.295ZM541.753 126.06H539.721V113.964H541.721V115.884H541.769C542.068 115.19 542.473 114.662 542.985 114.3C543.508 113.937 544.116 113.756 544.809 113.756C545.929 113.756 546.814 114.188 547.465 115.052C548.126 115.905 548.457 117.062 548.457 118.524C548.457 119.974 548.121 121.137 547.449 122.012C546.777 122.876 545.886 123.308 544.777 123.308C544.084 123.308 543.486 123.153 542.985 122.844C542.484 122.524 542.094 122.054 541.817 121.436H541.753V126.06ZM546.377 118.524C546.377 117.574 546.169 116.822 545.753 116.268C545.348 115.713 544.798 115.436 544.105 115.436C543.369 115.436 542.788 115.713 542.361 116.268C541.945 116.812 541.737 117.569 541.737 118.54C541.737 119.478 541.95 120.225 542.377 120.78C542.804 121.334 543.38 121.612 544.105 121.612C544.82 121.612 545.374 121.34 545.769 120.796C546.174 120.252 546.377 119.494 546.377 118.524ZM557.294 123.244C556.6 123.244 556.067 123.089 555.694 122.78C555.32 122.46 555.118 121.99 555.086 121.372H555.054C554.755 122.001 554.339 122.481 553.806 122.812C553.283 123.142 552.664 123.308 551.95 123.308C551.096 123.308 550.419 123.084 549.918 122.636C549.416 122.177 549.166 121.558 549.166 120.78C549.166 120.332 549.246 119.942 549.406 119.612C549.566 119.27 549.811 118.977 550.142 118.732C550.398 118.54 550.712 118.38 551.086 118.252C551.459 118.124 551.902 118.022 552.414 117.948L553.694 117.772C554.206 117.697 554.568 117.574 554.782 117.404C555.006 117.233 555.118 116.982 555.118 116.652C555.118 116.257 554.979 115.948 554.702 115.724C554.424 115.5 554.04 115.388 553.55 115.388C552.974 115.388 552.51 115.537 552.158 115.836C551.816 116.124 551.576 116.572 551.438 117.18L549.55 116.844C549.816 115.852 550.296 115.089 550.99 114.556C551.694 114.022 552.558 113.756 553.582 113.756C554.712 113.756 555.576 114.049 556.174 114.636C556.782 115.222 557.086 116.07 557.086 117.18V120.652C557.086 121.046 557.155 121.324 557.294 121.484C557.443 121.644 557.704 121.724 558.078 121.724C558.152 121.724 558.216 121.724 558.27 121.724C558.334 121.713 558.403 121.702 558.478 121.692V123.084C558.36 123.126 558.19 123.164 557.966 123.196C557.742 123.228 557.518 123.244 557.294 123.244ZM551.262 120.508C551.262 120.934 551.39 121.265 551.646 121.5C551.912 121.734 552.286 121.852 552.766 121.852C553.48 121.852 554.051 121.59 554.478 121.068C554.904 120.534 555.118 119.83 555.118 118.956V118.46C555.011 118.545 554.867 118.62 554.686 118.684C554.504 118.748 554.259 118.806 553.95 118.86L552.846 119.052C552.291 119.148 551.886 119.313 551.63 119.548C551.384 119.772 551.262 120.092 551.262 120.508ZM559.23 123.1V113.964H561.23V115.852H561.262C561.582 115.19 562.014 114.678 562.558 114.316C563.102 113.953 563.72 113.772 564.414 113.772C565.416 113.772 566.184 114.092 566.718 114.732C567.251 115.361 567.518 116.284 567.518 117.5V123.1H565.486V118.044C565.486 117.126 565.331 116.46 565.022 116.044C564.723 115.628 564.243 115.42 563.582 115.42C562.856 115.42 562.286 115.692 561.87 116.236C561.464 116.78 561.262 117.526 561.262 118.476V123.1H559.23ZM562.11 110.316C562.334 110.316 562.558 110.364 562.782 110.46C563.016 110.545 563.315 110.732 563.678 111.02C563.944 111.233 564.142 111.372 564.27 111.436C564.398 111.489 564.52 111.516 564.638 111.516C564.84 111.516 564.984 111.425 565.07 111.244C565.155 111.052 565.192 110.748 565.182 110.332L566.302 110.476C566.323 111.244 566.2 111.836 565.934 112.252C565.678 112.668 565.299 112.876 564.798 112.876C564.574 112.876 564.35 112.833 564.126 112.748C563.902 112.652 563.598 112.46 563.214 112.172C562.947 111.958 562.744 111.825 562.606 111.772C562.478 111.708 562.36 111.676 562.254 111.676C562.03 111.676 561.864 111.772 561.758 111.964C561.662 112.156 561.614 112.465 561.614 112.892L560.462 112.748C560.44 111.98 560.574 111.382 560.862 110.956C561.15 110.529 561.566 110.316 562.11 110.316ZM569.234 123.1V113.964H571.282V123.1H569.234ZM571.01 113.02H569.538L570.658 110.076H572.626L571.01 113.02ZM580.682 123.244C579.989 123.244 579.455 123.089 579.082 122.78C578.709 122.46 578.506 121.99 578.474 121.372H578.442C578.143 122.001 577.727 122.481 577.194 122.812C576.671 123.142 576.053 123.308 575.338 123.308C574.485 123.308 573.807 123.084 573.306 122.636C572.805 122.177 572.554 121.558 572.554 120.78C572.554 120.332 572.634 119.942 572.794 119.612C572.954 119.27 573.199 118.977 573.53 118.732C573.786 118.54 574.101 118.38 574.474 118.252C574.847 118.124 575.29 118.022 575.802 117.948L577.082 117.772C577.594 117.697 577.957 117.574 578.17 117.404C578.394 117.233 578.506 116.982 578.506 116.652C578.506 116.257 578.367 115.948 578.09 115.724C577.813 115.5 577.429 115.388 576.938 115.388C576.362 115.388 575.898 115.537 575.546 115.836C575.205 116.124 574.965 116.572 574.826 117.18L572.938 116.844C573.205 115.852 573.685 115.089 574.378 114.556C575.082 114.022 575.946 113.756 576.97 113.756C578.101 113.756 578.965 114.049 579.562 114.636C580.17 115.222 580.474 116.07 580.474 117.18V120.652C580.474 121.046 580.543 121.324 580.682 121.484C580.831 121.644 581.093 121.724 581.466 121.724C581.541 121.724 581.605 121.724 581.658 121.724C581.722 121.713 581.791 121.702 581.866 121.692V123.084C581.749 123.126 581.578 123.164 581.354 123.196C581.13 123.228 580.906 123.244 580.682 123.244ZM574.65 120.508C574.65 120.934 574.778 121.265 575.034 121.5C575.301 121.734 575.674 121.852 576.154 121.852C576.869 121.852 577.439 121.59 577.866 121.068C578.293 120.534 578.506 119.83 578.506 118.956V118.46C578.399 118.545 578.255 118.62 578.074 118.684C577.893 118.748 577.647 118.806 577.338 118.86L576.234 119.052C575.679 119.148 575.274 119.313 575.018 119.548C574.773 119.772 574.65 120.092 574.65 120.508ZM586.17 121.74C586.735 121.74 587.173 121.633 587.482 121.42C587.802 121.196 587.962 120.881 587.962 120.476C587.962 120.262 587.898 120.092 587.77 119.964C587.642 119.836 587.429 119.729 587.13 119.644C586.97 119.601 586.719 119.553 586.378 119.5C586.037 119.436 585.855 119.404 585.834 119.404C584.874 119.233 584.197 119.078 583.802 118.94C583.418 118.801 583.114 118.625 582.89 118.412C582.687 118.209 582.533 117.964 582.426 117.676C582.319 117.388 582.266 117.062 582.266 116.7C582.266 115.825 582.591 115.121 583.242 114.588C583.903 114.044 584.767 113.772 585.834 113.772C586.858 113.772 587.711 114.017 588.394 114.508C589.087 114.998 589.525 115.676 589.706 116.54L587.93 116.876C587.823 116.364 587.589 115.974 587.226 115.708C586.874 115.43 586.41 115.292 585.834 115.292C585.322 115.292 584.917 115.404 584.618 115.628C584.33 115.841 584.186 116.145 584.186 116.54C584.186 116.849 584.303 117.084 584.538 117.244C584.773 117.404 585.354 117.558 586.282 117.708C587.509 117.921 588.266 118.092 588.554 118.22C588.853 118.337 589.103 118.492 589.306 118.684C589.498 118.876 589.642 119.11 589.738 119.388C589.845 119.654 589.898 119.969 589.898 120.332C589.898 121.228 589.551 121.948 588.858 122.492C588.175 123.025 587.263 123.292 586.122 123.292C584.906 123.292 583.93 123.052 583.194 122.572C582.469 122.092 582.005 121.388 581.802 120.46L583.69 120.06C583.818 120.625 584.085 121.046 584.49 121.324C584.906 121.601 585.466 121.74 586.17 121.74Z" fill="white"/>
<defs>
<clipPath id="clip0_530_1529">
<rect width="46" height="8" fill="white" transform="matrix(-1 0 0 1 159.793 96.9141)"/>
</clipPath>
<clipPath id="clip1_530_1529">
<rect width="46" height="8" fill="white" transform="matrix(-1 0 0 1 453.793 96.9141)"/>
</clipPath>
</defs>
</svg>
