<svg width="1101" height="606" viewBox="0 0 1101 606" fill="none" xmlns="http://www.w3.org/2000/svg">
<path fill-rule="evenodd" clip-rule="evenodd" d="M265.429 2.60982C-15.4348 41.7338 -97.9968 399.304 137.929 554.805C384.952 717.62 689.796 459.704 581.831 191.757C530.369 64.0378 396.963 -15.7132 265.429 2.60982ZM654.532 5.42083C654.117 6.09183 655.273 388.461 656.212 561.087L656.429 601.087H659.929H663.429V574.587C663.429 384.876 661.524 5.96983 660.568 5.35183C659.017 4.35183 655.165 4.39583 654.532 5.42083ZM333.959 39.1298C551.862 66.0998 644.075 334.659 488.457 489.087C324.758 651.534 47.7583 543.071 36.4203 312.087C29.9493 180.261 130.715 58.4968 261.429 40.1878C267.479 39.3408 273.554 38.4698 274.929 38.2538C282.149 37.1148 322.524 37.7148 333.959 39.1298ZM800.692 54.5568C773.796 59.4408 752.492 77.9678 743.378 104.404C741.387 110.18 738.764 121.587 739.427 121.587C739.551 121.587 748.52 123.162 759.358 125.087C784.478 129.548 782.277 129.754 784.218 122.77C791.569 96.3288 826.493 89.3768 838.142 112.034C844.464 124.332 841.793 128.558 785.96 194.587L739.03 250.087L738.98 263.337L738.929 276.587H810.429H881.929V254.1V231.614L848.562 231.35L815.196 231.087L838.638 204.587C881.814 155.778 887.187 146.444 887.277 120.087C887.423 77.2688 846.44 46.2518 800.692 54.5568ZM989.264 54.6178C936.454 64.1058 910.322 132.489 928.425 213.828C947.902 301.341 1060.88 304.857 1081.38 218.587C1105.6 116.676 1063.27 41.3238 989.264 54.6178ZM325.429 90.5218C314.841 93.0998 308.927 101.184 310.97 110.288C312.509 117.143 317.941 120.392 331.574 122.611C337.64 123.598 339.221 124.305 338.386 125.656C337.337 127.355 326.641 126.639 322.07 124.565C319.672 123.477 317.582 122.587 317.424 122.587C317.266 122.587 315.694 124.837 313.929 127.587C309.688 134.196 310.72 135.26 299.474 112.678L289.56 92.7688L281.994 93.2988C272.96 93.9308 272.822 94.0468 269.715 103.587C268.372 107.712 264.833 118.062 261.851 126.587L256.429 142.087L256.125 136.193L255.821 130.3L244.463 130.979L233.106 131.658L232.525 124.372C232.205 120.365 231.603 112.587 231.186 107.087L230.429 97.0868L222.429 97.4418C218.029 97.6378 214.268 97.9488 214.072 98.1328C213.657 98.5218 215.696 134.53 216.576 142.38L217.17 147.673L221.3 147.133C223.571 146.837 233.529 146.144 243.429 145.594C274.265 143.882 273.64 143.991 274.929 140.088L276.035 136.736L284.12 136.411L292.205 136.087L293.748 139.329L295.292 142.571L303.86 141.94C313.709 141.215 313.783 141.184 312.072 138.444C310.165 135.39 311.241 135.191 316.082 137.702C328.431 144.108 349.455 140.206 354.43 130.585C360.673 118.513 352.944 110.536 331.679 107.102C329.342 106.725 327.929 105.948 327.929 105.042C327.929 103.064 335.81 103.093 340.583 105.087C345.753 107.247 346.084 107.1 349.781 100.993C352.984 95.7018 353.05 95.3958 351.281 94.0908C346.447 90.5268 333.021 88.6738 325.429 90.5218ZM1017.69 102.488C1049.56 118.939 1046.87 222.699 1014.33 232.16C990.016 239.227 975.163 221.039 971.903 180.208C967.392 123.723 988.715 87.5308 1017.69 102.488ZM284.999 119.494C287.036 124.045 286.755 124.587 282.354 124.587H279.113L280.706 119.605C282.49 114.025 282.55 114.024 284.999 119.494ZM367.429 146.53C336.209 150.281 325.987 167.475 329.894 209.663C330.425 215.396 331.572 229.987 332.443 242.087C335.183 280.154 337.566 288.485 348.6 298.569C365.283 313.817 404.118 311.114 417.776 293.756C426.788 282.302 427.73 275.371 424.998 240.587C423.853 226.012 422.482 208.37 421.949 201.382C418.619 157.655 403.281 142.223 367.429 146.53ZM268.929 154.529C235.142 159.168 227.549 173.729 231.876 225.587C233.092 240.162 234.513 257.262 235.033 263.587C238.694 308.048 260.665 325.383 298.929 314C329.055 305.038 332.719 286.179 321.957 195.449C318.35 165.032 299.33 150.355 268.929 154.529ZM203.015 162.732C196.001 163.465 194.341 163.984 193.043 165.849C186.587 175.124 173.514 184.712 161.2 189.203L153.692 191.941L154.302 197.014C154.637 199.804 154.916 203.948 154.92 206.223L154.929 210.359L165.904 210.223C183.718 210.002 182.13 205.267 187.466 274.523C191.599 328.152 187.917 321.122 210.927 319.318C233.923 317.515 231.317 321.028 228.968 294.996C227.88 282.946 226.54 267.237 225.991 260.087C225.441 252.937 223.855 232.237 222.467 214.087C219.943 181.101 219.319 173.819 218.332 165.837C217.731 160.975 218.445 161.12 203.015 162.732ZM377.227 171.837C379.361 173.425 380.66 180.386 381.914 196.949C382.461 204.175 384.067 224.712 385.482 242.587C388.16 276.399 388.101 280.889 384.952 282.575C377.075 286.79 374.983 281.629 372.934 252.926C372.378 245.138 371.025 227.42 369.926 213.553C366.657 172.286 367.944 164.931 377.227 171.837ZM279.189 180.337C281.285 182.672 281.613 184.974 284.004 214.087C285.133 227.837 286.475 243.587 286.987 249.087C290.247 284.129 289.512 291.587 282.797 291.587C277.121 291.587 277.332 292.7 272.818 239.087C268.127 183.381 268.128 183.388 270.929 180.587C273.396 178.12 277.1 178.008 279.189 180.337ZM424.929 312.52C354.907 322.249 339.136 416.912 402.429 447.579C463.797 477.314 527.665 413.443 497.919 352.087C484.805 325.038 454.209 308.452 424.929 312.52ZM268.929 326.916L243.429 329.087L243.091 332.063C242.905 333.7 243.45 342.25 244.302 351.063C246.076 369.417 247.315 383.939 249.465 411.587C252.712 453.324 254.078 468.11 254.74 468.682C255.741 469.547 292.33 466.522 292.959 465.523C293.251 465.059 293.138 460.722 292.708 455.884C290.745 433.775 290.268 428.074 290.366 427.899C290.424 427.796 293.87 427.404 298.024 427.027L305.577 426.343L311.206 435.215C314.302 440.095 319.428 448.25 322.596 453.337L328.356 462.587L332.893 462.575C339.014 462.558 371.17 459.679 371.754 459.096C372.162 458.688 348.43 421.94 343.741 415.719C341.976 413.378 342.003 413.298 346.192 408.622C369.62 382.473 358.549 338.995 325.413 327.025C318.088 324.378 299.172 324.342 268.929 326.916ZM797.892 327.079C777.037 331.238 758.81 345.105 748.503 364.654C743.853 373.474 738.365 391.322 739.832 392.856C740.419 393.47 779.202 400.587 781.959 400.587C782.362 400.587 783.215 398.507 783.856 395.964C789.197 374.752 809.429 364.747 828.306 373.983C847.986 383.611 844.383 397.515 812.429 435.262C801.429 448.256 780.397 473.107 765.692 490.487L738.955 522.087L738.942 535.344L738.929 548.6L810.179 548.344L881.429 548.087L881.698 525.85L881.967 503.614L848.558 503.35L815.149 503.087L825.289 491.525C830.866 485.165 843.115 471.215 852.509 460.525C879.381 429.944 885.401 418.906 887.38 396.587C891.38 351.469 847.295 317.226 797.892 327.079ZM956.929 329.956C956.929 330.159 956.229 334.321 955.373 339.206C954.516 344.091 951.596 362.487 948.883 380.087C946.17 397.687 942.834 419.062 941.468 427.587C940.103 436.112 938.973 443.841 938.957 444.762C938.849 451.149 964.896 460.234 968.656 455.12C989.122 427.289 1043.07 430.53 1051.07 460.072C1062.34 501.738 994.648 523.8 973.986 485.193C972.163 481.786 960.74 488.032 934.656 506.696L931.884 508.68L936.3 514.42C982.881 574.955 1083.83 558.601 1098.38 488.162C1111.5 424.634 1051.1 373.978 995.648 402.007L988.867 405.435L989.44 402.261C989.755 400.515 991.033 393.237 992.28 386.087L994.548 373.087L1039.74 372.827L1084.93 372.567V351.077V329.587H1020.93C985.729 329.587 956.929 329.753 956.929 329.956ZM153.929 335.735C141.004 336.779 129.482 337.84 128.324 338.093C125.905 338.621 125.846 335.626 128.969 370.587C130.074 382.962 131.417 398.712 131.953 405.587C135.485 450.858 137.754 477.74 138.067 478.021C138.77 478.652 175.441 475.369 176.261 474.601C176.719 474.173 176.334 465.642 175.407 455.643C173.413 434.154 171.789 436.977 186.938 435.599C234.203 431.299 256.642 393.901 234.563 356.225C222.357 335.398 206.854 331.459 153.929 335.735ZM444.574 355.758C474.603 368.626 466.277 412.619 433.773 412.823C404.382 413.007 392.957 374.611 417.682 358.745C425.613 353.656 436.776 352.416 444.574 355.758ZM310.688 361.582C320.499 367.563 320.558 383.585 310.791 389.525C307.929 391.265 305.565 391.646 289.929 392.888C287.166 393.108 287.294 393.778 285.541 369.906L284.868 360.726L287.648 360.306C296.234 359.011 307.494 359.634 310.688 361.582ZM194.429 370.435C210.741 379.664 201.599 400.051 180.587 401.305L171.233 401.863L170.62 395.475C170.282 391.962 169.704 384.736 169.336 379.418L168.667 369.749L173.048 369.172C185.673 367.508 189.673 367.744 194.429 370.435Z" fill="#FFC300"/>
</svg>
