<svg width="1728" height="826" viewBox="0 0 1728 826" fill="none" xmlns="http://www.w3.org/2000/svg">
<g clip-path="url(#clip0_569_438)">
<mask id="path-1-inside-1_569_438" fill="white">
<path d="M0 -0.00195312H1728V825.998H0V-0.00195312Z"/>
</mask>
<path d="M863.114 -796.027C1031.51 -796.027 1184.09 -666.283 1294.6 -456.242C1405.1 -246.224 1473.46 43.9477 1473.46 364.49C1473.46 685.033 1405.1 975.205 1294.6 1185.22C1184.09 1395.26 1031.51 1525.01 863.114 1525.01C694.713 1525.01 542.133 1395.26 431.624 1185.22C321.127 975.205 252.768 685.033 252.768 364.49C252.768 43.9477 321.127 -246.224 431.624 -456.242C542.133 -666.283 694.713 -796.027 863.114 -796.027Z" stroke="#E85324" stroke-opacity="0.2" stroke-width="1.01134"/>
<path d="M2025.17 363.36C2025.17 531.761 1895.42 684.34 1685.38 794.85C1475.36 905.347 1185.19 973.706 864.649 973.706C544.106 973.706 253.934 905.347 43.9161 794.85C-166.125 684.34 -295.869 531.761 -295.869 363.36C-295.869 194.959 -166.125 42.3795 43.9161 -68.1299C253.934 -178.627 544.106 -246.986 864.649 -246.986C1185.19 -246.986 1475.36 -178.627 1685.38 -68.1299C1895.42 42.3795 2025.17 194.96 2025.17 363.36Z" stroke="#E85324" stroke-opacity="0.2" stroke-width="1.01134"/>
<path d="M42.95 -455.035C162.027 -574.112 361.66 -590.259 588.323 -519.88C814.962 -449.508 1068.48 -292.663 1295.14 -66.0051C1521.8 160.653 1678.64 414.173 1749.01 640.811C1819.39 867.474 1803.25 1067.11 1684.17 1186.18C1565.09 1305.26 1365.46 1321.41 1138.8 1251.03C912.157 1180.66 658.637 1023.81 431.98 797.155C205.322 570.497 48.4764 316.977 -21.8953 90.3387C-92.2747 -136.325 -76.1274 -335.958 42.95 -455.035Z" stroke="#E85324" stroke-opacity="0.2" stroke-width="1.01134"/>
<path d="M1684.45 -456.917C1803.53 -337.84 1819.67 -138.207 1749.29 88.456C1678.92 315.094 1522.08 568.614 1295.42 795.272C1068.76 1021.93 815.242 1178.78 588.604 1249.15C361.941 1319.53 162.308 1303.38 43.2308 1184.3C-75.8466 1065.22 -91.9939 865.592 -21.6145 638.928C48.7572 412.29 205.603 158.77 432.26 -67.8877C658.918 -294.546 912.438 -451.391 1139.08 -521.763C1365.74 -592.142 1565.37 -575.995 1684.45 -456.917Z" stroke="#E85324" stroke-opacity="0.2" stroke-width="1.01134"/>
<path d="M-208.059 -77.9359C-143.614 -233.518 34.6434 -324.832 270.986 -346.55C507.302 -368.266 801.546 -320.377 1097.69 -197.711C1393.83 -75.0447 1635.76 99.1551 1787.5 281.611C1939.26 464.088 2000.74 654.704 1936.3 810.286C1871.85 965.868 1693.6 1057.18 1457.25 1078.9C1220.94 1100.62 926.693 1052.73 630.55 930.062C334.408 807.395 92.4835 633.195 -59.2622 450.739C-211.025 268.263 -272.503 77.6461 -208.059 -77.9359Z" stroke="#E85324" stroke-opacity="0.2" stroke-width="1.01134"/>
<path d="M1307.76 -707.848C1463.34 -643.403 1554.66 -465.146 1576.38 -228.803C1598.09 7.51305 1550.2 301.757 1427.54 597.9C1304.87 894.042 1130.67 1135.97 948.215 1287.71C765.738 1439.47 575.122 1500.95 419.54 1436.51C263.958 1372.06 172.644 1193.81 150.926 957.464C129.21 721.148 177.098 426.904 299.765 130.761C422.431 -165.382 596.631 -407.306 779.087 -559.051C961.564 -710.814 1152.18 -772.292 1307.76 -707.848Z" stroke="#E85324" stroke-opacity="0.2" stroke-width="1.01134"/>
<path d="M-207.488 809.857C-271.932 654.275 -210.454 463.659 -58.6914 281.182C93.0543 98.726 334.978 -75.4738 631.121 -198.14C927.264 -320.806 1221.51 -368.695 1457.82 -346.979C1694.17 -325.261 1872.42 -233.947 1936.87 -78.365C2001.31 77.2171 1939.83 267.833 1788.07 450.31C1636.33 632.766 1394.4 806.966 1098.26 929.633C802.117 1052.3 507.873 1100.19 271.557 1078.47C35.2139 1056.75 -143.044 965.439 -207.488 809.857Z" stroke="#E85324" stroke-opacity="0.2" stroke-width="1.01134"/>
<path d="M418.949 -707.411C574.531 -771.855 765.147 -710.376 947.623 -558.614C1130.08 -406.869 1304.28 -164.945 1426.95 131.198C1549.61 427.341 1597.5 721.585 1575.78 957.901C1554.07 1194.24 1462.75 1372.5 1307.17 1436.95C1151.59 1501.39 960.972 1439.91 778.496 1288.15C596.039 1136.4 421.839 894.48 299.173 598.337C176.507 302.194 128.618 7.9501 150.334 -228.366C172.052 -464.709 263.367 -642.967 418.949 -707.411Z" stroke="#E85324" stroke-opacity="0.2" stroke-width="1.01134"/>
<path d="M812.498 -794.862C980.739 -802.208 1138.83 -679.242 1258.4 -474.222C1377.95 -269.224 1458.9 17.6903 1472.88 337.928C1486.87 658.165 1431.23 951.043 1330 1165.68C1228.76 1380.34 1081.98 1516.62 913.74 1523.96C745.5 1531.31 587.406 1408.34 467.84 1203.32C348.287 998.325 267.335 711.411 253.354 391.174C239.372 70.9362 295.009 -221.942 396.24 -436.579C497.482 -651.241 644.258 -787.517 812.498 -794.862Z" stroke="#E85324" stroke-opacity="0.2" stroke-width="1.01134"/>
<path d="M2024.01 312.729C2031.35 480.969 1908.39 639.063 1703.37 758.628C1498.37 878.181 1211.46 959.133 891.218 973.115C570.98 987.096 278.103 931.459 63.4649 830.228C-151.196 728.986 -287.472 582.211 -294.818 413.971C-302.164 245.73 -179.198 87.6362 25.8223 -31.9299C230.82 -151.483 517.734 -232.434 837.972 -246.416C1158.21 -260.398 1451.09 -204.761 1665.72 -103.53C1880.39 -2.28719 2016.66 144.488 2024.01 312.729Z" stroke="#E85324" stroke-opacity="0.2" stroke-width="1.01134"/>
<path d="M7.97986 -418.424C121.75 -542.582 320.488 -567.422 550.006 -506.996C779.498 -446.577 1039.62 -300.94 1275.95 -84.3841C1512.28 132.171 1680.03 378.608 1760.22 601.961C1840.42 825.339 1833 1025.49 1719.23 1149.64C1605.46 1273.8 1406.72 1298.64 1177.2 1238.22C947.708 1177.8 687.588 1032.16 451.259 815.605C214.93 599.049 47.1757 352.612 -33.0148 129.259C-113.214 -94.1186 -105.79 -294.266 7.97986 -418.424Z" stroke="#E85324" stroke-opacity="0.2" stroke-width="1.01134"/>
<path d="M1647.84 -491.904C1772 -378.134 1796.84 -179.395 1736.41 50.1218C1676 279.614 1530.36 539.734 1313.8 776.063C1097.25 1012.39 850.81 1180.15 627.457 1260.34C404.079 1340.54 203.932 1333.11 79.7738 1219.34C-44.3843 1105.57 -69.2241 906.834 -8.7986 677.316C51.6203 447.824 197.258 187.704 413.813 -48.6249C630.369 -284.954 876.806 -452.708 1100.16 -532.899C1323.54 -613.098 1523.68 -605.674 1647.84 -491.904Z" stroke="#E85324" stroke-opacity="0.2" stroke-width="1.01134"/>
<path d="M-226.345 -30.7312C-168.748 -188.976 5.35659 -287.978 240.527 -319.985C475.671 -351.988 771.724 -316.98 1072.94 -207.348C1374.15 -97.7162 1623.44 65.7652 1783 241.429C1942.58 417.112 2012.31 604.865 1954.71 763.11C1897.12 921.355 1723.01 1020.36 1487.84 1052.36C1252.7 1084.37 956.646 1049.36 655.434 939.727C354.223 830.095 104.93 666.614 -54.6297 490.95C-214.207 315.267 -283.941 127.514 -226.345 -30.7312Z" stroke="#E85324" stroke-opacity="0.2" stroke-width="1.01134"/>
<path d="M1260.56 -726.163C1418.81 -668.567 1517.81 -494.462 1549.82 -259.292C1581.82 -24.1474 1546.81 271.905 1437.18 573.117C1327.55 874.328 1164.07 1123.62 988.403 1283.18C812.72 1442.76 624.967 1512.49 466.723 1454.9C308.478 1397.3 209.474 1223.19 177.468 988.024C145.465 752.88 180.473 456.827 290.105 155.616C399.737 -145.596 563.218 -394.888 738.882 -554.448C914.565 -714.025 1102.32 -783.76 1260.56 -726.163Z" stroke="#E85324" stroke-opacity="0.2" stroke-width="1.01134"/>
<path d="M-187.045 856.189C-258.214 703.566 -205.108 510.45 -61.45 321.528C82.1926 132.626 316.288 -51.9605 606.798 -187.428C897.308 -322.895 1189.18 -383.572 1426.22 -372.185C1663.29 -360.797 1845.36 -277.345 1916.53 -124.723C1987.7 27.9005 1934.59 221.017 1790.93 409.94C1647.29 598.842 1413.2 783.428 1122.69 918.895C832.175 1054.36 540.3 1115.04 303.261 1103.65C66.1959 1092.26 -115.875 1008.81 -187.045 856.189Z" stroke="#E85324" stroke-opacity="0.2" stroke-width="1.01134"/>
<path d="M372.615 -686.961C525.238 -758.13 718.354 -705.024 907.277 -561.366C1096.18 -417.723 1280.77 -183.628 1416.23 106.882C1551.7 397.392 1612.38 689.267 1600.99 926.306C1589.6 1163.37 1506.15 1345.44 1353.53 1416.61C1200.9 1487.78 1007.79 1434.68 818.865 1291.02C629.963 1147.37 445.376 913.279 309.909 622.769C174.442 332.259 113.765 40.3836 125.152 -196.655C136.54 -433.72 219.992 -615.791 372.615 -686.961Z" stroke="#E85324" stroke-opacity="0.2" stroke-width="1.01134"/>
<path d="M761.971 -791.495C929.73 -806.172 1093.04 -690.22 1221.43 -490.61C1349.81 -291.022 1443.2 -7.91162 1471.14 311.411C1499.08 630.734 1456.27 925.76 1364.5 1144.61C1272.71 1363.48 1132.02 1506.03 964.262 1520.71C796.502 1535.38 633.195 1419.43 504.8 1219.82C376.419 1020.23 283.029 737.124 255.092 417.802C227.155 98.4787 269.964 -196.547 361.737 -415.396C453.519 -634.269 594.211 -776.818 761.971 -791.495Z" stroke="#E85324" stroke-opacity="0.2" stroke-width="1.01134"/>
<path d="M2020.64 262.195C2035.32 429.955 1919.37 593.262 1719.76 721.657C1520.17 850.038 1237.06 943.427 917.734 971.364C598.411 999.301 303.386 956.492 84.5367 864.72C-134.336 772.937 -276.885 632.247 -291.562 464.487C-306.239 296.727 -190.287 133.419 9.32312 5.02421C208.911 -123.357 492.021 -216.746 811.344 -244.683C1130.67 -272.62 1425.69 -229.811 1644.54 -138.039C1863.41 -46.2562 2005.96 94.4352 2020.64 262.195Z" stroke="#E85324" stroke-opacity="0.2" stroke-width="1.01134"/>
<path d="M-25.3556 -380.324C82.8904 -509.326 280.356 -542.811 512.291 -492.454C744.2 -442.103 1010.43 -307.95 1255.98 -101.91C1501.52 104.131 1679.87 343.017 1769.73 562.659C1859.59 782.326 1860.91 982.606 1752.66 1111.61C1644.41 1240.61 1446.95 1274.1 1215.01 1223.74C983.104 1173.39 716.879 1039.24 471.329 833.195C225.779 627.154 47.435 388.269 -42.4217 168.626C-132.288 -51.0404 -133.602 -251.322 -25.3556 -380.324Z" stroke="#E85324" stroke-opacity="0.2" stroke-width="1.01134"/>
<path d="M1609.73 -525.265C1738.73 -417.019 1772.22 -219.553 1721.86 12.3816C1671.51 244.291 1537.36 510.516 1331.32 756.066C1125.28 1001.62 886.391 1179.96 666.748 1269.82C447.082 1359.68 246.801 1361 117.799 1252.75C-11.2039 1144.51 -44.689 947.039 5.66765 715.104C56.0187 483.195 190.171 216.97 396.212 -28.5801C602.253 -274.13 841.138 -452.474 1060.78 -542.331C1280.45 -632.197 1480.73 -633.511 1609.73 -525.265Z" stroke="#E85324" stroke-opacity="0.2" stroke-width="1.01134"/>
<path d="M-242.552 17.228C-191.913 -143.379 -22.2923 -249.881 211.258 -292.115C444.782 -334.345 742.08 -312.284 1047.79 -215.895C1353.49 -119.506 1609.68 32.9461 1776.75 201.483C1943.84 370.038 2021.7 554.57 1971.06 715.177C1920.42 875.783 1750.8 982.287 1517.25 1024.52C1283.72 1066.75 986.425 1044.69 680.718 948.3C375.011 851.911 118.825 699.459 -48.2451 530.923C-215.334 362.368 -293.191 177.835 -242.552 17.228Z" stroke="#E85324" stroke-opacity="0.2" stroke-width="1.01134"/>
<path d="M1212.61 -742.409C1373.22 -691.77 1479.72 -522.149 1521.95 -288.599C1564.18 -55.0741 1542.12 242.224 1445.73 547.931C1349.34 853.638 1196.89 1109.82 1028.36 1276.89C859.8 1443.98 675.268 1521.84 514.661 1471.2C354.054 1420.56 247.551 1250.94 205.317 1017.39C163.088 783.866 185.149 486.568 281.538 180.862C377.927 -124.845 530.379 -381.031 698.915 -548.102C867.47 -715.19 1052 -793.048 1212.61 -742.409Z" stroke="#E85324" stroke-opacity="0.2" stroke-width="1.01134"/>
<path d="M-164.6 901.582C-242.358 752.209 -197.727 556.96 -62.4463 361.951C72.8198 166.964 298.641 -27.6584 582.966 -175.669C867.29 -323.679 1156.24 -397.03 1393.55 -395.993C1630.89 -394.956 1816.42 -319.526 1894.18 -170.153C1971.94 -20.7792 1927.31 174.47 1792.03 369.479C1656.76 564.467 1430.94 759.089 1146.62 907.099C862.294 1055.11 573.343 1128.46 336.033 1127.42C98.6971 1126.39 -86.841 1050.96 -164.6 901.582Z" stroke="#E85324" stroke-opacity="0.2" stroke-width="1.01134"/>
<path d="M327.219 -664.51C476.592 -742.269 671.841 -697.637 866.85 -562.356C1061.84 -427.09 1256.46 -201.269 1404.47 83.0553C1552.48 367.38 1625.83 656.331 1624.79 893.64C1623.76 1130.98 1548.33 1316.51 1398.95 1394.27C1249.58 1472.03 1054.33 1427.4 859.322 1292.12C664.334 1156.85 469.712 931.033 321.702 646.708C173.692 362.383 100.341 73.4329 101.378 -163.877C102.414 -401.213 177.845 -586.751 327.219 -664.51Z" stroke="#E85324" stroke-opacity="0.2" stroke-width="1.01134"/>
<path d="M711.637 -785.93C878.597 -807.91 1046.81 -699.192 1183.79 -505.372C1320.75 -311.574 1426.4 -32.8071 1468.24 284.993C1510.08 602.794 1480.18 899.406 1398.04 1122.05C1315.89 1344.72 1181.55 1493.27 1014.59 1515.25C847.633 1537.23 679.423 1428.51 542.443 1234.69C405.479 1040.89 299.829 762.126 257.99 444.326C216.151 126.525 246.05 -170.087 328.189 -392.731C410.337 -615.399 544.677 -763.949 711.637 -785.93Z" stroke="#E85324" stroke-opacity="0.2" stroke-width="1.01134"/>
<path d="M2015.07 211.859C2037.05 378.819 1928.33 547.028 1734.51 684.007C1540.72 820.972 1261.95 926.621 944.148 968.461C626.348 1010.3 329.736 980.4 107.092 898.261C-115.576 816.113 -264.126 681.774 -286.107 514.814C-308.087 347.854 -199.369 179.645 -5.5493 42.6649C188.249 -94.2998 467.016 -199.949 784.816 -241.788C1102.62 -283.628 1399.23 -253.728 1621.87 -171.589C1844.54 -89.4411 1993.09 44.8985 2015.07 211.859Z" stroke="#E85324" stroke-opacity="0.2" stroke-width="1.01134"/>
<path d="M-57.0028 -340.802C45.5132 -474.403 241.331 -516.469 475.241 -476.278C709.126 -436.09 980.949 -313.678 1235.25 -118.544C1489.56 76.5902 1678.15 307.469 1777.5 522.983C1876.87 738.521 1886.91 938.553 1784.4 1072.15C1681.88 1205.76 1486.06 1247.82 1252.15 1207.63C1018.27 1167.44 746.446 1045.03 492.142 849.897C237.839 654.763 49.2442 423.884 -50.1077 208.37C-149.47 -7.16775 -159.519 -207.201 -57.0028 -340.802Z" stroke="#E85324" stroke-opacity="0.2" stroke-width="1.01134"/>
<path d="M1570.21 -556.933C1703.81 -454.417 1745.88 -258.599 1705.69 -24.6889C1665.5 209.196 1543.09 481.019 1347.95 735.323C1152.82 989.626 921.941 1178.22 706.427 1277.57C490.89 1376.94 290.857 1386.98 157.256 1284.47C23.6544 1181.95 -18.4121 986.135 21.7797 752.224C61.9671 518.339 184.38 246.516 379.514 -7.78759C574.647 -262.091 805.526 -450.686 1021.04 -550.037C1236.58 -649.4 1436.61 -659.448 1570.21 -556.933Z" stroke="#E85324" stroke-opacity="0.2" stroke-width="1.01134"/>
<path d="M-256.65 65.8388C-213.065 -96.8237 -48.2511 -210.624 183.234 -263.005C414.695 -315.38 712.672 -306.308 1022.29 -223.346C1331.91 -140.383 1594.5 0.748716 1768.77 161.837C1943.05 322.944 2028.88 503.904 1985.3 666.567C1941.71 829.23 1776.9 943.03 1545.41 995.412C1313.95 1047.79 1015.97 1038.71 706.354 955.752C396.734 872.79 134.142 731.658 -40.121 570.569C-214.403 409.463 -300.236 228.501 -256.65 65.8388Z" stroke="#E85324" stroke-opacity="0.2" stroke-width="1.01134"/>
<path d="M1163.99 -756.542C1326.65 -712.956 1440.45 -548.143 1492.83 -316.657C1545.21 -85.1969 1536.14 212.781 1453.17 522.401C1370.21 832.021 1229.08 1094.61 1067.99 1268.88C906.885 1443.16 725.925 1528.99 563.262 1485.41C400.6 1441.82 286.799 1277.01 234.418 1045.52C182.042 814.06 191.114 516.083 274.077 206.462C357.039 -103.158 498.171 -365.75 659.26 -540.013C820.366 -714.295 1001.33 -800.127 1163.99 -756.542Z" stroke="#E85324" stroke-opacity="0.2" stroke-width="1.01134"/>
<path d="M-140.191 945.96C-224.391 800.121 -188.319 603.111 -61.6733 402.387C64.9588 201.684 282.076 -2.60251 559.674 -162.874C837.272 -323.145 1122.75 -409.03 1359.88 -418.346C1597.03 -427.662 1785.68 -360.397 1869.88 -214.558C1954.08 -68.7183 1918.01 128.292 1791.37 329.016C1664.73 529.719 1447.62 734.005 1170.02 894.277C892.422 1054.55 606.946 1140.43 369.816 1149.75C132.661 1159.07 -55.9909 1091.8 -140.191 945.96Z" stroke="#E85324" stroke-opacity="0.2" stroke-width="1.01134"/>
<path d="M282.843 -640.098C428.682 -724.298 625.692 -688.225 826.416 -561.58C1027.12 -434.947 1231.41 -217.831 1391.68 59.7672C1551.95 337.365 1637.83 622.841 1647.15 859.97C1656.46 1097.13 1589.2 1285.78 1443.36 1369.98C1297.52 1454.18 1100.51 1418.11 899.786 1291.46C699.084 1164.83 494.797 947.711 334.526 670.113C174.255 392.515 88.3695 107.039 79.0539 -130.09C69.7375 -367.245 137.003 -555.897 282.843 -640.098Z" stroke="#E85324" stroke-opacity="0.2" stroke-width="1.01134"/>
<path d="M661.602 -778.169C827.444 -807.411 1000.24 -706.133 1145.54 -518.473C1290.83 -330.834 1408.53 -56.9405 1464.2 258.732C1519.86 574.405 1502.93 872.039 1430.58 1098.05C1358.22 1324.09 1230.49 1478.36 1064.65 1507.6C898.803 1536.85 726.011 1435.57 580.707 1247.91C435.419 1060.27 317.711 786.376 262.049 470.703C206.388 155.03 223.32 -142.604 295.67 -368.618C368.027 -594.658 495.759 -748.927 661.602 -778.169Z" stroke="#E85324" stroke-opacity="0.2" stroke-width="1.01134"/>
<path d="M2007.32 161.812C2036.56 327.655 1935.28 500.446 1747.62 645.75C1559.98 791.037 1286.09 908.746 970.415 964.407C654.742 1020.07 357.108 1003.14 131.093 930.787C-94.9461 858.43 -249.214 730.698 -278.457 564.856C-307.699 399.014 -206.422 226.222 -18.7613 80.918C168.878 -64.3696 442.771 -182.078 758.444 -237.74C1074.12 -293.402 1371.75 -276.469 1597.77 -204.119C1823.81 -131.762 1978.07 -4.02992 2007.32 161.812Z" stroke="#E85324" stroke-opacity="0.2" stroke-width="1.01134"/>
<path d="M-86.8859 -299.937C9.70492 -437.882 203.501 -488.45 438.942 -458.499C674.357 -428.552 951.261 -318.113 1213.83 -134.257C1476.41 49.5987 1674.89 272.031 1783.55 483.006C1892.22 694.005 1910.99 893.409 1814.39 1031.35C1717.8 1169.3 1524.01 1219.87 1288.57 1189.92C1053.15 1159.97 776.247 1049.53 513.674 865.676C251.101 681.82 52.6151 459.387 -56.0428 248.412C-164.713 37.4137 -183.477 -161.991 -86.8859 -299.937Z" stroke="#E85324" stroke-opacity="0.2" stroke-width="1.01134"/>
<path d="M1529.34 -586.84C1667.28 -490.249 1717.85 -296.453 1687.9 -61.0123C1657.95 174.403 1547.51 451.307 1363.66 713.88C1179.8 976.453 957.369 1174.94 746.394 1283.6C535.396 1392.27 335.992 1411.03 198.046 1314.44C60.1002 1217.85 9.53218 1024.05 39.4827 788.612C69.43 553.197 179.869 276.293 363.725 13.7198C547.581 -248.853 770.013 -447.339 980.988 -555.997C1191.99 -664.667 1391.39 -683.431 1529.34 -586.84Z" stroke="#E85324" stroke-opacity="0.2" stroke-width="1.01134"/>
<path d="M-268.617 115.026C-232.168 -49.3831 -72.4749 -170.264 156.506 -232.693C385.461 -295.114 683.551 -299.049 996.495 -229.67C1309.44 -160.292 1577.94 -30.7487 1759.06 122.585C1940.2 275.936 2033.85 452.981 1997.4 617.39C1960.95 781.799 1801.26 902.68 1572.28 965.109C1343.32 1027.53 1045.23 1031.46 732.289 962.087C419.344 892.709 150.846 763.165 -30.2774 609.831C-211.421 456.48 -305.065 279.435 -268.617 115.026Z" stroke="#E85324" stroke-opacity="0.2" stroke-width="1.01134"/>
<path d="M1114.8 -768.542C1279.21 -732.093 1400.09 -572.4 1462.52 -343.419C1524.94 -114.464 1528.88 183.626 1459.5 496.57C1390.12 809.514 1260.58 1078.01 1107.24 1259.14C953.892 1440.28 776.847 1533.92 612.438 1497.48C448.029 1461.03 327.148 1301.33 264.719 1072.35C202.298 843.398 198.363 545.308 267.741 232.364C337.12 -80.5806 466.663 -349.079 619.997 -530.202C773.348 -711.346 950.393 -804.99 1114.8 -768.542Z" stroke="#E85324" stroke-opacity="0.2" stroke-width="1.01134"/>
<path d="M-113.873 989.224C-204.354 847.196 -176.91 648.801 -59.1401 442.743C58.617 236.708 266.616 23.1454 536.959 -149.082C807.302 -321.309 1088.76 -419.565 1325.26 -439.215C1561.78 -458.867 1753.19 -399.895 1843.67 -257.867C1934.15 -115.839 1906.71 82.5567 1788.94 288.614C1671.18 494.649 1463.18 708.212 1192.84 880.44C922.494 1052.67 641.036 1150.92 404.538 1170.57C168.015 1190.22 -23.3914 1131.25 -113.873 989.224Z" stroke="#E85324" stroke-opacity="0.2" stroke-width="1.01134"/>
<path d="M239.571 -613.77C381.599 -704.252 579.994 -676.807 786.052 -559.038C992.086 -441.28 1205.65 -233.281 1377.88 37.0616C1550.1 307.404 1648.36 588.862 1668.01 825.36C1687.66 1061.88 1628.69 1253.29 1486.66 1343.77C1344.63 1434.25 1146.24 1406.81 940.18 1289.04C734.146 1171.28 520.583 963.282 348.355 692.939C176.128 422.596 77.8722 141.138 58.2221 -95.3591C38.57 -331.882 97.5431 -523.289 239.571 -613.77Z" stroke="#E85324" stroke-opacity="0.2" stroke-width="1.01134"/>
<path d="M611.944 -768.232C776.353 -804.681 953.398 -711.036 1106.75 -529.893C1260.08 -348.769 1389.63 -80.2712 1459 232.673C1528.38 545.618 1524.45 843.707 1462.03 1072.66C1399.6 1301.64 1278.72 1461.34 1114.31 1497.79C949.899 1534.23 772.854 1440.59 619.503 1259.45C466.169 1078.32 336.625 809.824 267.247 496.879C197.869 183.935 201.803 -114.155 264.225 -343.11C326.654 -572.091 447.535 -731.784 611.944 -768.232Z" stroke="#E85324" stroke-opacity="0.2" stroke-width="1.01134"/>
<path d="M1997.39 112.152C2033.84 276.561 1940.2 453.606 1759.05 606.957C1577.93 760.291 1309.43 889.834 996.488 959.212C683.543 1028.59 385.454 1024.66 156.499 962.235C-72.4821 899.806 -232.175 778.925 -268.624 614.516C-305.072 450.107 -211.428 273.062 -30.2844 119.711C150.839 -33.623 419.337 -163.167 732.282 -232.545C1045.23 -301.923 1343.32 -297.989 1572.27 -235.567C1801.25 -173.138 1960.95 -52.2567 1997.39 112.152Z" stroke="#E85324" stroke-opacity="0.2" stroke-width="1.01134"/>
<path d="M-114.968 -257.814C-24.4862 -399.842 166.92 -458.815 403.443 -439.162C639.94 -419.512 921.398 -321.257 1191.74 -149.029C1462.08 23.1983 1670.08 236.761 1787.84 442.796C1905.61 648.854 1933.05 847.249 1842.57 989.277C1752.09 1131.3 1560.69 1190.28 1324.16 1170.63C1087.66 1150.98 806.207 1052.72 535.864 880.492C265.521 708.265 57.5215 494.702 -60.2356 288.667C-178.006 82.6096 -205.45 -115.787 -114.968 -257.814Z" stroke="#E85324" stroke-opacity="0.2" stroke-width="1.01134"/>
<path d="M1487.21 -614.939C1629.24 -524.457 1688.21 -333.051 1668.56 -96.5278C1648.91 139.969 1550.66 421.427 1378.43 691.77C1206.2 962.113 992.638 1170.11 786.603 1287.87C580.546 1405.64 382.15 1433.08 240.123 1342.6C98.0948 1252.12 39.1217 1060.71 58.7739 824.191C78.424 587.694 176.68 306.236 348.907 35.8928C521.134 -234.45 734.698 -442.449 940.732 -560.206C1146.79 -677.976 1345.19 -705.42 1487.21 -614.939Z" stroke="#E85324" stroke-opacity="0.2" stroke-width="1.01134"/>
<path d="M-278.414 164.685C-249.171 -1.15678 -94.9028 -128.888 131.137 -201.245C357.151 -273.595 654.786 -290.528 970.458 -234.866C1286.13 -179.204 1560.02 -61.4958 1747.66 83.7919C1935.32 229.096 2036.6 401.887 2007.36 567.729C1978.12 733.571 1823.85 861.303 1597.81 933.661C1371.79 1006.01 1074.16 1022.94 758.487 967.281C442.815 911.62 168.921 793.911 -18.7182 648.623C-206.378 503.32 -307.656 330.528 -278.414 164.685Z" stroke="#E85324" stroke-opacity="0.2" stroke-width="1.01134"/>
<path d="M1065.14 -778.382C1230.98 -749.139 1358.71 -594.871 1431.07 -368.831C1503.42 -142.816 1520.35 154.818 1464.69 470.49C1409.03 786.163 1291.32 1060.06 1146.03 1247.7C1000.73 1435.36 827.939 1536.63 662.097 1507.39C496.255 1478.15 368.523 1323.88 296.165 1097.84C223.816 871.826 206.883 574.192 262.545 258.52C318.206 -57.1533 435.915 -331.047 581.203 -518.686C726.506 -706.346 899.298 -807.624 1065.14 -778.382Z" stroke="#E85324" stroke-opacity="0.2" stroke-width="1.01134"/>
<path d="M-85.6945 1031.3C-182.285 893.358 -163.521 693.954 -54.8509 482.955C53.807 271.98 252.293 49.5475 514.866 -134.308C777.439 -318.164 1054.34 -428.603 1289.76 -458.55C1525.2 -488.501 1719 -437.933 1815.59 -299.988C1912.18 -162.042 1893.41 37.3625 1784.74 248.361C1676.09 459.336 1477.6 681.769 1215.03 865.625C952.453 1049.48 675.549 1159.92 440.134 1189.87C204.693 1219.82 10.8962 1169.25 -85.6945 1031.3Z" stroke="#E85324" stroke-opacity="0.2" stroke-width="1.01134"/>
<path d="M197.499 -585.585C335.445 -682.176 534.849 -663.411 745.847 -554.741C956.823 -446.084 1179.26 -247.598 1363.11 14.9753C1546.97 277.548 1657.41 554.453 1687.35 789.868C1717.3 1025.31 1666.74 1219.1 1528.79 1315.7C1390.84 1412.29 1191.44 1393.52 980.441 1284.85C769.466 1176.19 547.034 977.709 363.178 715.136C179.322 452.563 68.8833 175.658 38.936 -59.7568C8.98553 -295.198 59.5535 -488.994 197.499 -585.585Z" stroke="#E85324" stroke-opacity="0.2" stroke-width="1.01134"/>
<path d="M562.774 -756.143C725.436 -799.728 906.397 -713.895 1067.5 -539.613C1228.59 -365.351 1369.72 -102.758 1452.69 206.862C1535.65 516.482 1544.72 814.46 1492.35 1045.92C1439.96 1277.41 1326.16 1442.22 1163.5 1485.8C1000.84 1529.39 819.878 1443.56 658.771 1269.28C497.683 1095.01 356.551 832.421 273.588 522.8C190.626 213.18 181.554 -84.7974 233.929 -316.258C286.31 -547.744 400.111 -712.558 562.774 -756.143Z" stroke="#E85324" stroke-opacity="0.2" stroke-width="1.01134"/>
<path d="M1985.3 62.9738C2028.89 225.636 1943.05 406.597 1768.77 567.703C1594.51 728.792 1331.92 869.924 1022.3 952.887C712.675 1035.85 414.698 1044.92 183.237 992.546C-48.2485 940.164 -213.062 826.364 -256.648 663.702C-300.233 501.039 -214.4 320.078 -40.1183 158.972C134.145 -2.11711 396.736 -143.249 706.357 -226.212C1015.98 -309.174 1313.95 -318.246 1545.41 -265.871C1776.9 -213.49 1941.71 -99.6888 1985.3 62.9738Z" stroke="#E85324" stroke-opacity="0.2" stroke-width="1.01134"/>
<path d="M-141.183 -214.505C-56.983 -360.344 131.668 -427.61 368.824 -418.293C605.953 -408.978 891.429 -323.092 1169.03 -162.821C1446.63 -2.54986 1663.74 201.737 1790.37 402.439C1917.02 603.164 1953.09 800.173 1868.89 946.013C1784.69 1091.85 1596.04 1159.12 1358.88 1149.8C1121.76 1140.49 836.279 1054.6 558.681 894.329C281.083 734.058 63.9661 529.771 -62.666 329.069C-189.312 128.345 -225.384 -68.6657 -141.183 -214.505Z" stroke="#E85324" stroke-opacity="0.2" stroke-width="1.01134"/>
<path d="M1443.9 -641.169C1589.74 -556.968 1657 -368.317 1647.69 -131.162C1638.37 105.968 1552.49 391.444 1392.21 669.042C1231.94 946.64 1027.66 1163.76 826.954 1290.39C626.23 1417.03 429.22 1453.11 283.381 1368.91C137.542 1284.71 70.2756 1096.05 79.5921 858.899C88.9077 621.77 174.793 336.294 335.064 58.6955C495.335 -218.903 699.622 -436.019 900.325 -562.651C1101.05 -689.297 1298.06 -725.369 1443.9 -641.169Z" stroke="#E85324" stroke-opacity="0.2" stroke-width="1.01134"/>
<path d="M-286.054 214.723C-264.073 47.7627 -115.524 -86.5762 107.145 -168.724C329.788 -250.863 626.401 -280.763 944.201 -238.924C1262 -197.084 1540.77 -91.4349 1734.57 45.5297C1928.39 182.509 2037.1 350.718 2015.12 517.678C1993.14 684.639 1844.59 818.978 1621.93 901.126C1399.28 983.265 1102.67 1013.16 784.869 971.326C467.068 929.486 188.301 823.837 -5.49683 686.872C-199.316 549.892 -308.035 381.683 -286.054 214.723Z" stroke="#E85324" stroke-opacity="0.2" stroke-width="1.01134"/>
<path d="M1015.09 -786.051C1182.05 -764.07 1316.39 -615.521 1398.53 -392.853C1480.67 -170.209 1510.57 126.403 1468.73 444.204C1426.89 762.004 1321.25 1040.77 1184.28 1234.57C1047.3 1428.39 879.092 1537.11 712.132 1515.13C545.172 1493.15 410.832 1344.6 328.684 1121.93C246.545 899.284 216.646 602.672 258.485 284.871C300.324 -32.9288 405.974 -311.696 542.938 -505.494C679.918 -699.314 848.128 -808.032 1015.09 -786.051Z" stroke="#E85324" stroke-opacity="0.2" stroke-width="1.01134"/>
<path d="M-55.7131 1072.11C-158.229 938.506 -148.18 738.473 -48.8174 522.936C50.5344 307.422 239.129 76.543 493.433 -118.591C747.736 -313.725 1019.56 -436.137 1253.44 -476.325C1487.35 -516.517 1683.17 -474.451 1785.69 -340.849C1888.2 -207.248 1878.16 -7.21501 1778.79 208.323C1679.44 423.837 1490.85 654.716 1236.54 849.849C982.239 1044.98 710.416 1167.4 476.531 1207.58C242.621 1247.78 46.8028 1205.71 -55.7131 1072.11Z" stroke="#E85324" stroke-opacity="0.2" stroke-width="1.01134"/>
<path d="M156.689 -555.593C290.29 -658.109 490.322 -648.06 705.86 -548.697C921.374 -449.345 1152.25 -260.751 1347.39 -6.44745C1542.52 247.856 1664.93 519.68 1705.12 753.564C1745.31 987.475 1703.25 1183.29 1569.65 1285.81C1436.04 1388.32 1236.01 1378.28 1020.47 1278.91C804.959 1179.56 574.08 990.966 378.946 736.663C183.812 482.359 61.3999 210.536 21.2125 -23.3487C-18.9793 -257.259 23.0873 -453.077 156.689 -555.593Z" stroke="#E85324" stroke-opacity="0.2" stroke-width="1.01134"/>
<path d="M514.176 -741.923C674.783 -792.562 859.315 -714.704 1027.87 -547.616C1196.41 -380.545 1348.86 -124.359 1445.25 181.348C1541.64 487.055 1563.7 784.353 1521.47 1017.88C1479.23 1251.43 1372.73 1421.05 1212.12 1471.69C1051.52 1522.33 866.985 1444.47 698.43 1277.38C529.893 1110.31 377.441 854.124 281.052 548.417C184.663 242.71 162.602 -54.5881 204.832 -288.113C247.066 -521.663 353.569 -691.284 514.176 -741.923Z" stroke="#E85324" stroke-opacity="0.2" stroke-width="1.01134"/>
<path d="M1971.07 14.3732C2021.71 174.98 1943.85 359.512 1776.77 528.067C1609.7 696.604 1353.51 849.056 1047.8 945.445C742.096 1041.83 444.798 1063.89 211.273 1021.67C-22.277 979.431 -191.898 872.928 -242.537 712.322C-293.176 551.715 -215.319 367.182 -48.2297 198.627C118.841 30.0904 375.027 -122.361 680.734 -218.75C986.44 -315.139 1283.74 -337.2 1517.26 -294.971C1750.81 -252.737 1920.43 -146.234 1971.07 14.3732Z" stroke="#E85324" stroke-opacity="0.2" stroke-width="1.01134"/>
<path d="M-165.491 -170.088C-87.732 -319.461 97.8058 -394.891 335.142 -395.928C572.452 -396.965 861.402 -323.614 1145.73 -175.603C1430.05 -27.5933 1655.87 167.029 1791.14 362.016C1926.42 557.025 1971.05 752.274 1893.29 901.647C1815.53 1051.02 1630 1126.45 1392.66 1127.49C1155.35 1128.53 866.399 1055.17 582.074 907.164C297.749 759.154 71.9282 564.532 -63.3379 369.544C-198.619 174.535 -243.25 -20.7142 -165.491 -170.088Z" stroke="#E85324" stroke-opacity="0.2" stroke-width="1.01134"/>
<path d="M1399.48 -665.489C1548.85 -587.73 1624.28 -402.192 1625.32 -164.856C1626.35 72.4535 1553 361.404 1404.99 645.729C1256.98 930.054 1062.36 1155.87 867.371 1291.14C672.362 1426.42 477.114 1471.05 327.741 1393.29C178.367 1315.54 102.936 1130 101.899 892.661C100.863 655.351 174.214 366.401 322.224 82.0759C470.234 -202.249 664.856 -428.07 859.843 -563.336C1054.85 -698.617 1250.1 -743.248 1399.48 -665.489Z" stroke="#E85324" stroke-opacity="0.2" stroke-width="1.01134"/>
<path d="M-291.493 265.047C-276.816 97.2875 -134.267 -43.4033 84.6058 -135.186C303.455 -226.958 598.481 -269.767 917.803 -241.83C1237.13 -213.893 1520.24 -120.504 1719.82 7.8772C1919.43 136.272 2035.39 299.579 2020.71 467.339C2006.03 635.099 1863.48 775.79 1644.61 867.573C1425.76 959.345 1130.74 1002.15 811.413 974.217C492.09 946.28 208.98 852.891 9.39223 724.51C-190.218 596.115 -306.17 432.807 -291.493 265.047Z" stroke="#E85324" stroke-opacity="0.2" stroke-width="1.01134"/>
<path d="M964.751 -791.53C1132.51 -776.853 1273.2 -634.304 1364.98 -415.431C1456.76 -196.582 1499.57 98.4435 1471.63 417.766C1443.69 737.089 1350.3 1020.2 1221.92 1219.79C1093.53 1419.4 930.22 1535.35 762.46 1520.67C594.7 1506 454.009 1363.45 362.226 1144.57C270.454 925.724 227.645 630.699 255.582 311.376C283.519 -7.94686 376.908 -291.057 505.289 -490.645C633.684 -690.255 796.992 -806.207 964.751 -791.53Z" stroke="#E85324" stroke-opacity="0.2" stroke-width="1.01134"/>
<path d="M-23.9709 1111.57C-132.217 982.568 -130.903 782.288 -41.0363 562.621C48.8204 342.978 227.165 104.093 472.715 -101.948C718.264 -307.988 984.49 -442.141 1216.4 -492.492C1448.33 -542.849 1645.8 -509.364 1754.05 -380.362C1862.29 -251.359 1860.98 -51.0785 1771.11 168.588C1681.25 388.231 1502.91 627.116 1257.36 833.157C1011.81 1039.2 745.585 1173.35 513.676 1223.7C281.741 1274.06 84.2751 1240.57 -23.9709 1111.57Z" stroke="#E85324" stroke-opacity="0.2" stroke-width="1.01134"/>
<path d="M117.222 -523.845C246.225 -632.091 446.505 -630.777 666.172 -540.91C885.814 -451.054 1124.7 -272.709 1330.74 -27.1595C1536.78 218.39 1670.93 484.616 1721.29 716.525C1771.64 948.459 1738.16 1145.93 1609.15 1254.17C1480.15 1362.42 1279.87 1361.1 1060.2 1271.24C840.562 1181.38 601.677 1003.04 395.636 757.486C189.595 511.936 55.4424 245.711 5.09133 13.8022C-45.2652 -218.133 -11.7801 -415.599 117.222 -523.845Z" stroke="#E85324" stroke-opacity="0.2" stroke-width="1.01134"/>
<path d="M466.245 -725.589C624.49 -783.185 812.243 -713.451 987.926 -553.874C1163.59 -394.314 1327.07 -145.021 1436.7 156.19C1546.34 457.402 1581.34 753.455 1549.34 988.599C1517.33 1223.77 1418.33 1397.87 1260.09 1455.47C1101.84 1513.07 914.088 1443.33 738.404 1283.76C562.741 1124.2 399.259 874.903 289.627 573.692C179.995 272.48 144.987 -23.5728 176.99 -258.717C208.997 -493.888 308 -667.993 466.245 -725.589Z" stroke="#E85324" stroke-opacity="0.2" stroke-width="1.01134"/>
<path d="M1954.75 -33.5712C2012.35 124.674 1942.62 312.427 1783.04 488.109C1623.48 663.773 1374.19 827.255 1072.97 936.887C771.763 1046.52 475.711 1081.53 240.566 1049.52C5.39598 1017.52 -168.709 918.514 -226.305 760.27C-283.902 602.025 -214.168 414.271 -54.5902 238.588C104.97 62.9244 354.262 -100.557 655.474 -210.189C956.685 -319.821 1252.74 -354.829 1487.88 -322.826C1723.05 -290.819 1897.16 -191.816 1954.75 -33.5712Z" stroke="#E85324" stroke-opacity="0.2" stroke-width="1.01134"/>
<path d="M-187.831 -124.655C-116.662 -277.277 65.4091 -360.729 302.474 -372.117C539.513 -383.504 831.388 -322.827 1121.9 -187.36C1412.41 -51.8926 1646.5 132.694 1790.15 321.596C1933.8 510.518 1986.91 703.634 1915.74 856.257C1844.57 1008.88 1662.5 1092.33 1425.44 1103.72C1188.4 1115.11 896.521 1054.43 606.011 918.963C315.501 783.496 81.4055 598.909 -62.2371 410.008C-205.895 221.085 -259.001 27.9683 -187.831 -124.655Z" stroke="#E85324" stroke-opacity="0.2" stroke-width="1.01134"/>
<path d="M1354.03 -687.849C1506.66 -616.68 1590.11 -434.609 1601.5 -197.544C1612.88 39.495 1552.21 331.37 1416.74 621.88C1281.27 912.391 1096.68 1146.49 907.783 1290.13C718.861 1433.79 525.745 1486.89 373.122 1415.72C220.499 1344.55 137.047 1162.48 125.658 925.418C114.271 688.379 174.949 396.504 310.416 105.993C445.883 -184.517 630.469 -418.612 819.371 -562.255C1008.29 -705.913 1201.41 -759.018 1354.03 -687.849Z" stroke="#E85324" stroke-opacity="0.2" stroke-width="1.01134"/>
<path d="M-294.731 315.563C-287.386 147.323 -151.11 0.548365 63.5516 -100.694C278.189 -201.925 571.067 -257.562 891.304 -243.58C1211.54 -229.598 1498.46 -148.647 1703.45 -29.0943C1908.47 90.4717 2031.44 248.565 2024.09 416.806C2016.75 585.046 1880.47 731.821 1665.81 833.064C1451.17 934.295 1158.3 989.932 838.059 975.95C517.821 961.968 230.907 881.017 25.909 761.464C-179.112 641.898 -302.077 483.804 -294.731 315.563Z" stroke="#E85324" stroke-opacity="0.2" stroke-width="1.01134"/>
<path d="M914.237 -794.809C1082.48 -787.463 1229.25 -651.187 1330.49 -436.526C1431.73 -221.888 1487.36 70.9897 1473.38 391.227C1459.4 711.465 1378.45 998.379 1258.89 1203.38C1139.33 1408.4 981.236 1531.36 812.995 1524.02C644.755 1516.67 497.979 1380.4 396.737 1165.73C295.506 951.096 239.869 658.219 253.851 337.981C267.832 17.7439 348.784 -269.17 468.337 -474.168C587.903 -679.189 745.997 -802.154 914.237 -794.809Z" stroke="#E85324" stroke-opacity="0.2" stroke-width="1.01134"/>
<path d="M9.4477 1149.61C-104.322 1025.46 -111.746 825.309 -31.5463 601.932C48.6442 378.579 216.399 132.142 452.727 -84.4137C689.056 -300.969 949.176 -446.607 1178.67 -507.026C1408.19 -567.451 1606.92 -542.612 1720.69 -418.454C1834.46 -294.296 1841.89 -94.1482 1761.69 129.23C1681.5 352.583 1513.74 599.02 1277.42 815.575C1041.09 1032.13 780.966 1177.77 551.474 1238.19C321.957 1298.61 123.218 1273.77 9.4477 1149.61Z" stroke="#E85324" stroke-opacity="0.2" stroke-width="1.01134"/>
<path d="M79.1762 -490.409C203.334 -604.178 403.482 -611.602 626.859 -531.403C850.212 -451.212 1096.65 -283.458 1313.2 -47.129C1529.76 189.2 1675.4 449.32 1735.82 678.812C1796.24 908.329 1771.4 1107.07 1647.24 1220.84C1523.09 1334.61 1322.94 1342.03 1099.56 1261.83C876.208 1181.64 629.771 1013.89 413.216 777.559C196.66 541.23 51.0227 281.11 -9.39621 51.6177C-69.8217 -177.9 -44.9818 -376.639 79.1762 -490.409Z" stroke="#E85324" stroke-opacity="0.2" stroke-width="1.01134"/>
<path d="M863.114 -796.027C1031.51 -796.027 1184.09 -666.283 1294.6 -456.242C1405.1 -246.224 1473.46 43.9477 1473.46 364.49C1473.46 685.033 1405.1 975.205 1294.6 1185.22C1184.09 1395.26 1031.51 1525.01 863.114 1525.01C694.713 1525.01 542.133 1395.26 431.624 1185.22C321.127 975.205 252.768 685.033 252.768 364.49C252.768 43.9477 321.127 -246.224 431.624 -456.242C542.133 -666.283 694.713 -796.027 863.114 -796.027Z" stroke="#E85324" stroke-opacity="0.2" stroke-width="1.01134"/>
<path d="M2025.17 363.36C2025.17 531.761 1895.42 684.34 1685.38 794.85C1475.36 905.347 1185.19 973.706 864.649 973.706C544.106 973.706 253.934 905.347 43.9161 794.85C-166.125 684.34 -295.869 531.761 -295.869 363.36C-295.869 194.959 -166.125 42.3795 43.9161 -68.1299C253.934 -178.627 544.106 -246.986 864.649 -246.986C1185.19 -246.986 1475.36 -178.627 1685.38 -68.1299C1895.42 42.3795 2025.17 194.96 2025.17 363.36Z" stroke="#E85324" stroke-opacity="0.2" stroke-width="1.01134"/>
<path d="M42.95 -455.035C162.027 -574.112 361.66 -590.259 588.323 -519.88C814.962 -449.508 1068.48 -292.663 1295.14 -66.0051C1521.8 160.653 1678.64 414.173 1749.01 640.811C1819.39 867.474 1803.25 1067.11 1684.17 1186.18C1565.09 1305.26 1365.46 1321.41 1138.8 1251.03C912.157 1180.66 658.637 1023.81 431.98 797.155C205.322 570.497 48.4764 316.977 -21.8953 90.3387C-92.2747 -136.325 -76.1274 -335.958 42.95 -455.035Z" stroke="#E85324" stroke-opacity="0.2" stroke-width="1.01134"/>
<path d="M1684.45 -456.917C1803.53 -337.84 1819.67 -138.207 1749.29 88.456C1678.92 315.094 1522.08 568.614 1295.42 795.272C1068.76 1021.93 815.242 1178.78 588.604 1249.15C361.941 1319.53 162.308 1303.38 43.2308 1184.3C-75.8466 1065.22 -91.9939 865.592 -21.6145 638.928C48.7572 412.29 205.603 158.77 432.26 -67.8877C658.918 -294.546 912.438 -451.391 1139.08 -521.763C1365.74 -592.142 1565.37 -575.995 1684.45 -456.917Z" stroke="#E85324" stroke-opacity="0.2" stroke-width="1.01134"/>
<path d="M-208.059 -77.9359C-143.614 -233.518 34.6434 -324.832 270.986 -346.55C507.302 -368.266 801.546 -320.377 1097.69 -197.711C1393.83 -75.0447 1635.76 99.1551 1787.5 281.611C1939.26 464.088 2000.74 654.704 1936.3 810.286C1871.85 965.868 1693.6 1057.18 1457.25 1078.9C1220.94 1100.62 926.693 1052.73 630.55 930.062C334.408 807.395 92.4835 633.195 -59.2622 450.739C-211.025 268.263 -272.503 77.6461 -208.059 -77.9359Z" stroke="#E85324" stroke-opacity="0.2" stroke-width="1.01134"/>
<path d="M1307.76 -707.848C1463.34 -643.403 1554.66 -465.146 1576.38 -228.803C1598.09 7.51305 1550.2 301.757 1427.54 597.9C1304.87 894.042 1130.67 1135.97 948.215 1287.71C765.738 1439.47 575.122 1500.95 419.54 1436.51C263.958 1372.06 172.644 1193.81 150.926 957.464C129.21 721.148 177.098 426.904 299.765 130.761C422.431 -165.382 596.631 -407.306 779.087 -559.051C961.564 -710.814 1152.18 -772.292 1307.76 -707.848Z" stroke="#E85324" stroke-opacity="0.2" stroke-width="1.01134"/>
<path d="M-207.488 809.857C-271.932 654.275 -210.454 463.659 -58.6914 281.182C93.0543 98.726 334.978 -75.4738 631.121 -198.14C927.264 -320.806 1221.51 -368.695 1457.82 -346.979C1694.17 -325.261 1872.42 -233.947 1936.87 -78.365C2001.31 77.2171 1939.83 267.833 1788.07 450.31C1636.33 632.766 1394.4 806.966 1098.26 929.633C802.117 1052.3 507.873 1100.19 271.557 1078.47C35.2139 1056.75 -143.044 965.439 -207.488 809.857Z" stroke="#E85324" stroke-opacity="0.2" stroke-width="1.01134"/>
<path d="M418.949 -707.411C574.531 -771.855 765.147 -710.376 947.623 -558.614C1130.08 -406.869 1304.28 -164.945 1426.95 131.198C1549.61 427.341 1597.5 721.585 1575.78 957.901C1554.07 1194.24 1462.75 1372.5 1307.17 1436.95C1151.59 1501.39 960.972 1439.91 778.496 1288.15C596.039 1136.4 421.839 894.48 299.173 598.337C176.507 302.194 128.618 7.9501 150.334 -228.366C172.052 -464.709 263.367 -642.967 418.949 -707.411Z" stroke="#E85324" stroke-opacity="0.2" stroke-width="1.01134"/>
<path d="M812.498 -794.862C980.739 -802.208 1138.83 -679.242 1258.4 -474.222C1377.95 -269.224 1458.9 17.6903 1472.88 337.928C1486.87 658.165 1431.23 951.043 1330 1165.68C1228.76 1380.34 1081.98 1516.62 913.74 1523.96C745.5 1531.31 587.406 1408.34 467.84 1203.32C348.287 998.325 267.335 711.411 253.354 391.174C239.372 70.9362 295.009 -221.942 396.24 -436.579C497.482 -651.241 644.258 -787.517 812.498 -794.862Z" stroke="#E85324" stroke-opacity="0.2" stroke-width="1.01134"/>
<path d="M2024.01 312.729C2031.35 480.969 1908.39 639.063 1703.37 758.628C1498.37 878.181 1211.46 959.133 891.218 973.115C570.98 987.096 278.103 931.459 63.4649 830.228C-151.196 728.986 -287.472 582.211 -294.818 413.971C-302.164 245.73 -179.198 87.6362 25.8223 -31.9299C230.82 -151.483 517.734 -232.434 837.972 -246.416C1158.21 -260.398 1451.09 -204.761 1665.72 -103.53C1880.39 -2.28719 2016.66 144.488 2024.01 312.729Z" stroke="#E85324" stroke-opacity="0.2" stroke-width="1.01134"/>
<path d="M7.97986 -418.424C121.75 -542.582 320.488 -567.422 550.006 -506.996C779.498 -446.577 1039.62 -300.94 1275.95 -84.3841C1512.28 132.171 1680.03 378.608 1760.22 601.961C1840.42 825.339 1833 1025.49 1719.23 1149.64C1605.46 1273.8 1406.72 1298.64 1177.2 1238.22C947.708 1177.8 687.588 1032.16 451.259 815.605C214.93 599.049 47.1757 352.612 -33.0148 129.259C-113.214 -94.1186 -105.79 -294.266 7.97986 -418.424Z" stroke="#E85324" stroke-opacity="0.2" stroke-width="1.01134"/>
<path d="M1647.84 -491.904C1772 -378.134 1796.84 -179.395 1736.41 50.1218C1676 279.614 1530.36 539.734 1313.8 776.063C1097.25 1012.39 850.81 1180.15 627.457 1260.34C404.079 1340.54 203.932 1333.11 79.7738 1219.34C-44.3843 1105.57 -69.2241 906.834 -8.7986 677.316C51.6203 447.824 197.258 187.704 413.813 -48.6249C630.369 -284.954 876.806 -452.708 1100.16 -532.899C1323.54 -613.098 1523.68 -605.674 1647.84 -491.904Z" stroke="#E85324" stroke-opacity="0.2" stroke-width="1.01134"/>
<path d="M-226.345 -30.7312C-168.748 -188.976 5.35659 -287.978 240.527 -319.985C475.671 -351.988 771.724 -316.98 1072.94 -207.348C1374.15 -97.7162 1623.44 65.7652 1783 241.429C1942.58 417.112 2012.31 604.865 1954.71 763.11C1897.12 921.355 1723.01 1020.36 1487.84 1052.36C1252.7 1084.37 956.646 1049.36 655.434 939.727C354.223 830.095 104.93 666.614 -54.6297 490.95C-214.207 315.267 -283.941 127.514 -226.345 -30.7312Z" stroke="#E85324" stroke-opacity="0.2" stroke-width="1.01134"/>
<path d="M1260.56 -726.163C1418.81 -668.567 1517.81 -494.462 1549.82 -259.292C1581.82 -24.1474 1546.81 271.905 1437.18 573.117C1327.55 874.328 1164.07 1123.62 988.403 1283.18C812.72 1442.76 624.967 1512.49 466.723 1454.9C308.478 1397.3 209.474 1223.19 177.468 988.024C145.465 752.88 180.473 456.827 290.105 155.616C399.737 -145.596 563.218 -394.888 738.882 -554.448C914.565 -714.025 1102.32 -783.76 1260.56 -726.163Z" stroke="#E85324" stroke-opacity="0.2" stroke-width="1.01134"/>
<path d="M-187.045 856.189C-258.214 703.566 -205.108 510.45 -61.45 321.528C82.1926 132.626 316.288 -51.9605 606.798 -187.428C897.308 -322.895 1189.18 -383.572 1426.22 -372.185C1663.29 -360.797 1845.36 -277.345 1916.53 -124.723C1987.7 27.9005 1934.59 221.017 1790.93 409.94C1647.29 598.842 1413.2 783.428 1122.69 918.895C832.175 1054.36 540.3 1115.04 303.261 1103.65C66.1959 1092.26 -115.875 1008.81 -187.045 856.189Z" stroke="#E85324" stroke-opacity="0.2" stroke-width="1.01134"/>
<path d="M372.615 -686.961C525.238 -758.13 718.354 -705.024 907.277 -561.366C1096.18 -417.723 1280.77 -183.628 1416.23 106.882C1551.7 397.392 1612.38 689.267 1600.99 926.306C1589.6 1163.37 1506.15 1345.44 1353.53 1416.61C1200.9 1487.78 1007.79 1434.68 818.865 1291.02C629.963 1147.37 445.376 913.279 309.909 622.769C174.442 332.259 113.765 40.3836 125.152 -196.655C136.54 -433.72 219.992 -615.791 372.615 -686.961Z" stroke="#E85324" stroke-opacity="0.2" stroke-width="1.01134"/>
<path d="M761.971 -791.495C929.73 -806.172 1093.04 -690.22 1221.43 -490.61C1349.81 -291.022 1443.2 -7.91162 1471.14 311.411C1499.08 630.734 1456.27 925.76 1364.5 1144.61C1272.71 1363.48 1132.02 1506.03 964.262 1520.71C796.502 1535.38 633.195 1419.43 504.8 1219.82C376.419 1020.23 283.029 737.124 255.092 417.802C227.155 98.4787 269.964 -196.547 361.737 -415.396C453.519 -634.269 594.211 -776.818 761.971 -791.495Z" stroke="#E85324" stroke-opacity="0.2" stroke-width="1.01134"/>
<path d="M2020.64 262.195C2035.32 429.955 1919.37 593.262 1719.76 721.657C1520.17 850.038 1237.06 943.427 917.734 971.364C598.411 999.301 303.386 956.492 84.5367 864.72C-134.336 772.937 -276.885 632.247 -291.562 464.487C-306.239 296.727 -190.287 133.419 9.32312 5.02421C208.911 -123.357 492.021 -216.746 811.344 -244.683C1130.67 -272.62 1425.69 -229.811 1644.54 -138.039C1863.41 -46.2562 2005.96 94.4352 2020.64 262.195Z" stroke="#E85324" stroke-opacity="0.2" stroke-width="1.01134"/>
<path d="M-25.3556 -380.324C82.8904 -509.326 280.356 -542.811 512.291 -492.454C744.2 -442.103 1010.43 -307.95 1255.98 -101.91C1501.52 104.131 1679.87 343.017 1769.73 562.659C1859.59 782.326 1860.91 982.606 1752.66 1111.61C1644.41 1240.61 1446.95 1274.1 1215.01 1223.74C983.104 1173.39 716.879 1039.24 471.329 833.195C225.779 627.154 47.435 388.269 -42.4217 168.626C-132.288 -51.0404 -133.602 -251.322 -25.3556 -380.324Z" stroke="#E85324" stroke-opacity="0.2" stroke-width="1.01134"/>
<path d="M1609.73 -525.265C1738.73 -417.019 1772.22 -219.553 1721.86 12.3816C1671.51 244.291 1537.36 510.516 1331.32 756.066C1125.28 1001.62 886.391 1179.96 666.748 1269.82C447.082 1359.68 246.801 1361 117.799 1252.75C-11.2039 1144.51 -44.689 947.039 5.66765 715.104C56.0187 483.195 190.171 216.97 396.212 -28.5801C602.253 -274.13 841.138 -452.474 1060.78 -542.331C1280.45 -632.197 1480.73 -633.511 1609.73 -525.265Z" stroke="#E85324" stroke-opacity="0.2" stroke-width="1.01134"/>
<path d="M-242.552 17.228C-191.913 -143.379 -22.2923 -249.881 211.258 -292.115C444.782 -334.345 742.08 -312.284 1047.79 -215.895C1353.49 -119.506 1609.68 32.9461 1776.75 201.483C1943.84 370.038 2021.7 554.57 1971.06 715.177C1920.42 875.783 1750.8 982.287 1517.25 1024.52C1283.72 1066.75 986.425 1044.69 680.718 948.3C375.011 851.911 118.825 699.459 -48.2451 530.923C-215.334 362.368 -293.191 177.835 -242.552 17.228Z" stroke="#E85324" stroke-opacity="0.2" stroke-width="1.01134"/>
<path d="M1212.61 -742.409C1373.22 -691.77 1479.72 -522.149 1521.95 -288.599C1564.18 -55.0741 1542.12 242.224 1445.73 547.931C1349.34 853.638 1196.89 1109.82 1028.36 1276.89C859.8 1443.98 675.268 1521.84 514.661 1471.2C354.054 1420.56 247.551 1250.94 205.317 1017.39C163.088 783.866 185.149 486.568 281.538 180.862C377.927 -124.845 530.379 -381.031 698.915 -548.102C867.47 -715.19 1052 -793.048 1212.61 -742.409Z" stroke="#E85324" stroke-opacity="0.2" stroke-width="1.01134"/>
<path d="M-164.6 901.582C-242.358 752.209 -197.727 556.96 -62.4463 361.951C72.8198 166.964 298.641 -27.6584 582.966 -175.669C867.29 -323.679 1156.24 -397.03 1393.55 -395.993C1630.89 -394.956 1816.42 -319.526 1894.18 -170.153C1971.94 -20.7792 1927.31 174.47 1792.03 369.479C1656.76 564.467 1430.94 759.089 1146.62 907.099C862.294 1055.11 573.343 1128.46 336.033 1127.42C98.6971 1126.39 -86.841 1050.96 -164.6 901.582Z" stroke="#E85324" stroke-opacity="0.2" stroke-width="1.01134"/>
<path d="M327.219 -664.51C476.592 -742.269 671.841 -697.637 866.85 -562.356C1061.84 -427.09 1256.46 -201.269 1404.47 83.0553C1552.48 367.38 1625.83 656.331 1624.79 893.64C1623.76 1130.98 1548.33 1316.51 1398.95 1394.27C1249.58 1472.03 1054.33 1427.4 859.322 1292.12C664.334 1156.85 469.712 931.033 321.702 646.708C173.692 362.383 100.341 73.4329 101.378 -163.877C102.414 -401.213 177.845 -586.751 327.219 -664.51Z" stroke="#E85324" stroke-opacity="0.2" stroke-width="1.01134"/>
<path d="M711.637 -785.93C878.597 -807.91 1046.81 -699.192 1183.79 -505.372C1320.75 -311.574 1426.4 -32.8071 1468.24 284.993C1510.08 602.794 1480.18 899.406 1398.04 1122.05C1315.89 1344.72 1181.55 1493.27 1014.59 1515.25C847.633 1537.23 679.423 1428.51 542.443 1234.69C405.479 1040.89 299.829 762.126 257.99 444.326C216.151 126.525 246.05 -170.087 328.189 -392.731C410.337 -615.399 544.677 -763.949 711.637 -785.93Z" stroke="#E85324" stroke-opacity="0.2" stroke-width="1.01134"/>
<path d="M2015.07 211.859C2037.05 378.819 1928.33 547.028 1734.51 684.007C1540.72 820.972 1261.95 926.621 944.148 968.461C626.348 1010.3 329.736 980.4 107.092 898.261C-115.576 816.113 -264.126 681.774 -286.107 514.814C-308.087 347.854 -199.369 179.645 -5.5493 42.6649C188.249 -94.2998 467.016 -199.949 784.816 -241.788C1102.62 -283.628 1399.23 -253.728 1621.87 -171.589C1844.54 -89.4411 1993.09 44.8985 2015.07 211.859Z" stroke="#E85324" stroke-opacity="0.2" stroke-width="1.01134"/>
<path d="M-57.0028 -340.802C45.5132 -474.403 241.331 -516.469 475.241 -476.278C709.126 -436.09 980.949 -313.678 1235.25 -118.544C1489.56 76.5902 1678.15 307.469 1777.5 522.983C1876.87 738.521 1886.91 938.553 1784.4 1072.15C1681.88 1205.76 1486.06 1247.82 1252.15 1207.63C1018.27 1167.44 746.446 1045.03 492.142 849.897C237.839 654.763 49.2442 423.884 -50.1077 208.37C-149.47 -7.16775 -159.519 -207.201 -57.0028 -340.802Z" stroke="#E85324" stroke-opacity="0.2" stroke-width="1.01134"/>
<path d="M1570.21 -556.933C1703.81 -454.417 1745.88 -258.599 1705.69 -24.6889C1665.5 209.196 1543.09 481.019 1347.95 735.323C1152.82 989.626 921.941 1178.22 706.427 1277.57C490.89 1376.94 290.857 1386.98 157.256 1284.47C23.6544 1181.95 -18.4121 986.135 21.7797 752.224C61.9671 518.339 184.38 246.516 379.514 -7.78759C574.647 -262.091 805.526 -450.686 1021.04 -550.037C1236.58 -649.4 1436.61 -659.448 1570.21 -556.933Z" stroke="#E85324" stroke-opacity="0.2" stroke-width="1.01134"/>
<path d="M-256.65 65.8388C-213.065 -96.8237 -48.2511 -210.624 183.234 -263.005C414.695 -315.38 712.672 -306.308 1022.29 -223.346C1331.91 -140.383 1594.5 0.748716 1768.77 161.837C1943.05 322.944 2028.88 503.904 1985.3 666.567C1941.71 829.23 1776.9 943.03 1545.41 995.412C1313.95 1047.79 1015.97 1038.71 706.354 955.752C396.734 872.79 134.142 731.658 -40.121 570.569C-214.403 409.463 -300.236 228.501 -256.65 65.8388Z" stroke="#E85324" stroke-opacity="0.2" stroke-width="1.01134"/>
<path d="M1163.99 -756.542C1326.65 -712.956 1440.45 -548.143 1492.83 -316.657C1545.21 -85.1969 1536.14 212.781 1453.17 522.401C1370.21 832.021 1229.08 1094.61 1067.99 1268.88C906.885 1443.16 725.925 1528.99 563.262 1485.41C400.6 1441.82 286.799 1277.01 234.418 1045.52C182.042 814.06 191.114 516.083 274.077 206.462C357.039 -103.158 498.171 -365.75 659.26 -540.013C820.366 -714.295 1001.33 -800.127 1163.99 -756.542Z" stroke="#E85324" stroke-opacity="0.2" stroke-width="1.01134"/>
<path d="M-140.191 945.96C-224.391 800.121 -188.319 603.111 -61.6733 402.387C64.9588 201.684 282.076 -2.60251 559.674 -162.874C837.272 -323.145 1122.75 -409.03 1359.88 -418.346C1597.03 -427.662 1785.68 -360.397 1869.88 -214.558C1954.08 -68.7183 1918.01 128.292 1791.37 329.016C1664.73 529.719 1447.62 734.005 1170.02 894.277C892.422 1054.55 606.946 1140.43 369.816 1149.75C132.661 1159.07 -55.9909 1091.8 -140.191 945.96Z" stroke="#E85324" stroke-opacity="0.2" stroke-width="1.01134"/>
<path d="M282.843 -640.098C428.682 -724.298 625.692 -688.225 826.416 -561.58C1027.12 -434.947 1231.41 -217.831 1391.68 59.7672C1551.95 337.365 1637.83 622.841 1647.15 859.97C1656.46 1097.13 1589.2 1285.78 1443.36 1369.98C1297.52 1454.18 1100.51 1418.11 899.786 1291.46C699.084 1164.83 494.797 947.711 334.526 670.113C174.255 392.515 88.3695 107.039 79.0539 -130.09C69.7375 -367.245 137.003 -555.897 282.843 -640.098Z" stroke="#E85324" stroke-opacity="0.2" stroke-width="1.01134"/>
<path d="M661.602 -778.169C827.444 -807.411 1000.24 -706.133 1145.54 -518.473C1290.83 -330.834 1408.53 -56.9405 1464.2 258.732C1519.86 574.405 1502.93 872.039 1430.58 1098.05C1358.22 1324.09 1230.49 1478.36 1064.65 1507.6C898.803 1536.85 726.011 1435.57 580.707 1247.91C435.419 1060.27 317.711 786.376 262.049 470.703C206.388 155.03 223.32 -142.604 295.67 -368.618C368.027 -594.658 495.759 -748.927 661.602 -778.169Z" stroke="#E85324" stroke-opacity="0.2" stroke-width="1.01134"/>
<path d="M2007.32 161.812C2036.56 327.655 1935.28 500.446 1747.62 645.75C1559.98 791.037 1286.09 908.746 970.415 964.407C654.742 1020.07 357.108 1003.14 131.093 930.787C-94.9461 858.43 -249.214 730.698 -278.457 564.856C-307.699 399.014 -206.422 226.222 -18.7613 80.918C168.878 -64.3696 442.771 -182.078 758.444 -237.74C1074.12 -293.402 1371.75 -276.469 1597.77 -204.119C1823.81 -131.762 1978.07 -4.02992 2007.32 161.812Z" stroke="#E85324" stroke-opacity="0.2" stroke-width="1.01134"/>
<path d="M-86.8859 -299.937C9.70492 -437.882 203.501 -488.45 438.942 -458.499C674.357 -428.552 951.261 -318.113 1213.83 -134.257C1476.41 49.5987 1674.89 272.031 1783.55 483.006C1892.22 694.005 1910.99 893.409 1814.39 1031.35C1717.8 1169.3 1524.01 1219.87 1288.57 1189.92C1053.15 1159.97 776.247 1049.53 513.674 865.676C251.101 681.82 52.6151 459.387 -56.0428 248.412C-164.713 37.4137 -183.477 -161.991 -86.8859 -299.937Z" stroke="#E85324" stroke-opacity="0.2" stroke-width="1.01134"/>
<path d="M1529.34 -586.84C1667.28 -490.249 1717.85 -296.453 1687.9 -61.0123C1657.95 174.403 1547.51 451.307 1363.66 713.88C1179.8 976.453 957.369 1174.94 746.394 1283.6C535.396 1392.27 335.992 1411.03 198.046 1314.44C60.1002 1217.85 9.53218 1024.05 39.4827 788.612C69.43 553.197 179.869 276.293 363.725 13.7198C547.581 -248.853 770.013 -447.339 980.988 -555.997C1191.99 -664.667 1391.39 -683.431 1529.34 -586.84Z" stroke="#E85324" stroke-opacity="0.2" stroke-width="1.01134"/>
<path d="M-268.617 115.026C-232.168 -49.3831 -72.4749 -170.264 156.506 -232.693C385.461 -295.114 683.551 -299.049 996.495 -229.67C1309.44 -160.292 1577.94 -30.7487 1759.06 122.585C1940.2 275.936 2033.85 452.981 1997.4 617.39C1960.95 781.799 1801.26 902.68 1572.28 965.109C1343.32 1027.53 1045.23 1031.46 732.289 962.087C419.344 892.709 150.846 763.165 -30.2774 609.831C-211.421 456.48 -305.065 279.435 -268.617 115.026Z" stroke="#E85324" stroke-opacity="0.2" stroke-width="1.01134"/>
<path d="M1114.8 -768.542C1279.21 -732.093 1400.09 -572.4 1462.52 -343.419C1524.94 -114.464 1528.88 183.626 1459.5 496.57C1390.12 809.514 1260.58 1078.01 1107.24 1259.14C953.892 1440.28 776.847 1533.92 612.438 1497.48C448.029 1461.03 327.148 1301.33 264.719 1072.35C202.298 843.398 198.363 545.308 267.741 232.364C337.12 -80.5806 466.663 -349.079 619.997 -530.202C773.348 -711.346 950.393 -804.99 1114.8 -768.542Z" stroke="#E85324" stroke-opacity="0.2" stroke-width="1.01134"/>
<path d="M-113.873 989.224C-204.354 847.196 -176.91 648.801 -59.1401 442.743C58.617 236.708 266.616 23.1454 536.959 -149.082C807.302 -321.309 1088.76 -419.565 1325.26 -439.215C1561.78 -458.867 1753.19 -399.895 1843.67 -257.867C1934.15 -115.839 1906.71 82.5567 1788.94 288.614C1671.18 494.649 1463.18 708.212 1192.84 880.44C922.494 1052.67 641.036 1150.92 404.538 1170.57C168.015 1190.22 -23.3914 1131.25 -113.873 989.224Z" stroke="#E85324" stroke-opacity="0.2" stroke-width="1.01134"/>
<path d="M239.571 -613.77C381.599 -704.252 579.994 -676.807 786.052 -559.038C992.086 -441.28 1205.65 -233.281 1377.88 37.0616C1550.1 307.404 1648.36 588.862 1668.01 825.36C1687.66 1061.88 1628.69 1253.29 1486.66 1343.77C1344.63 1434.25 1146.24 1406.81 940.18 1289.04C734.146 1171.28 520.583 963.282 348.355 692.939C176.128 422.596 77.8722 141.138 58.2221 -95.3591C38.57 -331.882 97.5431 -523.289 239.571 -613.77Z" stroke="#E85324" stroke-opacity="0.2" stroke-width="1.01134"/>
<path d="M611.944 -768.232C776.353 -804.681 953.398 -711.036 1106.75 -529.893C1260.08 -348.769 1389.63 -80.2712 1459 232.673C1528.38 545.618 1524.45 843.707 1462.03 1072.66C1399.6 1301.64 1278.72 1461.34 1114.31 1497.79C949.899 1534.23 772.854 1440.59 619.503 1259.45C466.169 1078.32 336.625 809.824 267.247 496.879C197.869 183.935 201.803 -114.155 264.225 -343.11C326.654 -572.091 447.535 -731.784 611.944 -768.232Z" stroke="#E85324" stroke-opacity="0.2" stroke-width="1.01134"/>
<path d="M1997.39 112.152C2033.84 276.561 1940.2 453.606 1759.05 606.957C1577.93 760.291 1309.43 889.834 996.488 959.212C683.543 1028.59 385.454 1024.66 156.499 962.235C-72.4821 899.806 -232.175 778.925 -268.624 614.516C-305.072 450.107 -211.428 273.062 -30.2844 119.711C150.839 -33.623 419.337 -163.167 732.282 -232.545C1045.23 -301.923 1343.32 -297.989 1572.27 -235.567C1801.25 -173.138 1960.95 -52.2567 1997.39 112.152Z" stroke="#E85324" stroke-opacity="0.2" stroke-width="1.01134"/>
<path d="M-114.968 -257.814C-24.4862 -399.842 166.92 -458.815 403.443 -439.162C639.94 -419.512 921.398 -321.257 1191.74 -149.029C1462.08 23.1983 1670.08 236.761 1787.84 442.796C1905.61 648.854 1933.05 847.249 1842.57 989.277C1752.09 1131.3 1560.69 1190.28 1324.16 1170.63C1087.66 1150.98 806.207 1052.72 535.864 880.492C265.521 708.265 57.5215 494.702 -60.2356 288.667C-178.006 82.6096 -205.45 -115.787 -114.968 -257.814Z" stroke="#E85324" stroke-opacity="0.2" stroke-width="1.01134"/>
<path d="M1487.21 -614.939C1629.24 -524.457 1688.21 -333.051 1668.56 -96.5278C1648.91 139.969 1550.66 421.427 1378.43 691.77C1206.2 962.113 992.638 1170.11 786.603 1287.87C580.546 1405.64 382.15 1433.08 240.123 1342.6C98.0948 1252.12 39.1217 1060.71 58.7739 824.191C78.424 587.694 176.68 306.236 348.907 35.8928C521.134 -234.45 734.698 -442.449 940.732 -560.206C1146.79 -677.976 1345.19 -705.42 1487.21 -614.939Z" stroke="#E85324" stroke-opacity="0.2" stroke-width="1.01134"/>
<path d="M-278.414 164.685C-249.171 -1.15678 -94.9028 -128.888 131.137 -201.245C357.151 -273.595 654.786 -290.528 970.458 -234.866C1286.13 -179.204 1560.02 -61.4958 1747.66 83.7919C1935.32 229.096 2036.6 401.887 2007.36 567.729C1978.12 733.571 1823.85 861.303 1597.81 933.661C1371.79 1006.01 1074.16 1022.94 758.487 967.281C442.815 911.62 168.921 793.911 -18.7182 648.623C-206.378 503.32 -307.656 330.528 -278.414 164.685Z" stroke="#E85324" stroke-opacity="0.2" stroke-width="1.01134"/>
<path d="M1065.14 -778.382C1230.98 -749.139 1358.71 -594.871 1431.07 -368.831C1503.42 -142.816 1520.35 154.818 1464.69 470.49C1409.03 786.163 1291.32 1060.06 1146.03 1247.7C1000.73 1435.36 827.939 1536.63 662.097 1507.39C496.255 1478.15 368.523 1323.88 296.165 1097.84C223.816 871.826 206.883 574.192 262.545 258.52C318.206 -57.1533 435.915 -331.047 581.203 -518.686C726.506 -706.346 899.298 -807.624 1065.14 -778.382Z" stroke="#E85324" stroke-opacity="0.2" stroke-width="1.01134"/>
<path d="M-85.6945 1031.3C-182.285 893.358 -163.521 693.954 -54.8509 482.955C53.807 271.98 252.293 49.5475 514.866 -134.308C777.439 -318.164 1054.34 -428.603 1289.76 -458.55C1525.2 -488.501 1719 -437.933 1815.59 -299.988C1912.18 -162.042 1893.41 37.3625 1784.74 248.361C1676.09 459.336 1477.6 681.769 1215.03 865.625C952.453 1049.48 675.549 1159.92 440.134 1189.87C204.693 1219.82 10.8962 1169.25 -85.6945 1031.3Z" stroke="#E85324" stroke-opacity="0.2" stroke-width="1.01134"/>
<path d="M197.499 -585.585C335.445 -682.176 534.849 -663.411 745.847 -554.741C956.823 -446.084 1179.26 -247.598 1363.11 14.9753C1546.97 277.548 1657.41 554.453 1687.35 789.868C1717.3 1025.31 1666.74 1219.1 1528.79 1315.7C1390.84 1412.29 1191.44 1393.52 980.441 1284.85C769.466 1176.19 547.034 977.709 363.178 715.136C179.322 452.563 68.8833 175.658 38.936 -59.7568C8.98553 -295.198 59.5535 -488.994 197.499 -585.585Z" stroke="#E85324" stroke-opacity="0.2" stroke-width="1.01134"/>
<path d="M562.774 -756.143C725.436 -799.728 906.397 -713.895 1067.5 -539.613C1228.59 -365.351 1369.72 -102.758 1452.69 206.862C1535.65 516.482 1544.72 814.46 1492.35 1045.92C1439.96 1277.41 1326.16 1442.22 1163.5 1485.8C1000.84 1529.39 819.878 1443.56 658.771 1269.28C497.683 1095.01 356.551 832.421 273.588 522.8C190.626 213.18 181.554 -84.7974 233.929 -316.258C286.31 -547.744 400.111 -712.558 562.774 -756.143Z" stroke="#E85324" stroke-opacity="0.2" stroke-width="1.01134"/>
<path d="M1985.3 62.9738C2028.89 225.636 1943.05 406.597 1768.77 567.703C1594.51 728.792 1331.92 869.924 1022.3 952.887C712.675 1035.85 414.698 1044.92 183.237 992.546C-48.2485 940.164 -213.062 826.364 -256.648 663.702C-300.233 501.039 -214.4 320.078 -40.1183 158.972C134.145 -2.11711 396.736 -143.249 706.357 -226.212C1015.98 -309.174 1313.95 -318.246 1545.41 -265.871C1776.9 -213.49 1941.71 -99.6888 1985.3 62.9738Z" stroke="#E85324" stroke-opacity="0.2" stroke-width="1.01134"/>
<path d="M-141.183 -214.505C-56.983 -360.344 131.668 -427.61 368.824 -418.293C605.953 -408.978 891.429 -323.092 1169.03 -162.821C1446.63 -2.54986 1663.74 201.737 1790.37 402.439C1917.02 603.164 1953.09 800.173 1868.89 946.013C1784.69 1091.85 1596.04 1159.12 1358.88 1149.8C1121.76 1140.49 836.279 1054.6 558.681 894.329C281.083 734.058 63.9661 529.771 -62.666 329.069C-189.312 128.345 -225.384 -68.6657 -141.183 -214.505Z" stroke="#E85324" stroke-opacity="0.2" stroke-width="1.01134"/>
<path d="M1443.9 -641.169C1589.74 -556.968 1657 -368.317 1647.69 -131.162C1638.37 105.968 1552.49 391.444 1392.21 669.042C1231.94 946.64 1027.66 1163.76 826.954 1290.39C626.23 1417.03 429.22 1453.11 283.381 1368.91C137.542 1284.71 70.2756 1096.05 79.5921 858.899C88.9077 621.77 174.793 336.294 335.064 58.6955C495.335 -218.903 699.622 -436.019 900.325 -562.651C1101.05 -689.297 1298.06 -725.369 1443.9 -641.169Z" stroke="#E85324" stroke-opacity="0.2" stroke-width="1.01134"/>
<path d="M-286.054 214.723C-264.073 47.7627 -115.524 -86.5762 107.145 -168.724C329.788 -250.863 626.401 -280.763 944.201 -238.924C1262 -197.084 1540.77 -91.4349 1734.57 45.5297C1928.39 182.509 2037.1 350.718 2015.12 517.678C1993.14 684.639 1844.59 818.978 1621.93 901.126C1399.28 983.265 1102.67 1013.16 784.869 971.326C467.068 929.486 188.301 823.837 -5.49683 686.872C-199.316 549.892 -308.035 381.683 -286.054 214.723Z" stroke="#E85324" stroke-opacity="0.2" stroke-width="1.01134"/>
<path d="M1015.09 -786.051C1182.05 -764.07 1316.39 -615.521 1398.53 -392.853C1480.67 -170.209 1510.57 126.403 1468.73 444.204C1426.89 762.004 1321.25 1040.77 1184.28 1234.57C1047.3 1428.39 879.092 1537.11 712.132 1515.13C545.172 1493.15 410.832 1344.6 328.684 1121.93C246.545 899.284 216.646 602.672 258.485 284.871C300.324 -32.9288 405.974 -311.696 542.938 -505.494C679.918 -699.314 848.128 -808.032 1015.09 -786.051Z" stroke="#E85324" stroke-opacity="0.2" stroke-width="1.01134"/>
<path d="M-55.7131 1072.11C-158.229 938.506 -148.18 738.473 -48.8174 522.936C50.5344 307.422 239.129 76.543 493.433 -118.591C747.736 -313.725 1019.56 -436.137 1253.44 -476.325C1487.35 -516.517 1683.17 -474.451 1785.69 -340.849C1888.2 -207.248 1878.16 -7.21501 1778.79 208.323C1679.44 423.837 1490.85 654.716 1236.54 849.849C982.239 1044.98 710.416 1167.4 476.531 1207.58C242.621 1247.78 46.8028 1205.71 -55.7131 1072.11Z" stroke="#E85324" stroke-opacity="0.2" stroke-width="1.01134"/>
<path d="M156.689 -555.593C290.29 -658.109 490.322 -648.06 705.86 -548.697C921.374 -449.345 1152.25 -260.751 1347.39 -6.44745C1542.52 247.856 1664.93 519.68 1705.12 753.564C1745.31 987.475 1703.25 1183.29 1569.65 1285.81C1436.04 1388.32 1236.01 1378.28 1020.47 1278.91C804.959 1179.56 574.08 990.966 378.946 736.663C183.812 482.359 61.3999 210.536 21.2125 -23.3487C-18.9793 -257.259 23.0873 -453.077 156.689 -555.593Z" stroke="#E85324" stroke-opacity="0.2" stroke-width="1.01134"/>
<path d="M514.176 -741.923C674.783 -792.562 859.315 -714.704 1027.87 -547.616C1196.41 -380.545 1348.86 -124.359 1445.25 181.348C1541.64 487.055 1563.7 784.353 1521.47 1017.88C1479.23 1251.43 1372.73 1421.05 1212.12 1471.69C1051.52 1522.33 866.985 1444.47 698.43 1277.38C529.893 1110.31 377.441 854.124 281.052 548.417C184.663 242.71 162.602 -54.5881 204.832 -288.113C247.066 -521.663 353.569 -691.284 514.176 -741.923Z" stroke="#E85324" stroke-opacity="0.2" stroke-width="1.01134"/>
<path d="M1971.07 14.3732C2021.71 174.98 1943.85 359.512 1776.77 528.067C1609.7 696.604 1353.51 849.056 1047.8 945.445C742.096 1041.83 444.798 1063.89 211.273 1021.67C-22.277 979.431 -191.898 872.928 -242.537 712.322C-293.176 551.715 -215.319 367.182 -48.2297 198.627C118.841 30.0904 375.027 -122.361 680.734 -218.75C986.44 -315.139 1283.74 -337.2 1517.26 -294.971C1750.81 -252.737 1920.43 -146.234 1971.07 14.3732Z" stroke="#E85324" stroke-opacity="0.2" stroke-width="1.01134"/>
<path d="M-165.491 -170.088C-87.732 -319.461 97.8058 -394.891 335.142 -395.928C572.452 -396.965 861.402 -323.614 1145.73 -175.603C1430.05 -27.5933 1655.87 167.029 1791.14 362.016C1926.42 557.025 1971.05 752.274 1893.29 901.647C1815.53 1051.02 1630 1126.45 1392.66 1127.49C1155.35 1128.53 866.399 1055.17 582.074 907.164C297.749 759.154 71.9282 564.532 -63.3379 369.544C-198.619 174.535 -243.25 -20.7142 -165.491 -170.088Z" stroke="#E85324" stroke-opacity="0.2" stroke-width="1.01134"/>
<path d="M1399.48 -665.489C1548.85 -587.73 1624.28 -402.192 1625.32 -164.856C1626.35 72.4535 1553 361.404 1404.99 645.729C1256.98 930.054 1062.36 1155.87 867.371 1291.14C672.362 1426.42 477.114 1471.05 327.741 1393.29C178.367 1315.54 102.936 1130 101.899 892.661C100.863 655.351 174.214 366.401 322.224 82.0759C470.234 -202.249 664.856 -428.07 859.843 -563.336C1054.85 -698.617 1250.1 -743.248 1399.48 -665.489Z" stroke="#E85324" stroke-opacity="0.2" stroke-width="1.01134"/>
<path d="M-291.493 265.047C-276.816 97.2875 -134.267 -43.4033 84.6058 -135.186C303.455 -226.958 598.481 -269.767 917.803 -241.83C1237.13 -213.893 1520.24 -120.504 1719.82 7.8772C1919.43 136.272 2035.39 299.579 2020.71 467.339C2006.03 635.099 1863.48 775.79 1644.61 867.573C1425.76 959.345 1130.74 1002.15 811.413 974.217C492.09 946.28 208.98 852.891 9.39223 724.51C-190.218 596.115 -306.17 432.807 -291.493 265.047Z" stroke="#E85324" stroke-opacity="0.2" stroke-width="1.01134"/>
<path d="M964.751 -791.53C1132.51 -776.853 1273.2 -634.304 1364.98 -415.431C1456.76 -196.582 1499.57 98.4435 1471.63 417.766C1443.69 737.089 1350.3 1020.2 1221.92 1219.79C1093.53 1419.4 930.22 1535.35 762.46 1520.67C594.7 1506 454.009 1363.45 362.226 1144.57C270.454 925.724 227.645 630.699 255.582 311.376C283.519 -7.94686 376.908 -291.057 505.289 -490.645C633.684 -690.255 796.992 -806.207 964.751 -791.53Z" stroke="#E85324" stroke-opacity="0.2" stroke-width="1.01134"/>
<path d="M-23.9709 1111.57C-132.217 982.568 -130.903 782.288 -41.0363 562.621C48.8204 342.978 227.165 104.093 472.715 -101.948C718.264 -307.988 984.49 -442.141 1216.4 -492.492C1448.33 -542.849 1645.8 -509.364 1754.05 -380.362C1862.29 -251.359 1860.98 -51.0785 1771.11 168.588C1681.25 388.231 1502.91 627.116 1257.36 833.157C1011.81 1039.2 745.585 1173.35 513.676 1223.7C281.741 1274.06 84.2751 1240.57 -23.9709 1111.57Z" stroke="#E85324" stroke-opacity="0.2" stroke-width="1.01134"/>
<path d="M117.222 -523.845C246.225 -632.091 446.505 -630.777 666.172 -540.91C885.814 -451.054 1124.7 -272.709 1330.74 -27.1595C1536.78 218.39 1670.93 484.616 1721.29 716.525C1771.64 948.459 1738.16 1145.93 1609.15 1254.17C1480.15 1362.42 1279.87 1361.1 1060.2 1271.24C840.562 1181.38 601.677 1003.04 395.636 757.486C189.595 511.936 55.4424 245.711 5.09133 13.8022C-45.2652 -218.133 -11.7801 -415.599 117.222 -523.845Z" stroke="#E85324" stroke-opacity="0.2" stroke-width="1.01134"/>
<path d="M466.245 -725.589C624.49 -783.185 812.243 -713.451 987.926 -553.874C1163.59 -394.314 1327.07 -145.021 1436.7 156.19C1546.34 457.402 1581.34 753.455 1549.34 988.599C1517.33 1223.77 1418.33 1397.87 1260.09 1455.47C1101.84 1513.07 914.088 1443.33 738.404 1283.76C562.741 1124.2 399.259 874.903 289.627 573.692C179.995 272.48 144.987 -23.5728 176.99 -258.717C208.997 -493.888 308 -667.993 466.245 -725.589Z" stroke="#E85324" stroke-opacity="0.2" stroke-width="1.01134"/>
<path d="M1954.75 -33.5712C2012.35 124.674 1942.62 312.427 1783.04 488.109C1623.48 663.773 1374.19 827.255 1072.97 936.887C771.763 1046.52 475.711 1081.53 240.566 1049.52C5.39598 1017.52 -168.709 918.514 -226.305 760.27C-283.902 602.025 -214.168 414.271 -54.5902 238.588C104.97 62.9244 354.262 -100.557 655.474 -210.189C956.685 -319.821 1252.74 -354.829 1487.88 -322.826C1723.05 -290.819 1897.16 -191.816 1954.75 -33.5712Z" stroke="#E85324" stroke-opacity="0.2" stroke-width="1.01134"/>
<path d="M-187.831 -124.655C-116.662 -277.277 65.4091 -360.729 302.474 -372.117C539.513 -383.504 831.388 -322.827 1121.9 -187.36C1412.41 -51.8926 1646.5 132.694 1790.15 321.596C1933.8 510.518 1986.91 703.634 1915.74 856.257C1844.57 1008.88 1662.5 1092.33 1425.44 1103.72C1188.4 1115.11 896.521 1054.43 606.011 918.963C315.501 783.496 81.4055 598.909 -62.2371 410.008C-205.895 221.085 -259.001 27.9683 -187.831 -124.655Z" stroke="#E85324" stroke-opacity="0.2" stroke-width="1.01134"/>
<path d="M1354.03 -687.849C1506.66 -616.68 1590.11 -434.609 1601.5 -197.544C1612.88 39.495 1552.21 331.37 1416.74 621.88C1281.27 912.391 1096.68 1146.49 907.783 1290.13C718.861 1433.79 525.745 1486.89 373.122 1415.72C220.499 1344.55 137.047 1162.48 125.658 925.418C114.271 688.379 174.949 396.504 310.416 105.993C445.883 -184.517 630.469 -418.612 819.371 -562.255C1008.29 -705.913 1201.41 -759.018 1354.03 -687.849Z" stroke="#E85324" stroke-opacity="0.2" stroke-width="1.01134"/>
<path d="M-294.731 315.563C-287.386 147.323 -151.11 0.548365 63.5516 -100.694C278.189 -201.925 571.067 -257.562 891.304 -243.58C1211.54 -229.598 1498.46 -148.647 1703.45 -29.0943C1908.47 90.4717 2031.44 248.565 2024.09 416.806C2016.75 585.046 1880.47 731.821 1665.81 833.064C1451.17 934.295 1158.3 989.932 838.059 975.95C517.821 961.968 230.907 881.017 25.909 761.464C-179.112 641.898 -302.077 483.804 -294.731 315.563Z" stroke="#E85324" stroke-opacity="0.2" stroke-width="1.01134"/>
<path d="M914.237 -794.809C1082.48 -787.463 1229.25 -651.187 1330.49 -436.526C1431.73 -221.888 1487.36 70.9897 1473.38 391.227C1459.4 711.465 1378.45 998.379 1258.89 1203.38C1139.33 1408.4 981.236 1531.36 812.995 1524.02C644.755 1516.67 497.979 1380.4 396.737 1165.73C295.506 951.096 239.869 658.219 253.851 337.981C267.832 17.7439 348.784 -269.17 468.337 -474.168C587.903 -679.189 745.997 -802.154 914.237 -794.809Z" stroke="#E85324" stroke-opacity="0.2" stroke-width="1.01134"/>
<path d="M9.4477 1149.61C-104.322 1025.46 -111.746 825.309 -31.5463 601.932C48.6442 378.579 216.399 132.142 452.727 -84.4137C689.056 -300.969 949.176 -446.607 1178.67 -507.026C1408.19 -567.451 1606.92 -542.612 1720.69 -418.454C1834.46 -294.296 1841.89 -94.1482 1761.69 129.23C1681.5 352.583 1513.74 599.02 1277.42 815.575C1041.09 1032.13 780.966 1177.77 551.474 1238.19C321.957 1298.61 123.218 1273.77 9.4477 1149.61Z" stroke="#E85324" stroke-opacity="0.2" stroke-width="1.01134"/>
<path d="M79.1762 -490.409C203.334 -604.178 403.482 -611.602 626.859 -531.403C850.212 -451.212 1096.65 -283.458 1313.2 -47.129C1529.76 189.2 1675.4 449.32 1735.82 678.812C1796.24 908.329 1771.4 1107.07 1647.24 1220.84C1523.09 1334.61 1322.94 1342.03 1099.56 1261.83C876.208 1181.64 629.771 1013.89 413.216 777.559C196.66 541.23 51.0227 281.11 -9.39621 51.6177C-69.8217 -177.9 -44.9818 -376.639 79.1762 -490.409Z" stroke="#E85324" stroke-opacity="0.2" stroke-width="1.01134"/>
</g>
<path d="M1728 825.998V824.998H0V825.998V826.998H1728V825.998Z" fill="#FFCFD1" mask="url(#path-1-inside-1_569_438)"/>
<defs>
<clipPath id="clip0_569_438">
<path d="M0 -0.00195312H1728V825.998H0V-0.00195312Z" fill="white"/>
</clipPath>
</defs>
</svg>
